<?xml version="1.0" encoding="UTF-8" standalone="no"?>
<svg width="1141px" height="212px" viewBox="0 0 1141 212" version="1.1" xmlns="http://www.w3.org/2000/svg" xmlns:xlink="http://www.w3.org/1999/xlink">
    <!-- Generator: Sketch 46.2 (44496) - http://www.bohemiancoding.com/sketch -->
    <title>logo</title>
    <desc>Created with Sketch.</desc>
    <defs></defs>
    <g id="Page-1" stroke="none" stroke-width="1" fill="none" fill-rule="evenodd">
        <g id="logo" transform="translate(0.000000, -1.000000)">
            <path d="M420.08,102.44 C419.647998,101.863997 419.432,101.264003 419.432,100.64 C419.432,100.015997 419.839996,99.1520055 420.656,98.048 C421.472004,96.9439945 422.191997,96.4159998 422.816,96.464 C423.440003,96.5120002 424.879989,96.5120002 427.136,96.464 C429.392011,96.4159998 430.903996,96.2480014 431.672,95.96 C432.440004,95.6719986 432.967999,95.1440038 433.256,94.376 C434.120004,91.975988 435.319992,89.3840139 436.856,86.6 C439.736014,81.0319722 442.039991,77.5280072 443.768,76.088 C445.496009,74.6479928 447.559988,74.9359899 449.96,76.952 C450.728004,78.1040058 451.136,78.8479983 451.184,79.184 C451.232,79.5200017 450.920003,80.3599933 450.248,81.704 C449.575997,83.0480067 448.592006,84.7999892 447.296,86.96 C445.999994,89.1200108 445.112002,90.6799952 444.632,91.64 C442.999992,93.9440115 442.759994,95.191999 443.912,95.384 C445.064006,95.576001 447.919977,95.3120036 452.48,94.592 C457.040023,93.8719964 459.559998,95.1919832 460.04,98.552 C460.328001,100.856012 460.088004,102.247998 459.32,102.728 C458.551996,103.208002 456.344018,103.448 452.696,103.448 C449.623985,103.928002 446.720014,104.192 443.984,104.24 C441.247986,104.288 439.592003,104.407999 439.016,104.6 C437.863994,104.888001 436.952003,105.799992 436.28,107.336 C435.991999,107.528001 435.656002,108.055996 435.272,108.92 C434.695997,110.072006 433.496009,112.327983 431.672,115.688 C429.079987,123.368038 427.376004,129.823974 426.56,135.056 C425.743996,140.288026 425.575998,143.359995 426.056,144.272 C426.536002,145.184005 428.215986,145.783999 431.096,146.072 C435.992024,146.648003 441.271972,145.256017 446.936,141.896 L450.824,139.592 C451.784005,138.055992 452.791995,138.535988 453.848,141.032 C453.848,142.088005 453.776001,142.903997 453.632,143.48 C453.487999,144.056003 452.960005,144.871995 452.048,145.928 C451.135995,146.984005 449.72001,148.039995 447.8,149.096 C440.503964,153.704023 433.496034,155.336007 426.776,153.992 C425.239992,153.703999 423.680008,152.672009 422.096,150.896 C420.511992,149.119991 419.480002,147.464008 419,145.928 L418.28,144.776 C417.703997,144.295998 417.511999,141.824022 417.704,137.36 C417.896001,132.895978 418.231998,129.728009 418.712,127.856 C419.192002,125.983991 420.055994,123.368017 421.304,120.008 C422.552006,116.647983 423.319999,114.440005 423.608,113.384 L427.496,105.032 L421.736,103.448 C421.063997,103.352 420.512002,103.016003 420.08,102.44 Z M492.008,107.768 C496.616023,104.503984 500.095988,102.872 502.448,102.872 C504.800012,102.872 506.455995,103.783991 507.416,105.608 C509.144009,108.680015 509.04801,111.415988 507.128,113.816 C506.263996,114.872005 505.160007,115.687997 503.816,116.264 C502.471993,116.840003 501.512003,117.128 500.936,117.128 C500.359997,117.128 499.640004,116.696004 498.776,115.832 C497.911996,114.967996 497.432,114.248003 497.336,113.672 C497.336,113.191998 495.992013,114.031989 493.304,116.192 C490.615987,118.352011 488.840004,119.863996 487.976,120.728 C485.767989,123.416013 481.880028,130.327944 476.312,141.464 C475.735997,142.616006 475.160003,144.007992 474.584,145.64 C473.527995,148.616015 472.712003,150.199999 472.136,150.392 C471.559997,150.584001 470.648006,150.488002 469.4,150.104 C464.503976,148.567992 464.311977,144.536033 468.824,138.008 C469.496003,136.663993 470.79199,133.184028 472.712,127.568 C474.63201,121.951972 475.735999,118.808003 476.024,118.136 C476.216001,116.503992 476.120002,115.352003 475.736,114.68 C475.255998,113.815996 474.488005,113.384 473.432,113.384 C472.375995,113.384 471.704001,113.336 471.416,113.24 C470.647996,113.144 470.264,112.13601 470.264,110.216 C470.456001,108.391991 471.55999,106.856006 473.576,105.608 C477.032017,103.783991 479.76799,103.735991 481.784,105.464 C483.032006,106.328004 483.656,109.495973 483.656,114.968 C488.648025,110.743979 491.431997,108.344003 492.008,107.768 Z M551.912,113.96 C550.183991,110.119981 548.264011,108.2 546.152,108.2 C544.039989,108.2 540.824022,110.719975 536.504,115.76 C532.183978,120.800025 528.248018,126.727966 524.696,133.544 L521.096,141.752 C521.096,142.808005 522.319988,142.736006 524.768,141.536 C527.216012,140.335994 529.255992,139.064007 530.888,137.72 C539.144041,130.615964 545.095982,124.424026 548.744,119.144 L551.912,113.96 Z M514.544,148.016 C513.919997,147.391997 513.608,146.768003 513.608,146.144 C513.608,145.519997 513.368002,144.920003 512.888,144.344 C511.255992,142.711992 513.847966,135.656062 520.664,123.176 C521.240003,122.599997 521.983995,121.592007 522.896,120.152 C523.808005,118.711993 524.407999,117.896001 524.696,117.704 C524.696,117.319998 524.839999,116.960002 525.128,116.624 C525.416001,116.287998 525.751998,116.12 526.136,116.12 L526.136,115.256 C526.136,114.391996 527.719984,112.280017 530.888,108.92 C539.336042,100.087956 545.863977,97.4959818 550.472,101.144 C551.048003,101.912004 555.031963,105.559967 562.424,112.088 L559.832,119.288 C557.719989,125.528031 558.343983,131.383973 561.704,136.856 C562.184002,137.912005 563.143993,138.919995 564.584,139.88 C566.024007,140.840005 567.463993,141.415999 568.904,141.608 C571.016011,141.992002 572.072,143.095991 572.072,144.92 C572.072,146.744009 571.208009,147.847998 569.48,148.232 C563.047968,149.096004 557.576023,145.160044 553.064,136.424 C551.719993,134.599991 550.856002,132.488012 550.472,130.088 C549.031993,132.10401 547.496008,133.927992 545.864,135.56 C532.327932,149.192068 522.344032,153.944021 515.912,149.816 C515.623999,149.239997 515.168003,148.640003 514.544,148.016 Z M587.192,109.496 C587.672002,108.823997 588.439995,108.655998 589.496,108.992 C590.552005,109.328002 591.487996,109.951995 592.304,110.864 C593.120004,111.776005 593.408001,113.26399 593.168,115.328 C592.927999,117.39201 591.84801,121.807966 589.928,128.576 C588.00799,135.344034 587.143999,140.359984 587.336,143.624 C586.759997,148.040022 586.328001,150.296 586.04,150.392 C584.407992,151.064003 582.968006,150.320011 581.72,148.16 C580.471994,145.999989 579.752001,144.056009 579.56,142.328 C579.944002,138.679982 580.231999,136.088008 580.424,134.552 C581.192004,130.999982 582.415992,126.128031 584.096,119.936 C585.776008,113.743969 586.807998,110.264004 587.192,109.496 Z M594.392,79.4 C595.256004,78.1519938 596.143995,77.5040002 597.056,77.456 C597.968005,77.4079998 599.38399,77.7679962 601.304,78.536 C601.592001,78.8240014 601.951998,79.4959947 602.384,80.552 C602.816002,81.6080053 603.199998,82.5439959 603.536,83.36 C603.872002,84.1760041 604.088,84.7759981 604.184,85.16 C604.28,85.5440019 604.399999,86.0959964 604.544,86.816 C604.688001,87.5360036 604.688001,88.1359976 604.544,88.616 C604.399999,89.0960024 604.232001,89.6239971 604.04,90.2 C603.655998,91.2560053 602.984005,92.1199966 602.024,92.792 C601.063995,93.4640034 600.008006,93.4160038 598.856,92.648 C597.895995,92.5519995 596.624008,91.7120079 595.04,90.128 C593.455992,88.5439921 592.64,87.3680038 592.592,86.6 C592.544,85.8319962 592.615999,84.752007 592.808,83.36 C593.000001,81.967993 593.527996,80.6480062 594.392,79.4 Z M618.296,94.808 L619.16,92.648 C619.256,91.4959942 619.639997,90.3440058 620.312,89.192 C621.464006,87.4639914 622.327997,85.7840082 622.904,84.152 C624.440008,80.8879837 625.783994,78.3920086 626.936,76.664 C627.896005,74.3599885 629.047993,72.5360067 630.392,71.192 L630.248,71.048 C630.920003,69.8959942 632.095992,69.32 633.776,69.32 C635.456008,69.32 636.415999,69.4879983 636.656,69.824 C636.896001,70.1600017 637.016,71.3119902 637.016,73.28 C637.016,75.2480098 636.584004,76.7119952 635.72,77.672 L635.864,77.672 C634.711994,80.3600134 633.896002,82.0159969 633.416,82.64 C632.935998,83.2640031 631.064016,87.0319654 627.8,93.944 C622.615974,104.504053 620.024,110.359994 620.024,111.512 C618.967995,113.816012 618.392,115.063999 618.296,115.256 L615.128,126.632 C613.591992,130.760021 612.776,133.063998 612.68,133.544 C611.143992,137.768021 610.088003,143.671962 609.512,151.256 L609.368,151.832 C609.079999,153.84801 608.600003,155.191997 607.928,155.864 C607.255997,156.536003 606.248007,156.680002 604.904,156.296 C602.503988,155.527996 601.256,153.320018 601.16,149.672 C603.464012,135.65593 605.911987,125.096036 608.504,117.992 C609.176003,116.167991 609.751998,114.536007 610.232,113.096 C613.496016,103.687953 616.183989,97.5920139 618.296,94.808 Z M679.064,125.624 L678.344,133.256 L677.48,137.864 L679.784,137.864 L682.952,138.584 C683.816004,139.640005 684.583997,140.168 685.256,140.168 C686.792008,140.168 687.080005,140.887993 686.12,142.328 C685.639998,143.000003 685.064003,143.575998 684.392,144.056 C679.783977,147.032015 675.992015,147.032015 673.016,144.056 C670.039985,141.079985 669.271993,136.712029 670.712,130.952 C671.192002,126.823979 671.408,123.75201 671.36,121.736 C671.312,119.71999 670.808005,118.712 669.848,118.712 C667.639989,118.712 663.104034,121.231975 656.24,126.272 C649.375966,131.312025 644.216017,136.423974 640.76,141.608 C637.879986,145.256018 635.648008,147.151999 634.064,147.296 C632.479992,147.440001 631.136006,147.032005 630.032,146.072 C628.927994,145.111995 628.352,144.272004 628.304,143.552 C628.256,142.831996 628.423998,141.560009 628.808,139.736 C631.400013,128.791945 634.231985,119.144042 637.304,110.792 C638.456006,106.567979 639.919991,102.224022 641.696,97.76 C643.472009,93.2959777 644.983994,89.3120175 646.232,85.808 C647.480006,82.3039825 648.679994,78.9680158 649.832,75.8 C650.984006,72.6319842 651.847997,70.3280072 652.424,68.888 C653.192004,66.8719899 653.863997,64.9520091 654.44,63.128 C654.44,61.5919923 655.207992,60.824 656.744,60.824 C658.66401,60.824 660.079995,62.1679866 660.992,64.856 C661.904005,67.5440134 661.664007,70.3519854 660.272,73.28 C658.879993,76.2080146 656.528017,82.3279534 653.216,91.64 C649.903983,100.952047 647.528007,107.143985 646.088,110.216 C646.088,111.368006 645.08001,113.95998 643.064,117.992 C643.064,118.376002 642.464006,120.511981 641.264,124.4 C640.063994,128.288019 639.320001,131.19199 639.032,133.112 C640.472007,130.615988 642.919983,127.832015 646.376,124.76 C651.656026,120.247977 654.919994,117.560004 656.168,116.696 L660.632,113.672 C660.632,113.191998 661.015996,112.952 661.784,112.952 C662.552004,112.952 662.936,112.640003 662.936,112.016 C662.936,111.391997 664.039989,110.816003 666.248,110.288 C668.456011,109.759997 670.279993,109.496 671.72,109.496 C673.160007,109.496 674.215997,109.735998 674.888,110.216 C675.560003,110.696002 676.423995,111.751992 677.48,113.384 C680.168013,116.840017 680.696008,120.919976 679.064,125.624 Z M727.016,109.064 C725.575993,107.431992 723.416014,107.671989 720.536,109.784 C719.575995,110.072001 718.160009,111.127991 716.288,112.952 C714.415991,114.776009 712.808007,116.575991 711.464,118.352 C710.119993,120.128009 709.687998,121.159999 710.168,121.448 C710.072,121.640001 710.191998,121.784 710.528,121.88 C710.864002,121.976 711.295997,122.048 711.824,122.096 C712.352003,122.144 712.855998,122.192 713.336,122.24 C713.816002,122.288 714.271998,122.288 714.704,122.24 C715.136002,122.192 716.095993,122.048001 717.584,121.808 C719.072007,121.567999 720.007998,121.376001 720.392,121.232 C720.776002,121.087999 721.447995,120.728003 722.408,120.152 C723.560006,119.479997 725.239989,117.560016 727.448,114.392 C728.120003,111.799987 727.976005,110.024005 727.016,109.064 Z M695.336,116.84 L697.784,116.552 C699.128007,116.552 699.8,116.839997 699.8,117.416 C700.472003,118.664006 701.527993,118.32801 702.968,116.408 C703.448002,115.735997 703.927998,114.920005 704.408,113.96 C705.752007,111.847989 707.743987,109.616012 710.384,107.264 C713.024013,104.911988 715.207991,103.256005 716.936,102.296 C719.912015,100.951993 722.647988,100.399999 725.144,100.64 C727.640012,100.880001 730.183987,102.391986 732.776,105.176 C734.408008,106.424006 735.295999,108.343987 735.44,110.936 C735.584001,113.528013 735.128005,115.78399 734.072,117.704 C733.687998,119.144007 732.176013,120.967989 729.536,123.176 C726.895987,125.384011 724.472011,126.919996 722.264,127.784 C720.24799,128.264002 717.704015,128.575999 714.632,128.72 C711.559985,128.864001 709.544005,128.696002 708.584,128.216 C707.911997,127.831998 707.384002,128.431992 707,130.016 C706.615998,131.600008 706.304001,133.807986 706.064,136.64 C705.823999,139.472014 705.895998,141.199997 706.28,141.824 C706.664002,142.448003 707.047998,142.903999 707.432,143.192 C710.792017,146.648017 714.343981,146.840015 718.088,143.768 C719.240006,142.711995 720.511993,141.464007 721.904,140.024 C723.296007,138.583993 724.327997,137.576003 725,137 C725.768004,135.655993 727.399988,135.319997 729.896,135.992 C730.856005,136.856004 731.312,137.671996 731.264,138.44 C731.216,139.208004 730.832004,140.311993 730.112,141.752 C729.391996,143.192007 728.096009,144.751992 726.224,146.432 C724.351991,148.112008 722.696007,149.431995 721.256,150.392 C716.167975,153.080013 711.080025,153.46401 705.992,151.544 C702.247981,150.007992 699.824006,147.872014 698.72,145.136 C697.615994,142.399986 697.303998,138.872022 697.784,134.552 C698.264002,130.231978 698.456,127.544005 698.36,126.488 C698.264,125.431995 697.952003,124.664002 697.424,124.184 C696.895997,123.703998 696.392002,123.224002 695.912,122.744 C694.855995,121.687995 694.28,120.848003 694.184,120.224 C694.088,119.599997 694.159999,118.880004 694.4,118.064 C694.640001,117.247996 694.951998,116.84 695.336,116.84 Z M779.72,113.96 C777.991991,110.119981 776.072011,108.2 773.96,108.2 C771.847989,108.2 768.632022,110.719975 764.312,115.76 C759.991978,120.800025 756.056018,126.727966 752.504,133.544 L748.904,141.752 C748.904,142.808005 750.127988,142.736006 752.576,141.536 C755.024012,140.335994 757.063992,139.064007 758.696,137.72 C766.952041,130.615964 772.903982,124.424026 776.552,119.144 L779.72,113.96 Z M742.352,148.016 C741.727997,147.391997 741.416,146.768003 741.416,146.144 C741.416,145.519997 741.176002,144.920003 740.696,144.344 C739.063992,142.711992 741.655966,135.656062 748.472,123.176 C749.048003,122.599997 749.791995,121.592007 750.704,120.152 C751.616005,118.711993 752.215999,117.896001 752.504,117.704 C752.504,117.319998 752.647999,116.960002 752.936,116.624 C753.224001,116.287998 753.559998,116.12 753.944,116.12 L753.944,115.256 C753.944,114.391996 755.527984,112.280017 758.696,108.92 C767.144042,100.087956 773.671977,97.4959818 778.28,101.144 C778.856003,101.912004 782.839963,105.559967 790.232,112.088 L787.64,119.288 C785.527989,125.528031 786.151983,131.383973 789.512,136.856 C789.992002,137.912005 790.951993,138.919995 792.392,139.88 C793.832007,140.840005 795.271993,141.415999 796.712,141.608 C798.824011,141.992002 799.88,143.095991 799.88,144.92 C799.88,146.744009 799.016009,147.847998 797.288,148.232 C790.855968,149.096004 785.384023,145.160044 780.872,136.424 C779.527993,134.599991 778.664002,132.488012 778.28,130.088 C776.839993,132.10401 775.304008,133.927992 773.672,135.56 C760.135932,149.192068 750.152032,153.944021 743.72,149.816 C743.431999,149.239997 742.976003,148.640003 742.352,148.016 Z M839.912,115.256 C839.912,114.679997 839.000009,114.296001 837.176,114.104 C831.607972,113.335996 825.896029,116.455965 820.04,123.464 C817.639988,126.344014 815.624008,129.511983 813.992,132.968 C810.631983,139.784034 809.91199,143.623996 811.832,144.488 C814.520013,144.488 818.935969,141.704028 825.08,136.136 C827.672013,133.639988 830.791982,129.752026 834.44,124.472 C838.088018,119.191974 839.912,116.120004 839.912,115.256 Z M844.376,135.416 C843.991998,137.720012 843.8,141.319976 843.8,146.216 C843.8,151.112024 843.368004,153.56 842.504,153.56 C840.871992,153.56 839.528005,152.888007 838.472,151.544 C837.415995,150.199993 836.696002,148.952006 836.312,147.8 C835.927998,146.647994 835.879999,144.968011 836.168,142.76 L836.744,136.136 C836.455999,136.136 836.264,136.112 836.168,136.064 C836.072,136.016 835.760003,136.159998 835.232,136.496 C834.703997,136.832002 834.296001,137.143999 834.008,137.432 C833.719999,137.720001 833.216004,138.151997 832.496,138.728 C831.775996,139.304003 831.128003,139.831998 830.552,140.312 C822.103958,149.816048 815.000029,154.184004 809.24,153.416 C804.535976,152.839997 802.615996,148.52004 803.48,140.456 C804.248004,134.023968 806.59998,127.78403 810.536,121.736 C812.168008,118.855986 814.543984,116.072013 817.664,113.384 C820.784016,110.695987 823.879985,108.824005 826.952,107.768 C831.656024,105.943991 835.97598,105.655994 839.912,106.904 C842.312012,108.152006 843.799997,107.960008 844.376,106.328 C844.664001,105.847998 845.143997,104.672009 845.816,102.8 C846.488003,100.927991 847.063998,99.5600043 847.544,98.696 C850.040012,91.2079626 852.24799,85.2800218 854.168,80.912 C856.08801,76.5439782 857.575995,73.1120125 858.632,70.616 C860.168008,67.5439846 861.487994,65.7200029 862.592,65.144 C863.696006,64.5679971 864.919993,64.9999928 866.264,66.44 C867.224005,67.9760077 867.608001,69.4159933 867.416,70.76 C867.223999,72.1040067 866.360008,74.5999818 864.824,78.248 C862.519988,81.9920187 859.016024,89.7199414 854.312,101.432 C854.216,101.912002 853.760004,103.519986 852.944,106.256 C852.127996,108.992014 851.456003,111.703987 850.928,114.392 C850.399997,117.080013 849.848003,118.424 849.272,118.424 C847.543991,120.248009 845.912008,125.911952 844.376,135.416 Z M864.248,136.28 C865.976009,135.223995 867.247996,134.648 868.064,134.552 C868.880004,134.456 870.151991,134.791996 871.88,135.56 C874.760014,137.384009 876.032002,139.399989 875.696,141.608 C875.359998,143.816011 873.416018,145.783991 869.864,147.512 C866.599984,148.856007 863.768012,148.616009 861.368,146.792 C857.911983,143.431983 858.871973,139.928018 864.248,136.28 Z M928.256,119.144 C927.343995,120.488007 926.408005,121.16 925.448,121.16 C924.487995,121.16 924.008,121.447997 924.008,122.024 C924.008,122.888004 923.456006,122.984003 922.352,122.312 C921.247994,121.639997 920.624001,120.968003 920.48,120.296 C920.335999,119.623997 920.335999,119.000003 920.48,118.424 C920.624001,117.847997 920.887998,117.032005 921.272,115.976 C923.672012,108.391962 922.568023,105.55999 917.96,107.48 C909.99196,111.992023 904.088019,121.687926 900.248,136.568 C899.479996,139.256013 899.239999,141.295993 899.528,142.688 C899.816001,144.080007 900.055999,144.824 900.248,144.92 C901.592007,145.304002 903.415988,145.376001 905.72,145.136 C908.024012,144.895999 910.20799,144.224006 912.272,143.12 C914.33601,142.015994 916.32799,140.744007 918.248,139.304 C920.16801,137.863993 921.607995,136.736004 922.568,135.92 C923.528005,135.103996 924.295997,134.552001 924.872,134.264 C925.736004,132.919993 926.479997,132.2 927.104,132.104 C927.728003,132.008 928.519995,131.96 929.48,131.96 C931.784012,132.728004 932.984,133.543996 933.08,134.408 C933.08,134.600001 932.888002,134.791999 932.504,134.984 L931.784,135.704 C932.168002,136.472004 930.488019,138.583983 926.744,142.04 C922.999981,145.496017 920.600005,147.224 919.544,147.224 C918.487995,147.224 917.96,147.511997 917.96,148.088 C917.96,148.472002 916.496015,149.359993 913.568,150.752 C910.639985,152.144007 908.264009,153.031998 906.44,153.416 C902.119978,154.184004 898.496015,153.464011 895.568,151.256 C892.639985,149.047989 891.176,145.688023 891.176,141.176 C890.791998,136.951979 891.727989,131.720031 893.984,125.48 C896.240011,119.239969 899.455979,113.600025 903.632,108.56 C907.808021,103.519975 910.999989,100.544005 913.208,99.632 C915.416011,98.7199954 917.767988,98.264 920.264,98.264 C921.992009,98.6480019 923.695992,99.3679947 925.376,100.424 C927.056008,101.480005 927.896,102.535995 927.896,103.592 L928.616,104.312 C929.480004,104.312 930.151998,105.607987 930.632,108.2 C931.112002,110.792013 930.968004,112.855992 930.2,114.392 C929.815998,116.216009 929.168005,117.799993 928.256,119.144 Z M978.872,113.96 C977.143991,110.119981 975.224011,108.2 973.112,108.2 C970.999989,108.2 967.784022,110.719975 963.464,115.76 C959.143978,120.800025 955.208018,126.727966 951.656,133.544 L948.056,141.752 C948.056,142.808005 949.279988,142.736006 951.728,141.536 C954.176012,140.335994 956.215992,139.064007 957.848,137.72 C966.104041,130.615964 972.055982,124.424026 975.704,119.144 L978.872,113.96 Z M941.504,148.016 C940.879997,147.391997 940.568,146.768003 940.568,146.144 C940.568,145.519997 940.328002,144.920003 939.848,144.344 C938.215992,142.711992 940.807966,135.656062 947.624,123.176 C948.200003,122.599997 948.943995,121.592007 949.856,120.152 C950.768005,118.711993 951.367999,117.896001 951.656,117.704 C951.656,117.319998 951.799999,116.960002 952.088,116.624 C952.376001,116.287998 952.711998,116.12 953.096,116.12 L953.096,115.256 C953.096,114.391996 954.679984,112.280017 957.848,108.92 C966.296042,100.087956 972.823977,97.4959818 977.432,101.144 C978.008003,101.912004 981.991963,105.559967 989.384,112.088 L986.792,119.288 C984.679989,125.528031 985.303983,131.383973 988.664,136.856 C989.144002,137.912005 990.103993,138.919995 991.544,139.88 C992.984007,140.840005 994.423993,141.415999 995.864,141.608 C997.976011,141.992002 999.032,143.095991 999.032,144.92 C999.032,146.744009 998.168009,147.847998 996.44,148.232 C990.007968,149.096004 984.536023,145.160044 980.024,136.424 C978.679993,134.599991 977.816002,132.488012 977.432,130.088 C975.991993,132.10401 974.456008,133.927992 972.824,135.56 C959.287932,149.192068 949.304032,153.944021 942.872,149.816 C942.583999,149.239997 942.128003,148.640003 941.504,148.016 Z M1073.768,147.656 L1070.6,148.376 C1069.35199,148.760002 1067.79201,148.592004 1065.92,147.872 C1064.04799,147.151996 1062.872,145.83201 1062.392,143.912 C1061.04799,140.839985 1060.76,136.760025 1061.528,131.672 C1061.72,130.711995 1061.912,129.656006 1062.104,128.504 C1062.392,125.719986 1062.632,124.184001 1062.824,123.896 C1062.824,121.399988 1062.68,120.152 1062.392,120.152 C1061.624,120.152 1059.08002,122.647975 1054.76,127.64 C1048.03997,135.320038 1043.76801,141.271979 1041.944,145.496 C1041.56,146.264004 1041.272,146.696 1041.08,146.792 C1039.63999,148.328008 1038.00801,147.512016 1036.184,144.344 C1035.608,143.383995 1035.416,142.232007 1035.608,140.888 C1035.704,140.503998 1038.15198,132.728076 1042.952,117.56 C1042.952,116.887997 1040.55202,118.615979 1035.752,122.744 C1035.368,123.224002 1034.02401,124.663988 1031.72,127.064 C1025.67197,133.496032 1021.13602,138.799979 1018.112,142.976 C1015.08798,147.152021 1013.07201,149.623996 1012.064,150.392 C1011.05599,151.160004 1010.072,150.992006 1009.112,149.888 C1008.152,148.783994 1007.672,147.800004 1007.672,146.936 C1007.672,146.071996 1007.432,145.64 1006.952,145.64 C1006.376,145.063997 1007.47999,141.77603 1010.264,135.776 C1013.04801,129.77597 1015.44799,125.192016 1017.464,122.024 C1018.136,121.351997 1018.424,120.680003 1018.328,120.008 C1019.288,118.279991 1019.96,117.224002 1020.344,116.84 C1021.97601,113.671984 1022.648,111.12801 1022.36,109.208 C1022.072,108.919999 1021.76,108.776 1021.424,108.776 C1021.088,108.776 1020.8,108.847999 1020.56,108.992 C1020.32,109.136001 1019.96,109.303999 1019.48,109.496 C1018.712,109.688001 1017.80001,110.023998 1016.744,110.504 C1014.53599,112.040008 1013.048,112.736001 1012.28,112.592 C1011.512,112.447999 1010.72,111.39201 1009.904,109.424 C1009.088,107.45599 1009.112,106.112004 1009.976,105.392 C1010.84,104.671996 1011.728,104.096002 1012.64,103.664 C1013.552,103.231998 1014.53599,102.704003 1015.592,102.08 C1016.64801,101.455997 1017.608,101.048001 1018.472,100.856 C1023.65603,99.3199923 1027.06399,100.423981 1028.696,104.168 C1031.67201,108.10402 1031.19202,113.04797 1027.256,119 C1026.872,119.768004 1026.776,120.247999 1026.968,120.44 C1027.16,120.632001 1027.80799,120.032007 1028.912,118.64 C1030.01601,117.247993 1030.952,116.552 1031.72,116.552 C1032.2,116.552 1032.44,116.120004 1032.44,115.256 L1033.88,113.96 C1034.072,113.96 1036.13598,112.424015 1040.072,109.352 C1041.12801,108.583996 1042.088,108.2 1042.952,108.2 C1045.06401,107.527997 1046.83999,108.22399 1048.28,110.288 C1049.72001,112.35201 1050.44,115.111983 1050.44,118.568 L1047.416,126.344 L1052.6,120.008 C1053.464,118.951995 1054.61599,117.800006 1056.056,116.552 C1056.248,115.687996 1056.632,115.256 1057.208,115.256 L1057.496,115.256 C1057.88,115.256 1058.072,115.064002 1058.072,114.68 C1058.264,114.487999 1058.552,114.248001 1058.936,113.96 C1060.08801,113.287997 1060.712,112.808001 1060.808,112.52 C1064.26402,111.175993 1066.90399,112.279982 1068.728,115.832 C1069.592,117.368008 1070.024,119.671985 1070.024,122.744 C1069.736,124.472009 1069.304,127.639977 1068.728,132.248 C1068.248,133.304005 1068.008,134.623992 1068.008,136.208 C1068.008,137.792008 1068.056,138.775998 1068.152,139.16 C1068.152,139.928004 1068.536,140.312 1069.304,140.312 C1070.74401,140.023999 1072.63999,139.328006 1074.992,138.224 C1077.34401,137.119994 1079.14399,135.968006 1080.392,134.768 C1081.64001,133.567994 1082.81599,132.944 1083.92,132.896 C1085.02401,132.848 1085.72,133.399994 1086.008,134.552 C1086.296,135.128003 1085.55201,136.663988 1083.776,139.16 C1081.99999,141.656012 1080.776,142.904 1080.104,142.904 C1079.912,142.904 1079.576,143.191997 1079.096,143.768 C1076.69599,146.360013 1074.92001,147.656 1073.768,147.656 Z M1131.08,115.112 C1130.12,113.479992 1128.12802,112.759999 1125.104,112.952 C1122.07998,113.144001 1118.55202,114.343989 1114.52,116.552 C1112.02399,117.512005 1110.24801,119.095989 1109.192,121.304 C1105.83198,128.120034 1104.296,132.343992 1104.584,133.976 C1105.064,135.224006 1107.89597,134.81601 1113.08,132.752 C1118.26403,130.68799 1122.34399,128.408012 1125.32,125.912 C1130.60003,119.86397 1132.52001,116.264006 1131.08,115.112 Z M1083.416,184.592 C1082.35999,183.295994 1081.832,182.072006 1081.832,180.92 C1081.832,179.767994 1082.79199,175.18404 1084.712,167.168 C1086.63201,159.15196 1088.048,153.872013 1088.96,151.328 C1089.872,148.783987 1090.616,146.792007 1091.192,145.352 C1092.82401,141.223979 1094.16799,137.384018 1095.224,133.832 C1096.28001,130.279982 1098.15199,125.192033 1100.84,118.568 C1103.33601,112.423969 1106.07199,105.272041 1109.048,97.112 C1109.72,95.3839914 1110.89599,94.2800024 1112.576,93.8 C1114.25601,93.3199976 1115.71999,94.0399904 1116.968,95.96 C1117.64,97.1120058 1117.20801,99.5599813 1115.672,103.304 L1114.664,106.184 L1119.848,105.032 C1128.00804,105.032 1132.66399,105.463996 1133.816,106.328 C1134.96801,107.192004 1135.976,108.343993 1136.84,109.784 C1138.47201,111.512009 1139.432,112.951994 1139.72,114.104 C1140.488,117.272016 1139.93601,120.82398 1138.064,124.76 C1136.19199,128.69602 1133.76801,131.62399 1130.792,133.544 L1127.048,135.416 C1126.856,136.184004 1124.67202,137.407992 1120.496,139.088 C1116.31998,140.768008 1112.79201,141.799998 1109.912,142.184 C1107.03199,142.568002 1105.208,142.520002 1104.44,142.04 C1102.61599,141.655998 1101.704,141.751997 1101.704,142.328 C1099.30399,149.432036 1097.33601,155.911971 1095.8,161.768 C1090.51997,177.608079 1087.448,186.055995 1086.584,187.112 C1085.52799,186.727998 1084.47201,185.888006 1083.416,184.592 Z" id="trailhead.camp" fill="#36383C"></path>
            <g id="Group-6">
                <path d="M7,210 L356.855534,208 C357.61612,209.583638 355.373456,210.482837 350.127543,210.697594 C342.258672,211.019731 228.306216,212.497194 181.927767,212.762323 C139.881702,213.002685 26.5723375,212.762323 16.7861688,212.762323 C10.2620563,212.762323 7,211.841549 7,210 Z" id="Path-3" fill="#36383C"></path>
                <g id="Hut" transform="translate(157.000000, 166.000000)" stroke-width="2" stroke="#36383C">
                    <polygon id="Path-4" points="0.416666667 17.25 2.5 18.5 24.5833333 5.16666667 47.9166667 18.5 49.5833333 17.25 24.5833333 1.41666667"></polygon>
                    <polyline id="Path-5" points="29.5833333 4.66666667 29.5833333 0.0833333333 34.1666667 0.0833333333 34.1666667 7.58333333"></polyline>
                    <path d="M5.97222222,16.4166667 C5.69444444,34.75 5.83333333,44.0555556 6.38888889,44.3333333 C6.81504334,44.5464106 15.4529855,44.8056124 24.7222222,44.75 C33.5787235,44.6968639 43.8888889,44.1023894 43.8888889,43.5 C43.8888889,39.8888889 43.8888889,30.8611111 43.8888889,16.4166667 C37.3616071,15.5833333 30.9727182,15.1666667 24.7222222,15.1666667 C18.4717262,15.1666667 12.2217262,15.5833333 5.97222222,16.4166667 Z" id="Path-7"></path>
                    <path d="M19.5833333,35.1979712 C15.0460349,35.253252 10.5089979,35.3817485 5.97222222,35.5834605 C5.69444444,41.6964363 5.83333333,44.7992346 6.38888889,44.8918555 C6.81504334,44.9629029 15.4529855,45.0493299 24.7222222,45.0307868 C33.5787235,45.0130693 43.8888889,44.8148507 43.8888889,44.6139929 C43.8888889,43.409922 43.8888889,40.3997445 43.8888889,35.5834605 C39.0441282,35.3772219 34.2756094,35.2475218 29.5833325,35.1943601 L29.5833333,44.75 L19.5833333,44.75 L19.5833333,35.1979712 Z" id="Combined-Shape"></path>
                    <path d="M19.5833333,25.375 C21.8236592,25.375 23.4903258,25.375 24.5833333,25.375 C25.6763408,25.375 27.3430075,25.375 29.5833333,25.375 L29.5833333,44.5416667 L19.5833333,44.5416667 L19.5833333,25.375 Z" id="Path-8"></path>
                    <path d="M5.97222222,26.0002543 C5.69444444,38.2262059 5.83333333,44.4318026 6.38888889,44.6170443 C6.81504334,44.7591391 15.4529855,44.9319931 24.7222222,44.8949068 C33.5787235,44.859472 43.8888889,44.4630347 43.8888889,44.0613192 C43.8888889,41.6531772 43.8888889,35.6328223 43.8888889,26.0002543 C37.3616071,25.4445292 30.9727182,25.1666667 24.7222222,25.1666667 C18.4717262,25.1666667 12.2217262,25.4445292 5.97222222,26.0002543 Z" id="Path-7"></path>
                </g>
                <path d="M74,162.5 C103.720366,135.265845 119.5537,121.432511 121.5,121 C124.5,120.333333 140.333333,138.5 169,175.5 L167,177 C150.666667,156.333333 141.833333,145.166667 140.5,143.5 C140.149758,143.062198 137.378918,151.931548 138.502464,157 C139.5,161.5 141.123255,163.565117 140.5,164.5 C139.5,166 140,166.5 139.5,166.5 C138.73348,166.30837 136.560966,158.482543 136.5,154 C136.401893,146.786709 138.744264,141.628496 138.502464,141.344026 C124.990852,125.448009 123.323364,126 121.5,126 C121.473627,126 117,144.5 117,146 C117,146.771358 119.748266,147.463087 122,151 C124.12704,154.341051 124.5,157.5 125,159.5 C125.247327,160.489308 125,161.5 124.5,161.5 C124,161.5 123.221646,155.831716 121,152 C118.831338,148.259665 116.462364,147.839763 116.444742,148 C115.944016,152.553062 115.944742,163 116.5,165 C117.055258,167 115.529105,167.981367 115.5,168 C115.275243,168.14389 114.427843,155.670837 115.5,144.5 C116.358617,135.554043 119.207485,127.395146 118.944742,127.578058 C113.059277,131.675304 98.8318591,142.668141 94,147.5 C97.5,155 98.9632752,166.57345 98.5,167.5 C98,168.5 96.9600444,169.499445 97,169 C98,156.5 92.766879,148.305461 92,148.99115 C88.4141266,152.197388 82.4141266,157.867005 74,166 L74,162.5 Z" id="Path-9" fill="#36383C"></path>
                <path d="M195,162.5 C224.720366,135.265845 240.5537,121.432511 242.5,121 C245.5,120.333333 261.333333,138.5 290,175.5 L288,177 C271.666667,156.333333 262.833333,145.166667 261.5,143.5 C261.149758,143.062198 258.378918,151.931548 259.502464,157 C260.5,161.5 262.123255,163.565117 261.5,164.5 C260.5,166 261,166.5 260.5,166.5 C259.73348,166.30837 257.560966,158.482543 257.5,154 C257.401893,146.786709 259.744264,141.628496 259.502464,141.344026 C245.990852,125.448009 244.323364,126 242.5,126 C242.473627,126 238,144.5 238,146 C238,146.771358 240.748266,147.463087 243,151 C245.12704,154.341051 245.5,157.5 246,159.5 C246.247327,160.489308 246,161.5 245.5,161.5 C245,161.5 244.221646,155.831716 242,152 C239.831338,148.259665 237.462364,147.839763 237.444742,148 C236.944016,152.553062 236.944742,163 237.5,165 C238.055258,167 236.529105,167.981367 236.5,168 C236.275243,168.14389 235.427843,155.670837 236.5,144.5 C237.358617,135.554043 240.207485,127.395146 239.944742,127.578058 C234.059277,131.675304 219.831859,142.668141 215,147.5 C218.5,155 219.963275,166.57345 219.5,167.5 C219,168.5 217.960044,169.499445 218,169 C219,156.5 213.766879,148.305461 213,148.99115 C209.414127,152.197388 203.414127,157.867005 195,166 L195,162.5 Z" id="Path-9" fill="#36383C" transform="translate(242.500000, 148.991150) scale(-1, 1) translate(-242.500000, -148.991150) "></path>
                <path d="" id="Path-10" stroke="#979797"></path>
                <path d="M145.5,147 C156.984654,135.333333 168.984654,129.5 181.5,129.5 C194.015346,129.5 206.848679,135.333333 220,147 L218,149 C205.302323,138 193.135656,132.5 181.5,132.5 C169.864344,132.5 158.531011,138 147.5,149 L145.5,147 Z" id="Path-6" fill="#36383C"></path>
                <path d="M113.55201,15.5490693 L113.55201,15.5490693 L113.55201,15.5490693 C114.110166,15.5490693 114.568229,15.9907832 114.588505,16.5485705 C115.230847,34.2182797 115.55201,47.6231891 115.55201,56.7632981 C115.55201,65.9034071 115.230847,79.3083165 114.58852,96.9780263 L114.588505,96.9780258 C114.568229,97.535813 114.110166,97.9775269 113.55201,97.9775269 L113.55201,97.9775269 L113.55201,97.9775269 C112.993961,97.9775269 112.536073,97.5357254 112.516123,96.9780325 C111.873372,79.0107725 111.55201,65.6058607 111.55201,56.7632981 C111.55201,47.9207355 111.873372,34.5158237 112.516095,16.5485627 L112.516123,16.5485637 C112.536073,15.9908708 112.993961,15.5490693 113.55201,15.5490693 Z" id="original_Path-11_21392532" fill="#36383C" transform="translate(113.552010, 56.763298) rotate(336.000000) translate(-113.552010, -56.763298) "></path>
                <path d="M139.612053,100.080388 L139.612053,100.080388 L139.612053,100.080388 C140.180009,100.080388 140.655102,100.511713 140.709823,101.077027 C141.311318,107.290645 141.612053,112.030007 141.612053,115.295112 C141.612053,118.560217 141.311318,123.29958 140.709848,129.5132 L140.709823,129.513197 C140.655102,130.078512 140.180009,130.509836 139.612053,130.509836 L139.612053,130.509836 L139.612053,130.509836 C139.044339,130.509836 138.569656,130.078265 138.515764,129.513115 C137.913298,123.194963 137.612053,118.455629 137.612053,115.295112 C137.612053,112.134595 137.913298,107.395262 138.515788,101.077112 L138.515764,101.07711 C138.569656,100.511959 139.044339,100.080388 139.612053,100.080388 Z" id="original_Path-11_21392532" fill="#36383C" transform="translate(139.612053, 115.295112) rotate(336.000000) translate(-139.612053, -115.295112) "></path>
                <path d="M250.535777,16.0677292 L250.535777,16.0677292 L250.535777,16.0677292 C251.094036,16.0677292 251.55228,16.5093366 251.572915,17.0672141 C252.214828,34.4214532 252.535777,47.5877565 252.535777,56.5661237 C252.535777,65.5444909 252.214828,78.7107943 251.572928,96.0650338 L251.572915,96.0650333 C251.55228,96.6229108 251.094036,97.0645182 250.535777,97.0645182 L250.535777,97.0645182 L250.535777,97.0645182 C249.977614,97.0645182 249.519539,96.6228123 249.499236,96.0650187 C248.856928,78.4185525 248.535777,65.2522541 248.535777,56.5661237 C248.535777,47.8799933 248.856928,34.7136949 249.49923,17.0672285 L249.499236,17.0672287 C249.519539,16.5094351 249.977614,16.0677292 250.535777,16.0677292 Z" id="original_Path-11_21392532" fill="#36383C" transform="translate(250.535777, 56.566124) rotate(204.000000) translate(-250.535777, -56.566124) "></path>
                <path d="M224.779663,97.737511 L224.779663,97.737511 L224.779663,97.737511 C225.346283,97.737511 225.819066,98.1702909 225.869029,98.7347041 C226.47612,105.592685 226.779663,110.819551 226.779663,114.415305 C226.779663,118.011058 226.47612,123.237925 225.869033,130.095905 L225.869029,130.095905 C225.819066,130.660318 225.346283,131.093098 224.779663,131.093098 L224.779663,131.093098 L224.779663,131.093098 C224.213286,131.093098 223.740899,130.660107 223.691702,130.095871 C223.083676,123.122476 222.779663,117.895621 222.779663,114.415305 C222.779663,110.934988 223.083676,105.708133 223.691702,98.7347381 L223.691702,98.734738 C223.740899,98.170502 224.213286,97.737511 224.779663,97.737511 Z" id="original_Path-11_21392532" fill="#36383C" transform="translate(224.779663, 114.415305) rotate(204.000000) translate(-224.779663, -114.415305) "></path>
                <path d="M208.820274,43.8221354 L208.820274,43.8221354 L208.820274,43.8221354 C209.378533,43.8221354 209.836777,44.2637428 209.857412,44.8216203 C210.499325,62.1758593 210.820274,75.3421627 210.820274,84.3205299 C210.820274,93.2988971 210.499325,106.4652 209.857425,123.81944 L209.857412,123.81944 C209.836777,124.377317 209.378533,124.818924 208.820274,124.818924 L208.820274,124.818924 L208.820274,124.818924 C208.262111,124.818924 207.804036,124.377218 207.783733,123.819425 C207.141425,106.172959 206.820274,93.0066603 206.820274,84.3205299 C206.820274,75.6343995 207.141425,62.4681011 207.783727,44.8216347 L207.783733,44.8216349 C207.804036,44.2638413 208.262111,43.8221354 208.820274,43.8221354 Z" id="original_Path-11_21392532" fill="#36383C" transform="translate(208.820274, 84.320530) rotate(192.000000) translate(-208.820274, -84.320530) "></path>
                <path d="M221.996955,5.70384936 L221.996955,5.70384936 L221.996955,5.70384936 C222.563622,5.70384936 223.036484,6.13658375 223.086604,6.70103025 C223.693504,13.5358752 223.996955,18.7452389 223.996955,22.3291216 C223.996955,25.9130042 223.693504,31.1223679 223.086603,37.9572128 L223.086604,37.9572129 C223.036484,38.5216594 222.563622,38.9543938 221.996955,38.9543938 L221.996955,38.9543938 L221.996955,38.9543938 C221.430527,38.9543938 220.958058,38.5214438 220.908706,37.9571699 C220.300876,31.0073048 219.996955,25.7979558 219.996955,22.3291216 C219.996955,18.8602874 220.300876,13.6509383 220.90872,6.70107443 L220.908706,6.70107322 C220.958058,6.13679927 221.430527,5.70384936 221.996955,5.70384936 Z" id="original_Path-11_21392532" fill="#36383C" transform="translate(221.996955, 22.329122) rotate(192.000000) translate(-221.996955, -22.329122) "></path>
                <path d="M182,62 L182,62 L182,62 C182.560321,62 183.022178,62.4394472 183.050024,62.9990758 C183.683348,75.7268026 184,85.3937777 184,92 C184,98.6062223 183.683348,108.273197 183.050045,121.000925 L183.050024,121.000924 C183.022178,121.560553 182.560321,122 182,122 L182,122 L182,122 C181.43979,122 180.978142,121.560408 180.950738,121.000868 C180.31692,108.058858 180,98.3919022 180,92 C180,85.6080978 180.31692,75.941142 180.95076,62.9991328 L180.950738,62.9991317 C180.978142,62.4395924 181.43979,62 182,62 Z" id="original_Path-11_21392532" fill="#36383C" transform="translate(182.000000, 92.000000) rotate(180.000000) translate(-182.000000, -92.000000) "></path>
                <path d="M182,1.5 L182,1.5 L182,1.5 C182.561339,1.5 183.024974,1.93837512 183.05639,2.49883464 C183.685471,13.7215275 184,22.2501083 184,28.0845758 C184,33.9190434 183.685471,42.4476242 183.056413,53.6703183 L183.05639,53.670317 C183.024974,54.2307766 182.561339,54.6691517 182,54.6691517 L182,54.6691517 L182,54.6691517 C181.43879,54.6691517 180.975392,54.2306177 180.944473,53.6702602 C180.314831,42.2586348 180,33.7300737 180,28.0845758 C180,22.439078 180.314831,13.9105169 180.944492,2.49889249 L180.944473,2.49889146 C180.975392,1.938534 181.43879,1.5 182,1.5 Z" id="original_Path-11_21392532" fill="#36383C" transform="translate(182.000000, 28.084576) rotate(180.000000) translate(-182.000000, -28.084576) "></path>
                <path d="M157.161164,62.6742653 L157.161164,62.6742653 L157.161164,62.6742653 C157.721247,62.6742653 158.182678,63.1139809 158.209655,63.6734132 C158.843996,76.8277896 159.161164,86.8174739 159.161164,93.6424661 C159.161164,100.467458 158.843996,110.457143 158.209658,123.611519 L158.209655,123.611519 C158.182678,124.170951 157.721247,124.610667 157.161164,124.610667 L157.161164,124.610667 L157.161164,124.610667 C156.601217,124.610667 156.140011,124.170832 156.113464,123.611514 C155.478594,110.235643 155.161164,100.245961 155.161164,93.6424661 C155.161164,87.0389715 155.478594,77.0492888 156.113454,63.6734179 L156.113464,63.6734183 C156.140011,63.1141004 156.601217,62.6742653 157.161164,62.6742653 Z" id="original_Path-11_21392532" fill="#36383C" transform="translate(157.161164, 93.642466) rotate(168.000000) translate(-157.161164, -93.642466) "></path>
                <path d="M143.646407,5.53112504 L143.646407,5.53112504 L143.646407,5.53112504 C144.208529,5.53112504 144.673496,5.96873765 144.707538,6.52982778 C145.333438,16.8469083 145.646407,24.6904758 145.646407,30.0605324 C145.646407,35.430589 145.333438,43.2741565 144.7075,53.5912347 L144.707538,53.591237 C144.673496,54.1523271 144.208529,54.5899397 143.646407,54.5899397 L143.646407,54.5899397 L143.646407,54.5899397 C143.084496,54.5899397 142.619843,54.1522113 142.586341,53.5913002 C141.959705,43.1004851 141.646407,35.256895 141.646407,30.0605324 C141.646407,24.8641698 141.959705,17.0205796 142.586299,6.52976205 L142.586341,6.52976456 C142.619843,5.96885343 143.084496,5.53112504 143.646407,5.53112504 Z" id="original_Path-11_21392532" fill="#36383C" transform="translate(143.646407, 30.060532) rotate(168.000000) translate(-143.646407, -30.060532) "></path>
                <path d="M77.2021772,35.5508767 L77.2021772,35.5508767 L77.2021772,35.5508767 C77.7623135,35.5508767 78.2238491,35.9905147 78.2510546,36.5499899 C78.8851444,49.5894017 79.2021772,59.4921293 79.2021772,66.2581714 C79.2021772,73.0242135 78.8851444,82.926941 78.2510789,95.966354 L78.2510546,95.9663529 C78.2238491,96.5258281 77.7623135,96.965466 77.2021772,96.965466 L77.2021772,96.965466 L77.2021772,96.965466 C76.6421693,96.965466 76.180854,96.5257018 76.1540819,95.9663342 C75.519473,82.7073711 75.2021772,72.8046499 75.2021772,66.2581714 C75.2021772,59.7116929 75.519473,49.8089716 76.1540646,36.5500078 L76.1540819,36.5500086 C76.180854,35.990641 76.6421693,35.5508767 77.2021772,35.5508767 Z" id="original_Path-11_21392532" fill="#36383C" transform="translate(77.202177, 66.258171) rotate(144.000000) translate(-77.202177, -66.258171) "></path>
                <path d="M107.644314,93.4453631 L107.644314,93.4453631 L107.644314,93.4453631 C108.212814,93.4453631 108.68882,93.8761412 108.745391,94.4418188 C109.34467,100.434394 109.644314,105.006514 109.644314,108.158179 C109.644314,111.309843 109.34467,115.881963 108.745381,121.874537 L108.745391,121.874538 C108.68882,122.440216 108.212814,122.870994 107.644314,122.870994 L107.644314,122.870994 L107.644314,122.870994 C107.076096,122.870994 106.600538,122.439986 106.544824,121.874506 C105.944487,115.781099 105.644314,111.20899 105.644314,108.158179 C105.644314,105.107367 105.944487,100.535258 106.544832,94.4418514 L106.544824,94.4418506 C106.600538,93.8763707 107.076096,93.4453631 107.644314,93.4453631 Z" id="original_Path-11_21392532" fill="#36383C" transform="translate(107.644314, 108.158179) rotate(144.000000) translate(-107.644314, -108.158179) "></path>
                <path d="M74.1583991,85.3901369 L74.1583991,85.3901369 L74.1583991,85.3901369 C74.7193044,85.3901369 75.1821633,85.8290071 75.2119857,86.389119 C75.8429233,98.2394031 76.1583991,107.242692 76.1583991,113.398986 C76.1583991,119.555281 75.8429233,128.55857 75.2119716,140.408853 L75.2119857,140.408854 C75.1821633,140.968966 74.7193044,141.407836 74.1583991,141.407836 L74.1583991,141.407836 L74.1583991,141.407836 C73.5976392,141.407836 73.1350245,140.968832 73.1056755,140.408841 C72.4741625,128.359032 72.1583991,119.355748 72.1583991,113.398986 C72.1583991,107.442225 72.4741625,98.4389409 73.1056893,86.3891331 L73.1056755,86.3891323 C73.1350245,85.829141 73.5976392,85.3901369 74.1583991,85.3901369 Z" id="original_Path-11_21392532" fill="#36383C" transform="translate(74.158399, 113.398986) rotate(132.000000) translate(-74.158399, -113.398986) "></path>
                <path d="M37.6164841,65.783683 L37.6164841,65.783683 L37.6164841,65.783683 C38.1849834,65.783683 38.6609903,66.214461 38.717561,66.7801387 C39.3168396,72.772714 39.6164841,77.3448335 39.6164841,80.4964984 C39.6164841,83.6481632 39.3168396,88.2202827 38.7175505,94.212857 L38.717561,94.212858 C38.6609903,94.7785357 38.1849834,95.2093137 37.6164841,95.2093137 L37.6164841,95.2093137 L37.6164841,95.2093137 C37.0482663,95.2093137 36.5727074,94.7783062 36.5169942,94.2128263 C35.9166567,88.1194185 35.6164841,83.5473095 35.6164841,80.4964984 C35.6164841,77.4456872 35.9166567,72.8735782 36.5170019,66.7801712 L36.5169942,66.7801704 C36.5727074,66.2146905 37.0482663,65.783683 37.6164841,65.783683 Z" id="original_Path-11_21392532" fill="#36383C" transform="translate(37.616484, 80.496498) rotate(132.000000) translate(-37.616484, -80.496498) "></path>
                <path d="M21.3187531,94.2693612 L21.3187531,94.2693612 L21.3187531,94.2693612 C21.8812886,94.2693612 22.3469998,94.7064883 22.3825841,95.2678973 C23.0066995,105.114358 23.3187531,112.601939 23.3187531,117.730639 C23.3187531,122.859339 23.0066995,130.346919 22.3825925,140.193381 L22.3825841,140.19338 C22.3469998,140.754789 21.8812886,141.191916 21.3187531,141.191916 L21.3187531,141.191916 L21.3187531,141.191916 C20.7563849,141.191916 20.2909575,140.754628 20.2559324,140.193351 C19.6311471,130.181127 19.3187531,122.693556 19.3187531,117.730639 C19.3187531,112.767722 19.6311471,105.280151 20.2559351,95.2679266 L20.2559324,95.2679265 C20.2909575,94.7066501 20.7563849,94.2693612 21.3187531,94.2693612 Z" id="original_Path-11_21392532" fill="#36383C" transform="translate(21.318753, 117.730639) rotate(120.000000) translate(-21.318753, -117.730639) "></path>
                <path d="M61.4485606,123.669027 L61.4485606,123.669027 L61.4485606,123.669027 C62.0147252,123.669027 62.4867269,124.102286 62.5350992,124.66638 C63.1440776,131.767844 63.4485606,137.178916 63.4485606,140.899594 C63.4485606,144.620272 63.1440776,150.031344 62.5351118,157.132809 L62.5350992,157.132808 C62.4867269,157.696902 62.0147252,158.130161 61.4485606,158.130161 L61.4485606,158.130161 L61.4485606,158.130161 C60.8826149,158.130161 60.4109835,157.696684 60.3633538,157.132746 C59.7534985,149.911778 59.4485606,144.500728 59.4485606,140.899594 C59.4485606,137.29846 59.7534985,131.88741 60.3633743,124.666444 L60.3633538,124.666442 C60.4109835,124.102504 60.8826149,123.669027 61.4485606,123.669027 Z" id="original_Path-11_21392532" fill="#36383C" transform="translate(61.448561, 140.899594) rotate(120.000000) translate(-61.448561, -140.899594) "></path>
                <path d="M293.609024,136.3125 L293.609024,136.3125 L293.609024,136.3125 C294.185507,136.3125 294.67506,136.734659 294.759824,137.304877 C295.325958,141.113322 295.609024,144.03253 295.609024,146.0625 C295.609024,148.09247 295.325958,151.011678 294.759825,154.820123 L294.759824,154.820123 C294.67506,155.390341 294.185507,155.8125 293.609024,155.8125 L293.609024,155.8125 L293.609024,155.8125 C293.032969,155.8125 292.544061,155.390037 292.460511,154.820073 C291.892854,150.947621 291.609024,148.028431 291.609024,146.0625 C291.609024,144.096569 291.892854,141.177379 292.460516,137.304928 L292.460511,137.304927 C292.544061,136.734963 293.032969,136.3125 293.609024,136.3125 Z" id="original_Path-11_21392532" fill="#36383C" transform="translate(293.609024, 146.062500) rotate(60.000000) translate(-293.609024, -146.062500) "></path>
                <path d="M333.948194,88.7273305 L333.948194,88.7273305 L333.948194,88.7273305 C334.507588,88.7273305 334.967808,89.1677825 334.99235,89.7266386 C335.629575,104.23704 335.948194,115.252383 335.948194,122.77267 C335.948194,130.292956 335.629575,141.3083 334.992337,155.8187 L334.99235,155.8187 C334.967808,156.377557 334.507588,156.818009 333.948194,156.818009 L333.948194,156.818009 L333.948194,156.818009 C333.388936,156.818009 332.928934,156.377459 332.904785,155.818723 C332.267051,141.063975 331.948194,130.048623 331.948194,122.77267 C331.948194,115.496716 332.267051,104.481364 332.904766,89.7266152 L332.904785,89.726616 C332.928934,89.1678802 333.388936,88.7273305 333.948194,88.7273305 Z" id="original_Path-11_21392532" fill="#36383C" transform="translate(333.948194, 122.772670) rotate(60.000000) translate(-333.948194, -122.772670) "></path>
                <path d="M322.44187,63.5287491 L322.44187,63.5287491 L322.44187,63.5287491 C323.00587,63.5287491 323.474107,63.9643566 323.514777,64.5268883 C324.132831,73.0760259 324.44187,79.5822533 324.44187,84.0455724 C324.44187,88.5088915 324.132831,95.015119 323.514752,103.564255 L323.514777,103.564257 C323.474107,104.126788 323.00587,104.562396 322.44187,104.562396 L322.44187,104.562396 L322.44187,104.562396 C321.878074,104.562396 321.410168,104.126616 321.370133,103.564243 C320.751296,94.8711893 320.44187,88.3649662 320.44187,84.0455724 C320.44187,79.7261786 320.751296,73.2199555 321.370149,64.5269031 L321.370133,64.526902 C321.410168,63.9645292 321.878074,63.5287491 322.44187,63.5287491 Z" id="original_Path-11_21392532" fill="#36383C" transform="translate(322.441870, 84.045572) rotate(48.000000) translate(-322.441870, -84.045572) "></path>
                <path d="M285.567036,94.2478219 L285.567036,94.2478219 L285.567036,94.2478219 C286.129792,94.2478219 286.595871,94.6847491 286.632167,95.2463338 C287.255405,104.889535 287.567036,112.223364 287.567036,117.247822 C287.567036,122.27228 287.255405,129.606109 286.632143,139.249308 L286.632167,139.24931 C286.595871,139.810895 286.129792,140.247822 285.567036,140.247822 L285.567036,140.247822 L285.567036,140.247822 C285.004474,140.247822 284.538705,139.810749 284.502979,139.249322 C283.879015,129.443762 283.567036,122.109928 283.567036,117.247822 C283.567036,112.385715 283.879015,105.051882 284.502973,95.2463212 L284.502979,95.2463216 C284.538705,94.6848953 285.004474,94.2478219 285.567036,94.2478219 Z" id="original_Path-11_21392532" fill="#36383C" transform="translate(285.567036, 117.247822) rotate(48.000000) translate(-285.567036, -117.247822) "></path>
                <path d="M270.319324,52.4923588 L270.319324,52.4923588 L270.319324,52.4923588 C270.878241,52.4923588 271.337639,52.9332826 271.360566,53.49173 C271.999742,69.0603178 272.319324,80.8760345 272.319324,88.9388797 C272.319324,97.0017249 271.999742,108.817442 271.360578,124.38603 L271.360566,124.386029 C271.337639,124.944477 270.878241,125.385401 270.319324,125.385401 L270.319324,125.385401 L270.319324,125.385401 C269.760517,125.385401 269.301309,124.944371 269.27875,124.38602 C268.639129,108.555278 268.319324,96.7395639 268.319324,88.9388797 C268.319324,81.1381955 268.639129,69.3224819 269.278739,53.4917389 L269.27875,53.4917393 C269.301309,52.9333881 269.760517,52.4923588 270.319324,52.4923588 Z" id="original_Path-11_21392532" fill="#36383C" transform="translate(270.319324, 88.938880) rotate(36.000000) translate(-270.319324, -88.938880) "></path>
                <path d="M299.410104,39.1488554 L299.410104,39.1488554 L299.410104,39.1488554 C299.986587,39.1488554 300.47614,39.5710147 300.560904,40.1412322 C301.127038,43.9496774 301.410104,46.8688852 301.410104,48.8988554 C301.410104,50.9288255 301.127038,53.8480333 300.560906,57.6564787 L300.560904,57.6564785 C300.47614,58.2266961 299.986587,58.6488554 299.410104,58.6488554 L299.410104,58.6488554 L299.410104,58.6488554 C298.834049,58.6488554 298.345142,58.2263919 298.261591,57.6564279 C297.693935,53.7839768 297.410104,50.8647862 297.410104,48.8988554 C297.410104,46.9329245 297.693935,44.013734 298.261596,40.1412836 L298.261591,40.1412828 C298.345142,39.5713188 298.834049,39.1488554 299.410104,39.1488554 Z" id="original_Path-11_21392532" fill="#36383C" transform="translate(299.410104, 48.898855) rotate(36.000000) translate(-299.410104, -48.898855) "></path>
                <g id="Group-5" transform="translate(20.000000, 159.000000)" fill="#36383C">
                    <path d="M9.29787234,51.3829787 L9.59532574,34.5768618 C8.39071802,35.8071757 7.14972291,36.6787182 5.87234043,37.1914894 C0.02004336,39.5407379 1.41190251e-14,38.6617599 0,38.1702128 C-1.30188413e-14,37.707717 0.674668033,38.3328229 5.87234043,35.7234043 C7.29575896,35.0087969 8.55336899,33.6878729 9.64517051,31.7606322 L9.78117638,24.0763005 C8.48025028,25.3162136 7.17730496,26.2624113 5.87234043,26.9148936 C3.91489362,27.893617 1.46808511,27.893617 1.46808511,27.4042553 C1.46808511,26.9148936 3.20680146,27.2727613 5.87234043,25.4468085 C6.59803512,24.9496917 7.90098044,23.6447271 9.78117638,21.5319149 L9.94931715,12.8955024 C8.24198095,14.1077549 7.04610928,14.8659917 6.36170213,15.1702128 C3.44435918,16.4669806 1.95297921,16.3784105 1.95744681,16.1489362 C1.96192009,15.9191698 3.42401732,15.665399 6.36170213,13.7021277 C7.04751629,13.2437942 8.25907649,12.169091 9.99638272,10.4780181 L10.1826673,0.652365036 L10.1826673,0.652365036 C10.1895356,0.29009059 10.4851782,6.65606952e-17 10.8475177,0 L10.8475177,0 L10.8475177,0 C11.2126708,9.0588578e-16 11.5133345,0.287019582 11.5302808,0.651779248 L11.8191121,6.86874187 C13.1171071,9.01023692 14.0710201,10.3093088 14.6808511,10.7659574 C17.7452605,13.0606236 19.5708705,12.7321911 19.5744681,12.8955024 C19.5781946,13.0646671 17.9516829,13.9160507 14.6808511,12.2340426 C14.1279154,11.9496983 13.1908869,10.9277311 11.8697654,9.16814085 L12.139256,21.4016278 C13.6108518,22.7581187 14.7526958,23.7368421 15.5647879,24.337798 C19.6210369,27.339461 22.4073058,27.4736229 22.4158517,27.7633299 C22.4244048,28.0532817 20.3446282,28.1406065 16.3186593,26.3928219 C15.5155757,26.0441811 14.1540368,25.1579213 12.2340426,23.7340426 L12.6119656,31.0158483 C14.6437049,33.8279778 16.4751773,35.7234043 18.106383,36.7021277 C20.5531915,38.1702128 23,38.1702128 23,38.6595745 C23,39.1489362 21.0425532,39.1489362 18.106383,38.1702128 C16.1489362,37.5177305 14.3488052,36.1954199 12.7059902,34.2032811 L13.212766,51.3829787 L9.29787234,51.3829787 Z" id="Path-11"></path>
                    <path d="M66.2978723,51.3829787 L66.5953257,34.5768618 C65.390718,35.8071757 64.1497229,36.6787182 62.8723404,37.1914894 C57.0200434,39.5407379 57,38.6617599 57,38.1702128 C57,37.707717 57.674668,38.3328229 62.8723404,35.7234043 C64.295759,35.0087969 65.553369,33.6878729 66.6451705,31.7606322 L66.7811764,24.0763005 C65.4802503,25.3162136 64.177305,26.2624113 62.8723404,26.9148936 C60.9148936,27.893617 58.4680851,27.893617 58.4680851,27.4042553 C58.4680851,26.9148936 60.2068015,27.2727613 62.8723404,25.4468085 C63.5980351,24.9496917 64.9009804,23.6447271 66.7811764,21.5319149 L66.9493172,12.8955024 C65.241981,14.1077549 64.0461093,14.8659917 63.3617021,15.1702128 C60.4443592,16.4669806 58.9529792,16.3784105 58.9574468,16.1489362 C58.9619201,15.9191698 60.4240173,15.665399 63.3617021,13.7021277 C64.0475163,13.2437942 65.2590765,12.169091 66.9963827,10.4780181 L67.1826673,0.652365036 L67.1826673,0.652365036 C67.1895356,0.29009059 67.4851782,6.65606952e-17 67.8475177,0 L67.8475177,0 L67.8475177,0 C68.2126708,9.0588578e-16 68.5133345,0.287019582 68.5302808,0.651779248 L68.8191121,6.86874187 C70.1171071,9.01023692 71.0710201,10.3093088 71.6808511,10.7659574 C74.7452605,13.0606236 76.5708705,12.7321911 76.5744681,12.8955024 C76.5781946,13.0646671 74.9516829,13.9160507 71.6808511,12.2340426 C71.1279154,11.9496983 70.1908869,10.9277311 68.8697654,9.16814085 L69.139256,21.4016278 C70.6108518,22.7581187 71.7526958,23.7368421 72.5647879,24.337798 C76.6210369,27.339461 79.4073058,27.4736229 79.4158517,27.7633299 C79.4244048,28.0532817 77.3446282,28.1406065 73.3186593,26.3928219 C72.5155757,26.0441811 71.1540368,25.1579213 69.2340426,23.7340426 L69.6119656,31.0158483 C71.6437049,33.8279778 73.4751773,35.7234043 75.106383,36.7021277 C77.5531915,38.1702128 80,38.1702128 80,38.6595745 C80,39.1489362 78.0425532,39.1489362 75.106383,38.1702128 C73.1489362,37.5177305 71.3488052,36.1954199 69.7059902,34.2032811 L70.212766,51.3829787 L66.2978723,51.3829787 Z" id="Path-11"></path>
                    <path d="M38.2765957,51.212766 L38.5093854,38.0601527 C37.5666489,39.0230071 36.5954353,39.7050838 35.5957447,40.106383 C31.0156861,41.9449253 31,41.2570295 31,40.8723404 C31,40.5103872 31.5280011,40.9996006 35.5957447,38.9574468 C36.7097244,38.3981889 37.693941,37.3644223 38.5483943,35.856147 L38.6548337,29.8423221 C37.6367176,30.8126889 36.6170213,31.5531915 35.5957447,32.0638298 C34.0638298,32.8297872 32.1489362,32.8297872 32.1489362,32.4468085 C32.1489362,32.0638298 33.5096707,32.3439002 35.5957447,30.9148936 C36.1636797,30.5258457 37.183376,29.5045691 38.6548337,27.8510638 L38.7864221,21.0921323 C37.450246,22.0408517 36.5143464,22.6342544 35.9787234,22.8723404 C33.6955854,23.8872022 32.5284185,23.8178865 32.5319149,23.6382979 C32.5354157,23.4584807 33.6796657,23.2598774 35.9787234,21.7234043 C36.5154475,21.3647085 37.4636251,20.5236364 38.823256,19.2001881 L38.969044,11.5105465 L38.969044,11.5105465 C38.9744192,11.2270274 39.2057916,11 39.4893617,11 L39.4893617,11 L39.4893617,11 C39.7751337,11 40.0104357,11.224624 40.023698,11.5100881 L40.2497399,16.3755371 C41.2655621,18.0514898 42.0121027,19.0681547 42.4893617,19.4255319 C44.8875952,21.2213576 46.3163334,20.9643235 46.3191489,21.0921323 C46.3220653,21.2245221 45.0491432,21.8908223 42.4893617,20.5744681 C42.0566295,20.3519378 41.3233028,19.5521374 40.2893816,18.1750668 L40.5002873,27.7491 C41.651971,28.8107016 42.545588,29.576659 43.1811383,30.0469724 C46.3555941,32.3960999 48.5361523,32.5010962 48.5428405,32.7278234 C48.5495342,32.9547422 46.9218829,33.0230834 43.7711246,31.6552519 C43.1426245,31.3824026 42.0770723,30.688808 40.5744681,29.5744681 L40.870234,35.2732725 C42.4602908,37.4740696 43.893617,38.9574468 45.1702128,39.7234043 C47.0851064,40.8723404 49,40.8723404 49,41.2553191 C49,41.6382979 47.4680851,41.6382979 45.1702128,40.8723404 C43.6382979,40.3617021 42.2294998,39.3268504 40.9438184,37.7677852 L41.3404255,51.212766 L38.2765957,51.212766 Z" id="Path-11"></path>
                    <path d="M95.2765957,51.212766 L95.5093854,38.0601527 C94.5666489,39.0230071 93.5954353,39.7050838 92.5957447,40.106383 C88.0156861,41.9449253 88,41.2570295 88,40.8723404 C88,40.5103872 88.5280011,40.9996006 92.5957447,38.9574468 C93.7097244,38.3981889 94.693941,37.3644223 95.5483943,35.856147 L95.6548337,29.8423221 C94.6367176,30.8126889 93.6170213,31.5531915 92.5957447,32.0638298 C91.0638298,32.8297872 89.1489362,32.8297872 89.1489362,32.4468085 C89.1489362,32.0638298 90.5096707,32.3439002 92.5957447,30.9148936 C93.1636797,30.5258457 94.183376,29.5045691 95.6548337,27.8510638 L95.7864221,21.0921323 C94.450246,22.0408517 93.5143464,22.6342544 92.9787234,22.8723404 C90.6955854,23.8872022 89.5284185,23.8178865 89.5319149,23.6382979 C89.5354157,23.4584807 90.6796657,23.2598774 92.9787234,21.7234043 C93.5154475,21.3647085 94.4636251,20.5236364 95.823256,19.2001881 L95.969044,11.5105465 L95.969044,11.5105465 C95.9744192,11.2270274 96.2057916,11 96.4893617,11 L96.4893617,11 L96.4893617,11 C96.7751337,11 97.0104357,11.224624 97.023698,11.5100881 L97.2497399,16.3755371 C98.2655621,18.0514898 99.0121027,19.0681547 99.4893617,19.4255319 C101.887595,21.2213576 103.316333,20.9643235 103.319149,21.0921323 C103.322065,21.2245221 102.049143,21.8908223 99.4893617,20.5744681 C99.0566295,20.3519378 98.3233028,19.5521374 97.2893816,18.1750668 L97.5002873,27.7491 C98.651971,28.8107016 99.545588,29.576659 100.181138,30.0469724 C103.355594,32.3960999 105.536152,32.5010962 105.54284,32.7278234 C105.549534,32.9547422 103.921883,33.0230834 100.771125,31.6552519 C100.142624,31.3824026 99.0770723,30.688808 97.5744681,29.5744681 L97.870234,35.2732725 C99.4602908,37.4740696 100.893617,38.9574468 102.170213,39.7234043 C104.085106,40.8723404 106,40.8723404 106,41.2553191 C106,41.6382979 104.468085,41.6382979 102.170213,40.8723404 C100.638298,40.3617021 99.2294998,39.3268504 97.9438184,37.7677852 L98.3404255,51.212766 L95.2765957,51.212766 Z" id="Path-11"></path>
                </g>
                <g id="Group-5" transform="translate(291.000000, 185.000000) scale(-1, 1) translate(-291.000000, -185.000000) translate(238.000000, 159.000000)" fill="#36383C">
                    <path d="M9.29787234,51.3829787 L9.59532574,34.5768618 C8.39071802,35.8071757 7.14972291,36.6787182 5.87234043,37.1914894 C0.02004336,39.5407379 1.41190251e-14,38.6617599 0,38.1702128 C-1.30188413e-14,37.707717 0.674668033,38.3328229 5.87234043,35.7234043 C7.29575896,35.0087969 8.55336899,33.6878729 9.64517051,31.7606322 L9.78117638,24.0763005 C8.48025028,25.3162136 7.17730496,26.2624113 5.87234043,26.9148936 C3.91489362,27.893617 1.46808511,27.893617 1.46808511,27.4042553 C1.46808511,26.9148936 3.20680146,27.2727613 5.87234043,25.4468085 C6.59803512,24.9496917 7.90098044,23.6447271 9.78117638,21.5319149 L9.94931715,12.8955024 C8.24198095,14.1077549 7.04610928,14.8659917 6.36170213,15.1702128 C3.44435918,16.4669806 1.95297921,16.3784105 1.95744681,16.1489362 C1.96192009,15.9191698 3.42401732,15.665399 6.36170213,13.7021277 C7.04751629,13.2437942 8.25907649,12.169091 9.99638272,10.4780181 L10.1826673,0.652365036 L10.1826673,0.652365036 C10.1895356,0.29009059 10.4851782,6.65606952e-17 10.8475177,0 L10.8475177,0 L10.8475177,0 C11.2126708,9.0588578e-16 11.5133345,0.287019582 11.5302808,0.651779248 L11.8191121,6.86874187 C13.1171071,9.01023692 14.0710201,10.3093088 14.6808511,10.7659574 C17.7452605,13.0606236 19.5708705,12.7321911 19.5744681,12.8955024 C19.5781946,13.0646671 17.9516829,13.9160507 14.6808511,12.2340426 C14.1279154,11.9496983 13.1908869,10.9277311 11.8697654,9.16814085 L12.139256,21.4016278 C13.6108518,22.7581187 14.7526958,23.7368421 15.5647879,24.337798 C19.6210369,27.339461 22.4073058,27.4736229 22.4158517,27.7633299 C22.4244048,28.0532817 20.3446282,28.1406065 16.3186593,26.3928219 C15.5155757,26.0441811 14.1540368,25.1579213 12.2340426,23.7340426 L12.6119656,31.0158483 C14.6437049,33.8279778 16.4751773,35.7234043 18.106383,36.7021277 C20.5531915,38.1702128 23,38.1702128 23,38.6595745 C23,39.1489362 21.0425532,39.1489362 18.106383,38.1702128 C16.1489362,37.5177305 14.3488052,36.1954199 12.7059902,34.2032811 L13.212766,51.3829787 L9.29787234,51.3829787 Z" id="Path-11"></path>
                    <path d="M66.2978723,51.3829787 L66.5953257,34.5768618 C65.390718,35.8071757 64.1497229,36.6787182 62.8723404,37.1914894 C57.0200434,39.5407379 57,38.6617599 57,38.1702128 C57,37.707717 57.674668,38.3328229 62.8723404,35.7234043 C64.295759,35.0087969 65.553369,33.6878729 66.6451705,31.7606322 L66.7811764,24.0763005 C65.4802503,25.3162136 64.177305,26.2624113 62.8723404,26.9148936 C60.9148936,27.893617 58.4680851,27.893617 58.4680851,27.4042553 C58.4680851,26.9148936 60.2068015,27.2727613 62.8723404,25.4468085 C63.5980351,24.9496917 64.9009804,23.6447271 66.7811764,21.5319149 L66.9493172,12.8955024 C65.241981,14.1077549 64.0461093,14.8659917 63.3617021,15.1702128 C60.4443592,16.4669806 58.9529792,16.3784105 58.9574468,16.1489362 C58.9619201,15.9191698 60.4240173,15.665399 63.3617021,13.7021277 C64.0475163,13.2437942 65.2590765,12.169091 66.9963827,10.4780181 L67.1826673,0.652365036 L67.1826673,0.652365036 C67.1895356,0.29009059 67.4851782,6.65606952e-17 67.8475177,0 L67.8475177,0 L67.8475177,0 C68.2126708,9.0588578e-16 68.5133345,0.287019582 68.5302808,0.651779248 L68.8191121,6.86874187 C70.1171071,9.01023692 71.0710201,10.3093088 71.6808511,10.7659574 C74.7452605,13.0606236 76.5708705,12.7321911 76.5744681,12.8955024 C76.5781946,13.0646671 74.9516829,13.9160507 71.6808511,12.2340426 C71.1279154,11.9496983 70.1908869,10.9277311 68.8697654,9.16814085 L69.139256,21.4016278 C70.6108518,22.7581187 71.7526958,23.7368421 72.5647879,24.337798 C76.6210369,27.339461 79.4073058,27.4736229 79.4158517,27.7633299 C79.4244048,28.0532817 77.3446282,28.1406065 73.3186593,26.3928219 C72.5155757,26.0441811 71.1540368,25.1579213 69.2340426,23.7340426 L69.6119656,31.0158483 C71.6437049,33.8279778 73.4751773,35.7234043 75.106383,36.7021277 C77.5531915,38.1702128 80,38.1702128 80,38.6595745 C80,39.1489362 78.0425532,39.1489362 75.106383,38.1702128 C73.1489362,37.5177305 71.3488052,36.1954199 69.7059902,34.2032811 L70.212766,51.3829787 L66.2978723,51.3829787 Z" id="Path-11"></path>
                    <path d="M38.2765957,51.212766 L38.5093854,38.0601527 C37.5666489,39.0230071 36.5954353,39.7050838 35.5957447,40.106383 C31.0156861,41.9449253 31,41.2570295 31,40.8723404 C31,40.5103872 31.5280011,40.9996006 35.5957447,38.9574468 C36.7097244,38.3981889 37.693941,37.3644223 38.5483943,35.856147 L38.6548337,29.8423221 C37.6367176,30.8126889 36.6170213,31.5531915 35.5957447,32.0638298 C34.0638298,32.8297872 32.1489362,32.8297872 32.1489362,32.4468085 C32.1489362,32.0638298 33.5096707,32.3439002 35.5957447,30.9148936 C36.1636797,30.5258457 37.183376,29.5045691 38.6548337,27.8510638 L38.7864221,21.0921323 C37.450246,22.0408517 36.5143464,22.6342544 35.9787234,22.8723404 C33.6955854,23.8872022 32.5284185,23.8178865 32.5319149,23.6382979 C32.5354157,23.4584807 33.6796657,23.2598774 35.9787234,21.7234043 C36.5154475,21.3647085 37.4636251,20.5236364 38.823256,19.2001881 L38.969044,11.5105465 L38.969044,11.5105465 C38.9744192,11.2270274 39.2057916,11 39.4893617,11 L39.4893617,11 L39.4893617,11 C39.7751337,11 40.0104357,11.224624 40.023698,11.5100881 L40.2497399,16.3755371 C41.2655621,18.0514898 42.0121027,19.0681547 42.4893617,19.4255319 C44.8875952,21.2213576 46.3163334,20.9643235 46.3191489,21.0921323 C46.3220653,21.2245221 45.0491432,21.8908223 42.4893617,20.5744681 C42.0566295,20.3519378 41.3233028,19.5521374 40.2893816,18.1750668 L40.5002873,27.7491 C41.651971,28.8107016 42.545588,29.576659 43.1811383,30.0469724 C46.3555941,32.3960999 48.5361523,32.5010962 48.5428405,32.7278234 C48.5495342,32.9547422 46.9218829,33.0230834 43.7711246,31.6552519 C43.1426245,31.3824026 42.0770723,30.688808 40.5744681,29.5744681 L40.870234,35.2732725 C42.4602908,37.4740696 43.893617,38.9574468 45.1702128,39.7234043 C47.0851064,40.8723404 49,40.8723404 49,41.2553191 C49,41.6382979 47.4680851,41.6382979 45.1702128,40.8723404 C43.6382979,40.3617021 42.2294998,39.3268504 40.9438184,37.7677852 L41.3404255,51.212766 L38.2765957,51.212766 Z" id="Path-11"></path>
                    <path d="M95.2765957,51.212766 L95.5093854,38.0601527 C94.5666489,39.0230071 93.5954353,39.7050838 92.5957447,40.106383 C88.0156861,41.9449253 88,41.2570295 88,40.8723404 C88,40.5103872 88.5280011,40.9996006 92.5957447,38.9574468 C93.7097244,38.3981889 94.693941,37.3644223 95.5483943,35.856147 L95.6548337,29.8423221 C94.6367176,30.8126889 93.6170213,31.5531915 92.5957447,32.0638298 C91.0638298,32.8297872 89.1489362,32.8297872 89.1489362,32.4468085 C89.1489362,32.0638298 90.5096707,32.3439002 92.5957447,30.9148936 C93.1636797,30.5258457 94.183376,29.5045691 95.6548337,27.8510638 L95.7864221,21.0921323 C94.450246,22.0408517 93.5143464,22.6342544 92.9787234,22.8723404 C90.6955854,23.8872022 89.5284185,23.8178865 89.5319149,23.6382979 C89.5354157,23.4584807 90.6796657,23.2598774 92.9787234,21.7234043 C93.5154475,21.3647085 94.4636251,20.5236364 95.823256,19.2001881 L95.969044,11.5105465 L95.969044,11.5105465 C95.9744192,11.2270274 96.2057916,11 96.4893617,11 L96.4893617,11 L96.4893617,11 C96.7751337,11 97.0104357,11.224624 97.023698,11.5100881 L97.2497399,16.3755371 C98.2655621,18.0514898 99.0121027,19.0681547 99.4893617,19.4255319 C101.887595,21.2213576 103.316333,20.9643235 103.319149,21.0921323 C103.322065,21.2245221 102.049143,21.8908223 99.4893617,20.5744681 C99.0566295,20.3519378 98.3233028,19.5521374 97.2893816,18.1750668 L97.5002873,27.7491 C98.651971,28.8107016 99.545588,29.576659 100.181138,30.0469724 C103.355594,32.3960999 105.536152,32.5010962 105.54284,32.7278234 C105.549534,32.9547422 103.921883,33.0230834 100.771125,31.6552519 C100.142624,31.3824026 99.0770723,30.688808 97.5744681,29.5744681 L97.870234,35.2732725 C99.4602908,37.4740696 100.893617,38.9574468 102.170213,39.7234043 C104.085106,40.8723404 106,40.8723404 106,41.2553191 C106,41.6382979 104.468085,41.6382979 102.170213,40.8723404 C100.638298,40.3617021 99.2294998,39.3268504 97.9438184,37.7677852 L98.3404255,51.212766 L95.2765957,51.212766 Z" id="Path-11"></path>
                </g>
            </g>
        </g>
    </g>
</svg>