<?xml version="1.0" encoding="UTF-8" standalone="no"?>
<svg width="364px" height="281px" viewBox="0 0 364 281" version="1.1" xmlns="http://www.w3.org/2000/svg" xmlns:xlink="http://www.w3.org/1999/xlink">
    <!-- Generator: Sketch 46.2 (44496) - http://www.bohemiancoding.com/sketch -->
    <title>logo</title>
    <desc>Created with Sketch.</desc>
    <defs></defs>
    <g id="Page-1" stroke="none" stroke-width="1" fill="none" fill-rule="evenodd">
        <g id="logo" transform="translate(0.000000, -1.000000)">
            <text id="trailhead.camp" font-family="Caveat-Regular, Caveat" font-size="48" font-weight="normal" line-spacing="48" fill="#36383C">
                <tspan x="60" y="277">trailhead.camp</tspan>
            </text>
            <g id="Group-6">
                <path d="M7,210 L356.855534,208 C357.61612,209.583638 355.373456,210.482837 350.127543,210.697594 C342.258672,211.019731 228.306216,212.497194 181.927767,212.762323 C139.881702,213.002685 26.5723375,212.762323 16.7861688,212.762323 C10.2620563,212.762323 7,211.841549 7,210 Z" id="Path-3" fill="#36383C"></path>
                <g id="Hut" transform="translate(157.000000, 166.000000)" stroke-width="2" stroke="#36383C">
                    <polygon id="Path-4" points="0.416666667 17.25 2.5 18.5 24.5833333 5.16666667 47.9166667 18.5 49.5833333 17.25 24.5833333 1.41666667"></polygon>
                    <polyline id="Path-5" points="29.5833333 4.66666667 29.5833333 0.0833333333 34.1666667 0.0833333333 34.1666667 7.58333333"></polyline>
                    <path d="M5.97222222,16.4166667 C5.69444444,34.75 5.83333333,44.0555556 6.38888889,44.3333333 C6.81504334,44.5464106 15.4529855,44.8056124 24.7222222,44.75 C33.5787235,44.6968639 43.8888889,44.1023894 43.8888889,43.5 C43.8888889,39.8888889 43.8888889,30.8611111 43.8888889,16.4166667 C37.3616071,15.5833333 30.9727182,15.1666667 24.7222222,15.1666667 C18.4717262,15.1666667 12.2217262,15.5833333 5.97222222,16.4166667 Z" id="Path-7"></path>
                    <path d="M19.5833333,35.1979712 C15.0460349,35.253252 10.5089979,35.3817485 5.97222222,35.5834605 C5.69444444,41.6964363 5.83333333,44.7992346 6.38888889,44.8918555 C6.81504334,44.9629029 15.4529855,45.0493299 24.7222222,45.0307868 C33.5787235,45.0130693 43.8888889,44.8148507 43.8888889,44.6139929 C43.8888889,43.409922 43.8888889,40.3997445 43.8888889,35.5834605 C39.0441282,35.3772219 34.2756094,35.2475218 29.5833325,35.1943601 L29.5833333,44.75 L19.5833333,44.75 L19.5833333,35.1979712 Z" id="Combined-Shape"></path>
                    <path d="M19.5833333,25.375 C21.8236592,25.375 23.4903258,25.375 24.5833333,25.375 C25.6763408,25.375 27.3430075,25.375 29.5833333,25.375 L29.5833333,44.5416667 L19.5833333,44.5416667 L19.5833333,25.375 Z" id="Path-8"></path>
                    <path d="M5.97222222,26.0002543 C5.69444444,38.2262059 5.83333333,44.4318026 6.38888889,44.6170443 C6.81504334,44.7591391 15.4529855,44.9319931 24.7222222,44.8949068 C33.5787235,44.859472 43.8888889,44.4630347 43.8888889,44.0613192 C43.8888889,41.6531772 43.8888889,35.6328223 43.8888889,26.0002543 C37.3616071,25.4445292 30.9727182,25.1666667 24.7222222,25.1666667 C18.4717262,25.1666667 12.2217262,25.4445292 5.97222222,26.0002543 Z" id="Path-7"></path>
                </g>
                <path d="M74,162.5 C103.720366,135.265845 119.5537,121.432511 121.5,121 C124.5,120.333333 140.333333,138.5 169,175.5 L167,177 C150.666667,156.333333 141.833333,145.166667 140.5,143.5 C140.149758,143.062198 137.378918,151.931548 138.502464,157 C139.5,161.5 141.123255,163.565117 140.5,164.5 C139.5,166 140,166.5 139.5,166.5 C138.73348,166.30837 136.560966,158.482543 136.5,154 C136.401893,146.786709 138.744264,141.628496 138.502464,141.344026 C124.990852,125.448009 123.323364,126 121.5,126 C121.473627,126 117,144.5 117,146 C117,146.771358 119.748266,147.463087 122,151 C124.12704,154.341051 124.5,157.5 125,159.5 C125.247327,160.489308 125,161.5 124.5,161.5 C124,161.5 123.221646,155.831716 121,152 C118.831338,148.259665 116.462364,147.839763 116.444742,148 C115.944016,152.553062 115.944742,163 116.5,165 C117.055258,167 115.529105,167.981367 115.5,168 C115.275243,168.14389 114.427843,155.670837 115.5,144.5 C116.358617,135.554043 119.207485,127.395146 118.944742,127.578058 C113.059277,131.675304 98.8318591,142.668141 94,147.5 C97.5,155 98.9632752,166.57345 98.5,167.5 C98,168.5 96.9600444,169.499445 97,169 C98,156.5 92.766879,148.305461 92,148.99115 C88.4141266,152.197388 82.4141266,157.867005 74,166 L74,162.5 Z" id="Path-9" fill="#36383C"></path>
                <path d="M195,162.5 C224.720366,135.265845 240.5537,121.432511 242.5,121 C245.5,120.333333 261.333333,138.5 290,175.5 L288,177 C271.666667,156.333333 262.833333,145.166667 261.5,143.5 C261.149758,143.062198 258.378918,151.931548 259.502464,157 C260.5,161.5 262.123255,163.565117 261.5,164.5 C260.5,166 261,166.5 260.5,166.5 C259.73348,166.30837 257.560966,158.482543 257.5,154 C257.401893,146.786709 259.744264,141.628496 259.502464,141.344026 C245.990852,125.448009 244.323364,126 242.5,126 C242.473627,126 238,144.5 238,146 C238,146.771358 240.748266,147.463087 243,151 C245.12704,154.341051 245.5,157.5 246,159.5 C246.247327,160.489308 246,161.5 245.5,161.5 C245,161.5 244.221646,155.831716 242,152 C239.831338,148.259665 237.462364,147.839763 237.444742,148 C236.944016,152.553062 236.944742,163 237.5,165 C238.055258,167 236.529105,167.981367 236.5,168 C236.275243,168.14389 235.427843,155.670837 236.5,144.5 C237.358617,135.554043 240.207485,127.395146 239.944742,127.578058 C234.059277,131.675304 219.831859,142.668141 215,147.5 C218.5,155 219.963275,166.57345 219.5,167.5 C219,168.5 217.960044,169.499445 218,169 C219,156.5 213.766879,148.305461 213,148.99115 C209.414127,152.197388 203.414127,157.867005 195,166 L195,162.5 Z" id="Path-9" fill="#36383C" transform="translate(242.500000, 148.991150) scale(-1, 1) translate(-242.500000, -148.991150) "></path>
                <path d="" id="Path-10" stroke="#979797"></path>
                <path d="M145.5,147 C156.984654,135.333333 168.984654,129.5 181.5,129.5 C194.015346,129.5 206.848679,135.333333 220,147 L218,149 C205.302323,138 193.135656,132.5 181.5,132.5 C169.864344,132.5 158.531011,138 147.5,149 L145.5,147 Z" id="Path-6" fill="#36383C"></path>
                <path d="M113.55201,15.5490693 L113.55201,15.5490693 L113.55201,15.5490693 C114.110166,15.5490693 114.568229,15.9907832 114.588505,16.5485705 C115.230847,34.2182797 115.55201,47.6231891 115.55201,56.7632981 C115.55201,65.9034071 115.230847,79.3083165 114.58852,96.9780263 L114.588505,96.9780258 C114.568229,97.535813 114.110166,97.9775269 113.55201,97.9775269 L113.55201,97.9775269 L113.55201,97.9775269 C112.993961,97.9775269 112.536073,97.5357254 112.516123,96.9780325 C111.873372,79.0107725 111.55201,65.6058607 111.55201,56.7632981 C111.55201,47.9207355 111.873372,34.5158237 112.516095,16.5485627 L112.516123,16.5485637 C112.536073,15.9908708 112.993961,15.5490693 113.55201,15.5490693 Z" id="original_Path-11_21392532" fill="#36383C" transform="translate(113.552010, 56.763298) rotate(336.000000) translate(-113.552010, -56.763298) "></path>
                <path d="M139.612053,100.080388 L139.612053,100.080388 L139.612053,100.080388 C140.180009,100.080388 140.655102,100.511713 140.709823,101.077027 C141.311318,107.290645 141.612053,112.030007 141.612053,115.295112 C141.612053,118.560217 141.311318,123.29958 140.709848,129.5132 L140.709823,129.513197 C140.655102,130.078512 140.180009,130.509836 139.612053,130.509836 L139.612053,130.509836 L139.612053,130.509836 C139.044339,130.509836 138.569656,130.078265 138.515764,129.513115 C137.913298,123.194963 137.612053,118.455629 137.612053,115.295112 C137.612053,112.134595 137.913298,107.395262 138.515788,101.077112 L138.515764,101.07711 C138.569656,100.511959 139.044339,100.080388 139.612053,100.080388 Z" id="original_Path-11_21392532" fill="#36383C" transform="translate(139.612053, 115.295112) rotate(336.000000) translate(-139.612053, -115.295112) "></path>
                <path d="M250.535777,16.0677292 L250.535777,16.0677292 L250.535777,16.0677292 C251.094036,16.0677292 251.55228,16.5093366 251.572915,17.0672141 C252.214828,34.4214532 252.535777,47.5877565 252.535777,56.5661237 C252.535777,65.5444909 252.214828,78.7107943 251.572928,96.0650338 L251.572915,96.0650333 C251.55228,96.6229108 251.094036,97.0645182 250.535777,97.0645182 L250.535777,97.0645182 L250.535777,97.0645182 C249.977614,97.0645182 249.519539,96.6228123 249.499236,96.0650187 C248.856928,78.4185525 248.535777,65.2522541 248.535777,56.5661237 C248.535777,47.8799933 248.856928,34.7136949 249.49923,17.0672285 L249.499236,17.0672287 C249.519539,16.5094351 249.977614,16.0677292 250.535777,16.0677292 Z" id="original_Path-11_21392532" fill="#36383C" transform="translate(250.535777, 56.566124) rotate(204.000000) translate(-250.535777, -56.566124) "></path>
                <path d="M224.779663,97.737511 L224.779663,97.737511 L224.779663,97.737511 C225.346283,97.737511 225.819066,98.1702909 225.869029,98.7347041 C226.47612,105.592685 226.779663,110.819551 226.779663,114.415305 C226.779663,118.011058 226.47612,123.237925 225.869033,130.095905 L225.869029,130.095905 C225.819066,130.660318 225.346283,131.093098 224.779663,131.093098 L224.779663,131.093098 L224.779663,131.093098 C224.213286,131.093098 223.740899,130.660107 223.691702,130.095871 C223.083676,123.122476 222.779663,117.895621 222.779663,114.415305 C222.779663,110.934988 223.083676,105.708133 223.691702,98.7347381 L223.691702,98.734738 C223.740899,98.170502 224.213286,97.737511 224.779663,97.737511 Z" id="original_Path-11_21392532" fill="#36383C" transform="translate(224.779663, 114.415305) rotate(204.000000) translate(-224.779663, -114.415305) "></path>
                <path d="M208.820274,43.8221354 L208.820274,43.8221354 L208.820274,43.8221354 C209.378533,43.8221354 209.836777,44.2637428 209.857412,44.8216203 C210.499325,62.1758593 210.820274,75.3421627 210.820274,84.3205299 C210.820274,93.2988971 210.499325,106.4652 209.857425,123.81944 L209.857412,123.81944 C209.836777,124.377317 209.378533,124.818924 208.820274,124.818924 L208.820274,124.818924 L208.820274,124.818924 C208.262111,124.818924 207.804036,124.377218 207.783733,123.819425 C207.141425,106.172959 206.820274,93.0066603 206.820274,84.3205299 C206.820274,75.6343995 207.141425,62.4681011 207.783727,44.8216347 L207.783733,44.8216349 C207.804036,44.2638413 208.262111,43.8221354 208.820274,43.8221354 Z" id="original_Path-11_21392532" fill="#36383C" transform="translate(208.820274, 84.320530) rotate(192.000000) translate(-208.820274, -84.320530) "></path>
                <path d="M221.996955,5.70384936 L221.996955,5.70384936 L221.996955,5.70384936 C222.563622,5.70384936 223.036484,6.13658375 223.086604,6.70103025 C223.693504,13.5358752 223.996955,18.7452389 223.996955,22.3291216 C223.996955,25.9130042 223.693504,31.1223679 223.086603,37.9572128 L223.086604,37.9572129 C223.036484,38.5216594 222.563622,38.9543938 221.996955,38.9543938 L221.996955,38.9543938 L221.996955,38.9543938 C221.430527,38.9543938 220.958058,38.5214438 220.908706,37.9571699 C220.300876,31.0073048 219.996955,25.7979558 219.996955,22.3291216 C219.996955,18.8602874 220.300876,13.6509383 220.90872,6.70107443 L220.908706,6.70107322 C220.958058,6.13679927 221.430527,5.70384936 221.996955,5.70384936 Z" id="original_Path-11_21392532" fill="#36383C" transform="translate(221.996955, 22.329122) rotate(192.000000) translate(-221.996955, -22.329122) "></path>
                <path d="M182,62 L182,62 L182,62 C182.560321,62 183.022178,62.4394472 183.050024,62.9990758 C183.683348,75.7268026 184,85.3937777 184,92 C184,98.6062223 183.683348,108.273197 183.050045,121.000925 L183.050024,121.000924 C183.022178,121.560553 182.560321,122 182,122 L182,122 L182,122 C181.43979,122 180.978142,121.560408 180.950738,121.000868 C180.31692,108.058858 180,98.3919022 180,92 C180,85.6080978 180.31692,75.941142 180.95076,62.9991328 L180.950738,62.9991317 C180.978142,62.4395924 181.43979,62 182,62 Z" id="original_Path-11_21392532" fill="#36383C" transform="translate(182.000000, 92.000000) rotate(180.000000) translate(-182.000000, -92.000000) "></path>
                <path d="M182,1.5 L182,1.5 L182,1.5 C182.561339,1.5 183.024974,1.93837512 183.05639,2.49883464 C183.685471,13.7215275 184,22.2501083 184,28.0845758 C184,33.9190434 183.685471,42.4476242 183.056413,53.6703183 L183.05639,53.670317 C183.024974,54.2307766 182.561339,54.6691517 182,54.6691517 L182,54.6691517 L182,54.6691517 C181.43879,54.6691517 180.975392,54.2306177 180.944473,53.6702602 C180.314831,42.2586348 180,33.7300737 180,28.0845758 C180,22.439078 180.314831,13.9105169 180.944492,2.49889249 L180.944473,2.49889146 C180.975392,1.938534 181.43879,1.5 182,1.5 Z" id="original_Path-11_21392532" fill="#36383C" transform="translate(182.000000, 28.084576) rotate(180.000000) translate(-182.000000, -28.084576) "></path>
                <path d="M157.161164,62.6742653 L157.161164,62.6742653 L157.161164,62.6742653 C157.721247,62.6742653 158.182678,63.1139809 158.209655,63.6734132 C158.843996,76.8277896 159.161164,86.8174739 159.161164,93.6424661 C159.161164,100.467458 158.843996,110.457143 158.209658,123.611519 L158.209655,123.611519 C158.182678,124.170951 157.721247,124.610667 157.161164,124.610667 L157.161164,124.610667 L157.161164,124.610667 C156.601217,124.610667 156.140011,124.170832 156.113464,123.611514 C155.478594,110.235643 155.161164,100.245961 155.161164,93.6424661 C155.161164,87.0389715 155.478594,77.0492888 156.113454,63.6734179 L156.113464,63.6734183 C156.140011,63.1141004 156.601217,62.6742653 157.161164,62.6742653 Z" id="original_Path-11_21392532" fill="#36383C" transform="translate(157.161164, 93.642466) rotate(168.000000) translate(-157.161164, -93.642466) "></path>
                <path d="M143.646407,5.53112504 L143.646407,5.53112504 L143.646407,5.53112504 C144.208529,5.53112504 144.673496,5.96873765 144.707538,6.52982778 C145.333438,16.8469083 145.646407,24.6904758 145.646407,30.0605324 C145.646407,35.430589 145.333438,43.2741565 144.7075,53.5912347 L144.707538,53.591237 C144.673496,54.1523271 144.208529,54.5899397 143.646407,54.5899397 L143.646407,54.5899397 L143.646407,54.5899397 C143.084496,54.5899397 142.619843,54.1522113 142.586341,53.5913002 C141.959705,43.1004851 141.646407,35.256895 141.646407,30.0605324 C141.646407,24.8641698 141.959705,17.0205796 142.586299,6.52976205 L142.586341,6.52976456 C142.619843,5.96885343 143.084496,5.53112504 143.646407,5.53112504 Z" id="original_Path-11_21392532" fill="#36383C" transform="translate(143.646407, 30.060532) rotate(168.000000) translate(-143.646407, -30.060532) "></path>
                <path d="M77.2021772,35.5508767 L77.2021772,35.5508767 L77.2021772,35.5508767 C77.7623135,35.5508767 78.2238491,35.9905147 78.2510546,36.5499899 C78.8851444,49.5894017 79.2021772,59.4921293 79.2021772,66.2581714 C79.2021772,73.0242135 78.8851444,82.926941 78.2510789,95.966354 L78.2510546,95.9663529 C78.2238491,96.5258281 77.7623135,96.965466 77.2021772,96.965466 L77.2021772,96.965466 L77.2021772,96.965466 C76.6421693,96.965466 76.180854,96.5257018 76.1540819,95.9663342 C75.519473,82.7073711 75.2021772,72.8046499 75.2021772,66.2581714 C75.2021772,59.7116929 75.519473,49.8089716 76.1540646,36.5500078 L76.1540819,36.5500086 C76.180854,35.990641 76.6421693,35.5508767 77.2021772,35.5508767 Z" id="original_Path-11_21392532" fill="#36383C" transform="translate(77.202177, 66.258171) rotate(144.000000) translate(-77.202177, -66.258171) "></path>
                <path d="M107.644314,93.4453631 L107.644314,93.4453631 L107.644314,93.4453631 C108.212814,93.4453631 108.68882,93.8761412 108.745391,94.4418188 C109.34467,100.434394 109.644314,105.006514 109.644314,108.158179 C109.644314,111.309843 109.34467,115.881963 108.745381,121.874537 L108.745391,121.874538 C108.68882,122.440216 108.212814,122.870994 107.644314,122.870994 L107.644314,122.870994 L107.644314,122.870994 C107.076096,122.870994 106.600538,122.439986 106.544824,121.874506 C105.944487,115.781099 105.644314,111.20899 105.644314,108.158179 C105.644314,105.107367 105.944487,100.535258 106.544832,94.4418514 L106.544824,94.4418506 C106.600538,93.8763707 107.076096,93.4453631 107.644314,93.4453631 Z" id="original_Path-11_21392532" fill="#36383C" transform="translate(107.644314, 108.158179) rotate(144.000000) translate(-107.644314, -108.158179) "></path>
                <path d="M74.1583991,85.3901369 L74.1583991,85.3901369 L74.1583991,85.3901369 C74.7193044,85.3901369 75.1821633,85.8290071 75.2119857,86.389119 C75.8429233,98.2394031 76.1583991,107.242692 76.1583991,113.398986 C76.1583991,119.555281 75.8429233,128.55857 75.2119716,140.408853 L75.2119857,140.408854 C75.1821633,140.968966 74.7193044,141.407836 74.1583991,141.407836 L74.1583991,141.407836 L74.1583991,141.407836 C73.5976392,141.407836 73.1350245,140.968832 73.1056755,140.408841 C72.4741625,128.359032 72.1583991,119.355748 72.1583991,113.398986 C72.1583991,107.442225 72.4741625,98.4389409 73.1056893,86.3891331 L73.1056755,86.3891323 C73.1350245,85.829141 73.5976392,85.3901369 74.1583991,85.3901369 Z" id="original_Path-11_21392532" fill="#36383C" transform="translate(74.158399, 113.398986) rotate(132.000000) translate(-74.158399, -113.398986) "></path>
                <path d="M37.6164841,65.783683 L37.6164841,65.783683 L37.6164841,65.783683 C38.1849834,65.783683 38.6609903,66.214461 38.717561,66.7801387 C39.3168396,72.772714 39.6164841,77.3448335 39.6164841,80.4964984 C39.6164841,83.6481632 39.3168396,88.2202827 38.7175505,94.212857 L38.717561,94.212858 C38.6609903,94.7785357 38.1849834,95.2093137 37.6164841,95.2093137 L37.6164841,95.2093137 L37.6164841,95.2093137 C37.0482663,95.2093137 36.5727074,94.7783062 36.5169942,94.2128263 C35.9166567,88.1194185 35.6164841,83.5473095 35.6164841,80.4964984 C35.6164841,77.4456872 35.9166567,72.8735782 36.5170019,66.7801712 L36.5169942,66.7801704 C36.5727074,66.2146905 37.0482663,65.783683 37.6164841,65.783683 Z" id="original_Path-11_21392532" fill="#36383C" transform="translate(37.616484, 80.496498) rotate(132.000000) translate(-37.616484, -80.496498) "></path>
                <path d="M21.3187531,94.2693612 L21.3187531,94.2693612 L21.3187531,94.2693612 C21.8812886,94.2693612 22.3469998,94.7064883 22.3825841,95.2678973 C23.0066995,105.114358 23.3187531,112.601939 23.3187531,117.730639 C23.3187531,122.859339 23.0066995,130.346919 22.3825925,140.193381 L22.3825841,140.19338 C22.3469998,140.754789 21.8812886,141.191916 21.3187531,141.191916 L21.3187531,141.191916 L21.3187531,141.191916 C20.7563849,141.191916 20.2909575,140.754628 20.2559324,140.193351 C19.6311471,130.181127 19.3187531,122.693556 19.3187531,117.730639 C19.3187531,112.767722 19.6311471,105.280151 20.2559351,95.2679266 L20.2559324,95.2679265 C20.2909575,94.7066501 20.7563849,94.2693612 21.3187531,94.2693612 Z" id="original_Path-11_21392532" fill="#36383C" transform="translate(21.318753, 117.730639) rotate(120.000000) translate(-21.318753, -117.730639) "></path>
                <path d="M61.4485606,123.669027 L61.4485606,123.669027 L61.4485606,123.669027 C62.0147252,123.669027 62.4867269,124.102286 62.5350992,124.66638 C63.1440776,131.767844 63.4485606,137.178916 63.4485606,140.899594 C63.4485606,144.620272 63.1440776,150.031344 62.5351118,157.132809 L62.5350992,157.132808 C62.4867269,157.696902 62.0147252,158.130161 61.4485606,158.130161 L61.4485606,158.130161 L61.4485606,158.130161 C60.8826149,158.130161 60.4109835,157.696684 60.3633538,157.132746 C59.7534985,149.911778 59.4485606,144.500728 59.4485606,140.899594 C59.4485606,137.29846 59.7534985,131.88741 60.3633743,124.666444 L60.3633538,124.666442 C60.4109835,124.102504 60.8826149,123.669027 61.4485606,123.669027 Z" id="original_Path-11_21392532" fill="#36383C" transform="translate(61.448561, 140.899594) rotate(120.000000) translate(-61.448561, -140.899594) "></path>
                <path d="M293.609024,136.3125 L293.609024,136.3125 L293.609024,136.3125 C294.185507,136.3125 294.67506,136.734659 294.759824,137.304877 C295.325958,141.113322 295.609024,144.03253 295.609024,146.0625 C295.609024,148.09247 295.325958,151.011678 294.759825,154.820123 L294.759824,154.820123 C294.67506,155.390341 294.185507,155.8125 293.609024,155.8125 L293.609024,155.8125 L293.609024,155.8125 C293.032969,155.8125 292.544061,155.390037 292.460511,154.820073 C291.892854,150.947621 291.609024,148.028431 291.609024,146.0625 C291.609024,144.096569 291.892854,141.177379 292.460516,137.304928 L292.460511,137.304927 C292.544061,136.734963 293.032969,136.3125 293.609024,136.3125 Z" id="original_Path-11_21392532" fill="#36383C" transform="translate(293.609024, 146.062500) rotate(60.000000) translate(-293.609024, -146.062500) "></path>
                <path d="M333.948194,88.7273305 L333.948194,88.7273305 L333.948194,88.7273305 C334.507588,88.7273305 334.967808,89.1677825 334.99235,89.7266386 C335.629575,104.23704 335.948194,115.252383 335.948194,122.77267 C335.948194,130.292956 335.629575,141.3083 334.992337,155.8187 L334.99235,155.8187 C334.967808,156.377557 334.507588,156.818009 333.948194,156.818009 L333.948194,156.818009 L333.948194,156.818009 C333.388936,156.818009 332.928934,156.377459 332.904785,155.818723 C332.267051,141.063975 331.948194,130.048623 331.948194,122.77267 C331.948194,115.496716 332.267051,104.481364 332.904766,89.7266152 L332.904785,89.726616 C332.928934,89.1678802 333.388936,88.7273305 333.948194,88.7273305 Z" id="original_Path-11_21392532" fill="#36383C" transform="translate(333.948194, 122.772670) rotate(60.000000) translate(-333.948194, -122.772670) "></path>
                <path d="M322.44187,63.5287491 L322.44187,63.5287491 L322.44187,63.5287491 C323.00587,63.5287491 323.474107,63.9643566 323.514777,64.5268883 C324.132831,73.0760259 324.44187,79.5822533 324.44187,84.0455724 C324.44187,88.5088915 324.132831,95.015119 323.514752,103.564255 L323.514777,103.564257 C323.474107,104.126788 323.00587,104.562396 322.44187,104.562396 L322.44187,104.562396 L322.44187,104.562396 C321.878074,104.562396 321.410168,104.126616 321.370133,103.564243 C320.751296,94.8711893 320.44187,88.3649662 320.44187,84.0455724 C320.44187,79.7261786 320.751296,73.2199555 321.370149,64.5269031 L321.370133,64.526902 C321.410168,63.9645292 321.878074,63.5287491 322.44187,63.5287491 Z" id="original_Path-11_21392532" fill="#36383C" transform="translate(322.441870, 84.045572) rotate(48.000000) translate(-322.441870, -84.045572) "></path>
                <path d="M285.567036,94.2478219 L285.567036,94.2478219 L285.567036,94.2478219 C286.129792,94.2478219 286.595871,94.6847491 286.632167,95.2463338 C287.255405,104.889535 287.567036,112.223364 287.567036,117.247822 C287.567036,122.27228 287.255405,129.606109 286.632143,139.249308 L286.632167,139.24931 C286.595871,139.810895 286.129792,140.247822 285.567036,140.247822 L285.567036,140.247822 L285.567036,140.247822 C285.004474,140.247822 284.538705,139.810749 284.502979,139.249322 C283.879015,129.443762 283.567036,122.109928 283.567036,117.247822 C283.567036,112.385715 283.879015,105.051882 284.502973,95.2463212 L284.502979,95.2463216 C284.538705,94.6848953 285.004474,94.2478219 285.567036,94.2478219 Z" id="original_Path-11_21392532" fill="#36383C" transform="translate(285.567036, 117.247822) rotate(48.000000) translate(-285.567036, -117.247822) "></path>
                <path d="M270.319324,52.4923588 L270.319324,52.4923588 L270.319324,52.4923588 C270.878241,52.4923588 271.337639,52.9332826 271.360566,53.49173 C271.999742,69.0603178 272.319324,80.8760345 272.319324,88.9388797 C272.319324,97.0017249 271.999742,108.817442 271.360578,124.38603 L271.360566,124.386029 C271.337639,124.944477 270.878241,125.385401 270.319324,125.385401 L270.319324,125.385401 L270.319324,125.385401 C269.760517,125.385401 269.301309,124.944371 269.27875,124.38602 C268.639129,108.555278 268.319324,96.7395639 268.319324,88.9388797 C268.319324,81.1381955 268.639129,69.3224819 269.278739,53.4917389 L269.27875,53.4917393 C269.301309,52.9333881 269.760517,52.4923588 270.319324,52.4923588 Z" id="original_Path-11_21392532" fill="#36383C" transform="translate(270.319324, 88.938880) rotate(36.000000) translate(-270.319324, -88.938880) "></path>
                <path d="M299.410104,39.1488554 L299.410104,39.1488554 L299.410104,39.1488554 C299.986587,39.1488554 300.47614,39.5710147 300.560904,40.1412322 C301.127038,43.9496774 301.410104,46.8688852 301.410104,48.8988554 C301.410104,50.9288255 301.127038,53.8480333 300.560906,57.6564787 L300.560904,57.6564785 C300.47614,58.2266961 299.986587,58.6488554 299.410104,58.6488554 L299.410104,58.6488554 L299.410104,58.6488554 C298.834049,58.6488554 298.345142,58.2263919 298.261591,57.6564279 C297.693935,53.7839768 297.410104,50.8647862 297.410104,48.8988554 C297.410104,46.9329245 297.693935,44.013734 298.261596,40.1412836 L298.261591,40.1412828 C298.345142,39.5713188 298.834049,39.1488554 299.410104,39.1488554 Z" id="original_Path-11_21392532" fill="#36383C" transform="translate(299.410104, 48.898855) rotate(36.000000) translate(-299.410104, -48.898855) "></path>
                <g id="Group-5" transform="translate(20.000000, 159.000000)" fill="#36383C">
                    <path d="M9.29787234,51.3829787 L9.59532574,34.5768618 C8.39071802,35.8071757 7.14972291,36.6787182 5.87234043,37.1914894 C0.02004336,39.5407379 1.41190251e-14,38.6617599 0,38.1702128 C-1.30188413e-14,37.707717 0.674668033,38.3328229 5.87234043,35.7234043 C7.29575896,35.0087969 8.55336899,33.6878729 9.64517051,31.7606322 L9.78117638,24.0763005 C8.48025028,25.3162136 7.17730496,26.2624113 5.87234043,26.9148936 C3.91489362,27.893617 1.46808511,27.893617 1.46808511,27.4042553 C1.46808511,26.9148936 3.20680146,27.2727613 5.87234043,25.4468085 C6.59803512,24.9496917 7.90098044,23.6447271 9.78117638,21.5319149 L9.94931715,12.8955024 C8.24198095,14.1077549 7.04610928,14.8659917 6.36170213,15.1702128 C3.44435918,16.4669806 1.95297921,16.3784105 1.95744681,16.1489362 C1.96192009,15.9191698 3.42401732,15.665399 6.36170213,13.7021277 C7.04751629,13.2437942 8.25907649,12.169091 9.99638272,10.4780181 L10.1826673,0.652365036 L10.1826673,0.652365036 C10.1895356,0.29009059 10.4851782,-8.98905806e-16 10.8475177,0 L10.8475177,0 L10.8475177,0 C11.2126708,9.0588578e-16 11.5133345,0.287019582 11.5302808,0.651779248 L11.8191121,6.86874187 C13.1171071,9.01023692 14.0710201,10.3093088 14.6808511,10.7659574 C17.7452605,13.0606236 19.5708705,12.7321911 19.5744681,12.8955024 C19.5781946,13.0646671 17.9516829,13.9160507 14.6808511,12.2340426 C14.1279154,11.9496983 13.1908869,10.9277311 11.8697654,9.16814085 L12.139256,21.4016278 C13.6108518,22.7581187 14.7526958,23.7368421 15.5647879,24.337798 C19.6210369,27.339461 22.4073058,27.4736229 22.4158517,27.7633299 C22.4244048,28.0532817 20.3446282,28.1406065 16.3186593,26.3928219 C15.5155757,26.0441811 14.1540368,25.1579213 12.2340426,23.7340426 L12.6119656,31.0158483 C14.6437049,33.8279778 16.4751773,35.7234043 18.106383,36.7021277 C20.5531915,38.1702128 23,38.1702128 23,38.6595745 C23,39.1489362 21.0425532,39.1489362 18.106383,38.1702128 C16.1489362,37.5177305 14.3488052,36.1954199 12.7059902,34.2032811 L13.212766,51.3829787 L9.29787234,51.3829787 Z" id="Path-11"></path>
                    <path d="M66.2978723,51.3829787 L66.5953257,34.5768618 C65.390718,35.8071757 64.1497229,36.6787182 62.8723404,37.1914894 C57.0200434,39.5407379 57,38.6617599 57,38.1702128 C57,37.707717 57.674668,38.3328229 62.8723404,35.7234043 C64.295759,35.0087969 65.553369,33.6878729 66.6451705,31.7606322 L66.7811764,24.0763005 C65.4802503,25.3162136 64.177305,26.2624113 62.8723404,26.9148936 C60.9148936,27.893617 58.4680851,27.893617 58.4680851,27.4042553 C58.4680851,26.9148936 60.2068015,27.2727613 62.8723404,25.4468085 C63.5980351,24.9496917 64.9009804,23.6447271 66.7811764,21.5319149 L66.9493172,12.8955024 C65.241981,14.1077549 64.0461093,14.8659917 63.3617021,15.1702128 C60.4443592,16.4669806 58.9529792,16.3784105 58.9574468,16.1489362 C58.9619201,15.9191698 60.4240173,15.665399 63.3617021,13.7021277 C64.0475163,13.2437942 65.2590765,12.169091 66.9963827,10.4780181 L67.1826673,0.652365036 L67.1826673,0.652365036 C67.1895356,0.29009059 67.4851782,6.65606952e-17 67.8475177,0 L67.8475177,0 L67.8475177,0 C68.2126708,9.0588578e-16 68.5133345,0.287019582 68.5302808,0.651779248 L68.8191121,6.86874187 C70.1171071,9.01023692 71.0710201,10.3093088 71.6808511,10.7659574 C74.7452605,13.0606236 76.5708705,12.7321911 76.5744681,12.8955024 C76.5781946,13.0646671 74.9516829,13.9160507 71.6808511,12.2340426 C71.1279154,11.9496983 70.1908869,10.9277311 68.8697654,9.16814085 L69.139256,21.4016278 C70.6108518,22.7581187 71.7526958,23.7368421 72.5647879,24.337798 C76.6210369,27.339461 79.4073058,27.4736229 79.4158517,27.7633299 C79.4244048,28.0532817 77.3446282,28.1406065 73.3186593,26.3928219 C72.5155757,26.0441811 71.1540368,25.1579213 69.2340426,23.7340426 L69.6119656,31.0158483 C71.6437049,33.8279778 73.4751773,35.7234043 75.106383,36.7021277 C77.5531915,38.1702128 80,38.1702128 80,38.6595745 C80,39.1489362 78.0425532,39.1489362 75.106383,38.1702128 C73.1489362,37.5177305 71.3488052,36.1954199 69.7059902,34.2032811 L70.212766,51.3829787 L66.2978723,51.3829787 Z" id="Path-11"></path>
                    <path d="M38.2765957,51.212766 L38.5093854,38.0601527 C37.5666489,39.0230071 36.5954353,39.7050838 35.5957447,40.106383 C31.0156861,41.9449253 31,41.2570295 31,40.8723404 C31,40.5103872 31.5280011,40.9996006 35.5957447,38.9574468 C36.7097244,38.3981889 37.693941,37.3644223 38.5483943,35.856147 L38.6548337,29.8423221 C37.6367176,30.8126889 36.6170213,31.5531915 35.5957447,32.0638298 C34.0638298,32.8297872 32.1489362,32.8297872 32.1489362,32.4468085 C32.1489362,32.0638298 33.5096707,32.3439002 35.5957447,30.9148936 C36.1636797,30.5258457 37.183376,29.5045691 38.6548337,27.8510638 L38.7864221,21.0921323 C37.450246,22.0408517 36.5143464,22.6342544 35.9787234,22.8723404 C33.6955854,23.8872022 32.5284185,23.8178865 32.5319149,23.6382979 C32.5354157,23.4584807 33.6796657,23.2598774 35.9787234,21.7234043 C36.5154475,21.3647085 37.4636251,20.5236364 38.823256,19.2001881 L38.969044,11.5105465 L38.969044,11.5105465 C38.9744192,11.2270274 39.2057916,11 39.4893617,11 L39.4893617,11 L39.4893617,11 C39.7751337,11 40.0104357,11.224624 40.023698,11.5100881 L40.2497399,16.3755371 C41.2655621,18.0514898 42.0121027,19.0681547 42.4893617,19.4255319 C44.8875952,21.2213576 46.3163334,20.9643235 46.3191489,21.0921323 C46.3220653,21.2245221 45.0491432,21.8908223 42.4893617,20.5744681 C42.0566295,20.3519378 41.3233028,19.5521374 40.2893816,18.1750668 L40.5002873,27.7491 C41.651971,28.8107016 42.545588,29.576659 43.1811383,30.0469724 C46.3555941,32.3960999 48.5361523,32.5010962 48.5428405,32.7278234 C48.5495342,32.9547422 46.9218829,33.0230834 43.7711246,31.6552519 C43.1426245,31.3824026 42.0770723,30.688808 40.5744681,29.5744681 L40.870234,35.2732725 C42.4602908,37.4740696 43.893617,38.9574468 45.1702128,39.7234043 C47.0851064,40.8723404 49,40.8723404 49,41.2553191 C49,41.6382979 47.4680851,41.6382979 45.1702128,40.8723404 C43.6382979,40.3617021 42.2294998,39.3268504 40.9438184,37.7677852 L41.3404255,51.212766 L38.2765957,51.212766 Z" id="Path-11"></path>
                    <path d="M95.2765957,51.212766 L95.5093854,38.0601527 C94.5666489,39.0230071 93.5954353,39.7050838 92.5957447,40.106383 C88.0156861,41.9449253 88,41.2570295 88,40.8723404 C88,40.5103872 88.5280011,40.9996006 92.5957447,38.9574468 C93.7097244,38.3981889 94.693941,37.3644223 95.5483943,35.856147 L95.6548337,29.8423221 C94.6367176,30.8126889 93.6170213,31.5531915 92.5957447,32.0638298 C91.0638298,32.8297872 89.1489362,32.8297872 89.1489362,32.4468085 C89.1489362,32.0638298 90.5096707,32.3439002 92.5957447,30.9148936 C93.1636797,30.5258457 94.183376,29.5045691 95.6548337,27.8510638 L95.7864221,21.0921323 C94.450246,22.0408517 93.5143464,22.6342544 92.9787234,22.8723404 C90.6955854,23.8872022 89.5284185,23.8178865 89.5319149,23.6382979 C89.5354157,23.4584807 90.6796657,23.2598774 92.9787234,21.7234043 C93.5154475,21.3647085 94.4636251,20.5236364 95.823256,19.2001881 L95.969044,11.5105465 L95.969044,11.5105465 C95.9744192,11.2270274 96.2057916,11 96.4893617,11 L96.4893617,11 L96.4893617,11 C96.7751337,11 97.0104357,11.224624 97.023698,11.5100881 L97.2497399,16.3755371 C98.2655621,18.0514898 99.0121027,19.0681547 99.4893617,19.4255319 C101.887595,21.2213576 103.316333,20.9643235 103.319149,21.0921323 C103.322065,21.2245221 102.049143,21.8908223 99.4893617,20.5744681 C99.0566295,20.3519378 98.3233028,19.5521374 97.2893816,18.1750668 L97.5002873,27.7491 C98.651971,28.8107016 99.545588,29.576659 100.181138,30.0469724 C103.355594,32.3960999 105.536152,32.5010962 105.54284,32.7278234 C105.549534,32.9547422 103.921883,33.0230834 100.771125,31.6552519 C100.142624,31.3824026 99.0770723,30.688808 97.5744681,29.5744681 L97.870234,35.2732725 C99.4602908,37.4740696 100.893617,38.9574468 102.170213,39.7234043 C104.085106,40.8723404 106,40.8723404 106,41.2553191 C106,41.6382979 104.468085,41.6382979 102.170213,40.8723404 C100.638298,40.3617021 99.2294998,39.3268504 97.9438184,37.7677852 L98.3404255,51.212766 L95.2765957,51.212766 Z" id="Path-11"></path>
                </g>
                <g id="Group-5" transform="translate(291.000000, 185.000000) scale(-1, 1) translate(-291.000000, -185.000000) translate(238.000000, 159.000000)" fill="#36383C">
                    <path d="M9.29787234,51.3829787 L9.59532574,34.5768618 C8.39071802,35.8071757 7.14972291,36.6787182 5.87234043,37.1914894 C0.02004336,39.5407379 1.41190251e-14,38.6617599 0,38.1702128 C-1.30188413e-14,37.707717 0.674668033,38.3328229 5.87234043,35.7234043 C7.29575896,35.0087969 8.55336899,33.6878729 9.64517051,31.7606322 L9.78117638,24.0763005 C8.48025028,25.3162136 7.17730496,26.2624113 5.87234043,26.9148936 C3.91489362,27.893617 1.46808511,27.893617 1.46808511,27.4042553 C1.46808511,26.9148936 3.20680146,27.2727613 5.87234043,25.4468085 C6.59803512,24.9496917 7.90098044,23.6447271 9.78117638,21.5319149 L9.94931715,12.8955024 C8.24198095,14.1077549 7.04610928,14.8659917 6.36170213,15.1702128 C3.44435918,16.4669806 1.95297921,16.3784105 1.95744681,16.1489362 C1.96192009,15.9191698 3.42401732,15.665399 6.36170213,13.7021277 C7.04751629,13.2437942 8.25907649,12.169091 9.99638272,10.4780181 L10.1826673,0.652365036 L10.1826673,0.652365036 C10.1895356,0.29009059 10.4851782,6.65606952e-17 10.8475177,0 L10.8475177,0 L10.8475177,0 C11.2126708,9.0588578e-16 11.5133345,0.287019582 11.5302808,0.651779248 L11.8191121,6.86874187 C13.1171071,9.01023692 14.0710201,10.3093088 14.6808511,10.7659574 C17.7452605,13.0606236 19.5708705,12.7321911 19.5744681,12.8955024 C19.5781946,13.0646671 17.9516829,13.9160507 14.6808511,12.2340426 C14.1279154,11.9496983 13.1908869,10.9277311 11.8697654,9.16814085 L12.139256,21.4016278 C13.6108518,22.7581187 14.7526958,23.7368421 15.5647879,24.337798 C19.6210369,27.339461 22.4073058,27.4736229 22.4158517,27.7633299 C22.4244048,28.0532817 20.3446282,28.1406065 16.3186593,26.3928219 C15.5155757,26.0441811 14.1540368,25.1579213 12.2340426,23.7340426 L12.6119656,31.0158483 C14.6437049,33.8279778 16.4751773,35.7234043 18.106383,36.7021277 C20.5531915,38.1702128 23,38.1702128 23,38.6595745 C23,39.1489362 21.0425532,39.1489362 18.106383,38.1702128 C16.1489362,37.5177305 14.3488052,36.1954199 12.7059902,34.2032811 L13.212766,51.3829787 L9.29787234,51.3829787 Z" id="Path-11"></path>
                    <path d="M66.2978723,51.3829787 L66.5953257,34.5768618 C65.390718,35.8071757 64.1497229,36.6787182 62.8723404,37.1914894 C57.0200434,39.5407379 57,38.6617599 57,38.1702128 C57,37.707717 57.674668,38.3328229 62.8723404,35.7234043 C64.295759,35.0087969 65.553369,33.6878729 66.6451705,31.7606322 L66.7811764,24.0763005 C65.4802503,25.3162136 64.177305,26.2624113 62.8723404,26.9148936 C60.9148936,27.893617 58.4680851,27.893617 58.4680851,27.4042553 C58.4680851,26.9148936 60.2068015,27.2727613 62.8723404,25.4468085 C63.5980351,24.9496917 64.9009804,23.6447271 66.7811764,21.5319149 L66.9493172,12.8955024 C65.241981,14.1077549 64.0461093,14.8659917 63.3617021,15.1702128 C60.4443592,16.4669806 58.9529792,16.3784105 58.9574468,16.1489362 C58.9619201,15.9191698 60.4240173,15.665399 63.3617021,13.7021277 C64.0475163,13.2437942 65.2590765,12.169091 66.9963827,10.4780181 L67.1826673,0.652365036 L67.1826673,0.652365036 C67.1895356,0.29009059 67.4851782,6.65606952e-17 67.8475177,0 L67.8475177,0 L67.8475177,0 C68.2126708,9.0588578e-16 68.5133345,0.287019582 68.5302808,0.651779248 L68.8191121,6.86874187 C70.1171071,9.01023692 71.0710201,10.3093088 71.6808511,10.7659574 C74.7452605,13.0606236 76.5708705,12.7321911 76.5744681,12.8955024 C76.5781946,13.0646671 74.9516829,13.9160507 71.6808511,12.2340426 C71.1279154,11.9496983 70.1908869,10.9277311 68.8697654,9.16814085 L69.139256,21.4016278 C70.6108518,22.7581187 71.7526958,23.7368421 72.5647879,24.337798 C76.6210369,27.339461 79.4073058,27.4736229 79.4158517,27.7633299 C79.4244048,28.0532817 77.3446282,28.1406065 73.3186593,26.3928219 C72.5155757,26.0441811 71.1540368,25.1579213 69.2340426,23.7340426 L69.6119656,31.0158483 C71.6437049,33.8279778 73.4751773,35.7234043 75.106383,36.7021277 C77.5531915,38.1702128 80,38.1702128 80,38.6595745 C80,39.1489362 78.0425532,39.1489362 75.106383,38.1702128 C73.1489362,37.5177305 71.3488052,36.1954199 69.7059902,34.2032811 L70.212766,51.3829787 L66.2978723,51.3829787 Z" id="Path-11"></path>
                    <path d="M38.2765957,51.212766 L38.5093854,38.0601527 C37.5666489,39.0230071 36.5954353,39.7050838 35.5957447,40.106383 C31.0156861,41.9449253 31,41.2570295 31,40.8723404 C31,40.5103872 31.5280011,40.9996006 35.5957447,38.9574468 C36.7097244,38.3981889 37.693941,37.3644223 38.5483943,35.856147 L38.6548337,29.8423221 C37.6367176,30.8126889 36.6170213,31.5531915 35.5957447,32.0638298 C34.0638298,32.8297872 32.1489362,32.8297872 32.1489362,32.4468085 C32.1489362,32.0638298 33.5096707,32.3439002 35.5957447,30.9148936 C36.1636797,30.5258457 37.183376,29.5045691 38.6548337,27.8510638 L38.7864221,21.0921323 C37.450246,22.0408517 36.5143464,22.6342544 35.9787234,22.8723404 C33.6955854,23.8872022 32.5284185,23.8178865 32.5319149,23.6382979 C32.5354157,23.4584807 33.6796657,23.2598774 35.9787234,21.7234043 C36.5154475,21.3647085 37.4636251,20.5236364 38.823256,19.2001881 L38.969044,11.5105465 L38.969044,11.5105465 C38.9744192,11.2270274 39.2057916,11 39.4893617,11 L39.4893617,11 L39.4893617,11 C39.7751337,11 40.0104357,11.224624 40.023698,11.5100881 L40.2497399,16.3755371 C41.2655621,18.0514898 42.0121027,19.0681547 42.4893617,19.4255319 C44.8875952,21.2213576 46.3163334,20.9643235 46.3191489,21.0921323 C46.3220653,21.2245221 45.0491432,21.8908223 42.4893617,20.5744681 C42.0566295,20.3519378 41.3233028,19.5521374 40.2893816,18.1750668 L40.5002873,27.7491 C41.651971,28.8107016 42.545588,29.576659 43.1811383,30.0469724 C46.3555941,32.3960999 48.5361523,32.5010962 48.5428405,32.7278234 C48.5495342,32.9547422 46.9218829,33.0230834 43.7711246,31.6552519 C43.1426245,31.3824026 42.0770723,30.688808 40.5744681,29.5744681 L40.870234,35.2732725 C42.4602908,37.4740696 43.893617,38.9574468 45.1702128,39.7234043 C47.0851064,40.8723404 49,40.8723404 49,41.2553191 C49,41.6382979 47.4680851,41.6382979 45.1702128,40.8723404 C43.6382979,40.3617021 42.2294998,39.3268504 40.9438184,37.7677852 L41.3404255,51.212766 L38.2765957,51.212766 Z" id="Path-11"></path>
                    <path d="M95.2765957,51.212766 L95.5093854,38.0601527 C94.5666489,39.0230071 93.5954353,39.7050838 92.5957447,40.106383 C88.0156861,41.9449253 88,41.2570295 88,40.8723404 C88,40.5103872 88.5280011,40.9996006 92.5957447,38.9574468 C93.7097244,38.3981889 94.693941,37.3644223 95.5483943,35.856147 L95.6548337,29.8423221 C94.6367176,30.8126889 93.6170213,31.5531915 92.5957447,32.0638298 C91.0638298,32.8297872 89.1489362,32.8297872 89.1489362,32.4468085 C89.1489362,32.0638298 90.5096707,32.3439002 92.5957447,30.9148936 C93.1636797,30.5258457 94.183376,29.5045691 95.6548337,27.8510638 L95.7864221,21.0921323 C94.450246,22.0408517 93.5143464,22.6342544 92.9787234,22.8723404 C90.6955854,23.8872022 89.5284185,23.8178865 89.5319149,23.6382979 C89.5354157,23.4584807 90.6796657,23.2598774 92.9787234,21.7234043 C93.5154475,21.3647085 94.4636251,20.5236364 95.823256,19.2001881 L95.969044,11.5105465 L95.969044,11.5105465 C95.9744192,11.2270274 96.2057916,11 96.4893617,11 L96.4893617,11 L96.4893617,11 C96.7751337,11 97.0104357,11.224624 97.023698,11.5100881 L97.2497399,16.3755371 C98.2655621,18.0514898 99.0121027,19.0681547 99.4893617,19.4255319 C101.887595,21.2213576 103.316333,20.9643235 103.319149,21.0921323 C103.322065,21.2245221 102.049143,21.8908223 99.4893617,20.5744681 C99.0566295,20.3519378 98.3233028,19.5521374 97.2893816,18.1750668 L97.5002873,27.7491 C98.651971,28.8107016 99.545588,29.576659 100.181138,30.0469724 C103.355594,32.3960999 105.536152,32.5010962 105.54284,32.7278234 C105.549534,32.9547422 103.921883,33.0230834 100.771125,31.6552519 C100.142624,31.3824026 99.0770723,30.688808 97.5744681,29.5744681 L97.870234,35.2732725 C99.4602908,37.4740696 100.893617,38.9574468 102.170213,39.7234043 C104.085106,40.8723404 106,40.8723404 106,41.2553191 C106,41.6382979 104.468085,41.6382979 102.170213,40.8723404 C100.638298,40.3617021 99.2294998,39.3268504 97.9438184,37.7677852 L98.3404255,51.212766 L95.2765957,51.212766 Z" id="Path-11"></path>
                </g>
            </g>
        </g>
    </g>
</svg>