<?xml version="1.0" encoding="UTF-8" standalone="no"?>
<svg width="364px" height="281px" viewBox="0 0 364 281" version="1.1" xmlns="http://www.w3.org/2000/svg" xmlns:xlink="http://www.w3.org/1999/xlink">
    <!-- Generator: Sketch 46.2 (44496) - http://www.bohemiancoding.com/sketch -->
    <title>logo</title>
    <desc>Created with Sketch.</desc>
    <defs></defs>
    <g id="Page-1" stroke="none" stroke-width="1" fill="none" fill-rule="evenodd">
        <g id="logo" transform="translate(0.000000, -1.000000)">
            <path d="M66.36,253.48 C66.2159993,253.287999 66.144,253.088001 66.144,252.88 C66.144,252.671999 66.2799986,252.384002 66.552,252.016 C66.8240014,251.647998 67.063999,251.472 67.272,251.488 C67.480001,251.504 67.9599962,251.504 68.712,251.488 C69.4640038,251.472 69.9679987,251.416 70.224,251.32 C70.4800013,251.224 70.6559995,251.048001 70.752,250.792 C71.0400014,249.991996 71.4399974,249.128005 71.952,248.2 C72.9120048,246.343991 73.6799971,245.176002 74.256,244.696 C74.8320029,244.215998 75.519996,244.311997 76.32,244.984 C76.5760013,245.368002 76.7119999,245.615999 76.728,245.728 C76.7440001,245.840001 76.6400011,246.119998 76.416,246.568 C76.1919989,247.016002 75.8640022,247.599996 75.432,248.32 C74.9999978,249.040004 74.7040008,249.559998 74.544,249.88 C73.9999973,250.648004 73.9199981,251.064 74.304,251.128 C74.6880019,251.192 75.6399924,251.104001 77.16,250.864 C78.6800076,250.623999 79.5199992,251.063994 79.68,252.184 C79.7760005,252.952004 79.6960013,253.415999 79.44,253.576 C79.1839987,253.736001 78.4480061,253.816 77.232,253.816 C76.2079949,253.976001 75.2400046,254.064 74.328,254.08 C73.4159954,254.096 72.864001,254.136 72.672,254.2 C72.2879981,254.296 71.9840011,254.599997 71.76,255.112 C71.6639995,255.176 71.5520006,255.351999 71.424,255.64 C71.231999,256.024002 70.832003,256.775994 70.224,257.896 C69.3599957,260.456013 68.7920014,262.607991 68.52,264.352 C68.2479986,266.096009 68.1919992,267.119998 68.352,267.424 C68.5120008,267.728002 69.0719952,267.928 70.032,268.024 C71.6640082,268.216001 73.4239906,267.752006 75.312,266.632 L76.608,265.864 C76.9280016,265.351997 77.2639982,265.511996 77.616,266.344 C77.616,266.696002 77.5920002,266.967999 77.544,267.16 C77.4959998,267.352001 77.3200015,267.623998 77.016,267.976 C76.7119985,268.328002 76.2400032,268.679998 75.6,269.032 C73.1679878,270.568008 70.8320112,271.112002 68.592,270.664 C68.0799974,270.568 67.5600026,270.224003 67.032,269.632 C66.5039974,269.039997 66.1600008,268.488003 66,267.976 L65.76,267.592 C65.567999,267.431999 65.5039997,266.608007 65.568,265.12 C65.6320003,263.631993 65.7439992,262.576003 65.904,261.952 C66.0640008,261.327997 66.3519979,260.456006 66.768,259.336 C67.1840021,258.215994 67.4399995,257.480002 67.536,257.128 L68.832,254.344 L66.912,253.816 C66.6879989,253.784 66.5040007,253.672001 66.36,253.48 Z M90.336,255.256 C91.8720077,254.167995 93.0319961,253.624 93.816,253.624 C94.6000039,253.624 95.1519984,253.927997 95.472,254.536 C96.0480029,255.560005 96.0160032,256.471996 95.376,257.272 C95.0879986,257.624002 94.7200022,257.895999 94.272,258.088 C93.8239978,258.280001 93.504001,258.376 93.312,258.376 C93.119999,258.376 92.8800014,258.232001 92.592,257.944 C92.3039986,257.655999 92.1440002,257.416001 92.112,257.224 C92.112,257.063999 91.6640045,257.343996 90.768,258.064 C89.8719955,258.784004 89.2800014,259.287999 88.992,259.576 C88.2559963,260.472004 86.9600093,262.775981 85.104,266.488 C84.911999,266.872002 84.720001,267.335997 84.528,267.88 C84.1759982,268.872005 83.904001,269.4 83.712,269.464 C83.519999,269.528 83.2160021,269.496001 82.8,269.368 C81.1679918,268.855997 81.1039925,267.512011 82.608,265.336 C82.8320011,264.887998 83.2639968,263.728009 83.904,261.856 C84.5440032,259.983991 84.9119995,258.936001 85.008,258.712 C85.0720003,258.167997 85.0400006,257.784001 84.912,257.56 C84.7519992,257.271999 84.4960018,257.128 84.144,257.128 C83.7919982,257.128 83.5680005,257.112 83.472,257.08 C83.2159987,257.048 83.088,256.712003 83.088,256.072 C83.1520003,255.463997 83.5199966,254.952002 84.192,254.536 C85.3440058,253.927997 86.2559966,253.911997 86.928,254.488 C87.3440021,254.776001 87.552,255.831991 87.552,257.656 C89.2160083,256.247993 90.143999,255.448001 90.336,255.256 Z M110.304,257.32 C109.727997,256.039994 109.088004,255.4 108.384,255.4 C107.679996,255.4 106.608007,256.239992 105.168,257.92 C103.727993,259.600008 102.416006,261.575989 101.232,263.848 L100.032,266.584 C100.032,266.936002 100.439996,266.912002 101.256,266.512 C102.072004,266.111998 102.751997,265.688002 103.296,265.24 C106.048014,262.871988 108.031994,260.808009 109.248,259.048 L110.304,257.32 Z M97.848,268.672 C97.639999,268.463999 97.536,268.256001 97.536,268.048 C97.536,267.839999 97.4560008,267.640001 97.296,267.448 C96.7519973,266.903997 97.6159886,264.552021 99.888,260.392 C100.080001,260.199999 100.327998,259.864002 100.632,259.384 C100.936002,258.903998 101.136,258.632 101.232,258.568 C101.232,258.439999 101.28,258.320001 101.376,258.208 C101.472,258.095999 101.583999,258.04 101.712,258.04 L101.712,257.752 C101.712,257.463999 102.239995,256.760006 103.296,255.64 C106.112014,252.695985 108.287992,251.831994 109.824,253.048 C110.016001,253.304001 111.343988,254.519989 113.808,256.696 L112.944,259.096 C112.239996,261.17601 112.447994,263.127991 113.568,264.952 C113.728001,265.304002 114.047998,265.639998 114.528,265.96 C115.008002,266.280002 115.487998,266.472 115.968,266.536 C116.672004,266.664001 117.024,267.031997 117.024,267.64 C117.024,268.248003 116.736003,268.615999 116.16,268.744 C114.015989,269.032001 112.192008,267.720015 110.688,264.808 C110.239998,264.199997 109.952001,263.496004 109.824,262.696 C109.343998,263.368003 108.832003,263.975997 108.288,264.52 C103.775977,269.064023 100.448011,270.648007 98.304,269.272 C98.2079995,269.079999 98.056001,268.880001 97.848,268.672 Z M122.064,255.832 C122.224001,255.607999 122.479998,255.551999 122.832,255.664 C123.184002,255.776001 123.495999,255.983998 123.768,256.288 C124.040001,256.592002 124.136,257.087997 124.056,257.776 C123.976,258.464003 123.616003,259.935989 122.976,262.192 C122.335997,264.448011 122.048,266.119995 122.112,267.208 C121.919999,268.680007 121.776,269.432 121.68,269.464 C121.135997,269.688001 120.656002,269.440004 120.24,268.72 C119.823998,267.999996 119.584,267.352003 119.52,266.776 C119.648001,265.559994 119.744,264.696003 119.808,264.184 C120.064001,262.999994 120.471997,261.37601 121.032,259.312 C121.592003,257.24799 121.935999,256.088001 122.064,255.832 Z M124.464,245.8 C124.752001,245.383998 125.047998,245.168 125.352,245.152 C125.656002,245.136 126.127997,245.255999 126.768,245.512 C126.864,245.608 126.983999,245.831998 127.128,246.184 C127.272001,246.536002 127.399999,246.847999 127.512,247.12 C127.624001,247.392001 127.696,247.591999 127.728,247.72 C127.76,247.848001 127.8,248.031999 127.848,248.272 C127.896,248.512001 127.896,248.711999 127.848,248.872 C127.8,249.032001 127.744,249.207999 127.68,249.4 C127.551999,249.752002 127.328002,250.039999 127.008,250.264 C126.687998,250.488001 126.336002,250.472001 125.952,250.216 C125.631998,250.184 125.208003,249.904003 124.68,249.376 C124.151997,248.847997 123.88,248.456001 123.864,248.2 C123.848,247.943999 123.872,247.584002 123.936,247.12 C124,246.655998 124.175999,246.216002 124.464,245.8 Z M132.432,250.936 L132.72,250.216 C132.752,249.831998 132.879999,249.448002 133.104,249.064 C133.488002,248.487997 133.775999,247.928003 133.968,247.384 C134.480003,246.295995 134.927998,245.464003 135.312,244.888 C135.632002,244.119996 136.015998,243.512002 136.464,243.064 L136.416,243.016 C136.640001,242.631998 137.031997,242.44 137.592,242.44 C138.152003,242.44 138.472,242.495999 138.552,242.608 C138.632,242.720001 138.672,243.103997 138.672,243.76 C138.672,244.416003 138.528001,244.903998 138.24,245.224 L138.288,245.224 C137.903998,246.120004 137.632001,246.671999 137.472,246.88 C137.311999,247.088001 136.688005,248.343988 135.6,250.648 C133.871991,254.168018 133.008,256.119998 133.008,256.504 C132.655998,257.272004 132.464,257.688 132.432,257.752 L131.376,261.544 C130.863997,262.920007 130.592,263.687999 130.56,263.848 C130.047997,265.256007 129.696001,267.223987 129.504,269.752 L129.456,269.944 C129.36,270.616003 129.200001,271.063999 128.976,271.288 C128.751999,271.512001 128.416002,271.560001 127.968,271.432 C127.167996,271.175999 126.752,270.440006 126.72,269.224 C127.488004,264.551977 128.303996,261.032012 129.168,258.664 C129.392001,258.055997 129.583999,257.512002 129.744,257.032 C130.832005,253.895984 131.727996,251.864005 132.432,250.936 Z M152.688,261.208 L152.448,263.752 L152.16,265.288 L152.928,265.288 L153.984,265.528 C154.272001,265.880002 154.527999,266.056 154.752,266.056 C155.264003,266.056 155.360002,266.295998 155.04,266.776 C154.879999,267.000001 154.688001,267.191999 154.464,267.352 C152.927992,268.344005 151.664005,268.344005 150.672,267.352 C149.679995,266.359995 149.423998,264.90401 149.904,262.984 C150.064001,261.607993 150.136,260.584003 150.12,259.912 C150.104,259.239997 149.936002,258.904 149.616,258.904 C148.879996,258.904 147.368011,259.743992 145.08,261.424 C142.791989,263.104008 141.072006,264.807991 139.92,266.536 C138.959995,267.752006 138.216003,268.384 137.688,268.432 C137.159997,268.48 136.712002,268.344002 136.344,268.024 C135.975998,267.703998 135.784,267.424001 135.768,267.184 C135.752,266.943999 135.807999,266.520003 135.936,265.912 C136.800004,262.263982 137.743995,259.048014 138.768,256.264 C139.152002,254.855993 139.639997,253.408007 140.232,251.92 C140.824003,250.431993 141.327998,249.104006 141.744,247.936 C142.160002,246.767994 142.559998,245.656005 142.944,244.6 C143.328002,243.543995 143.615999,242.776002 143.808,242.296 C144.064001,241.623997 144.287999,240.984003 144.48,240.376 C144.48,239.863997 144.735997,239.608 145.248,239.608 C145.888003,239.608 146.359998,240.055996 146.664,240.952 C146.968002,241.848004 146.888002,242.783995 146.424,243.76 C145.959998,244.736005 145.176006,246.775984 144.072,249.88 C142.967994,252.984016 142.176002,255.047995 141.696,256.072 C141.696,256.456002 141.360003,257.319993 140.688,258.664 C140.688,258.792001 140.488002,259.503994 140.088,260.8 C139.687998,262.096006 139.44,263.063997 139.344,263.704 C139.824002,262.871996 140.639994,261.944005 141.792,260.92 C143.552009,259.415992 144.639998,258.520001 145.056,258.232 L146.544,257.224 C146.544,257.063999 146.671999,256.984 146.928,256.984 C147.184001,256.984 147.312,256.880001 147.312,256.672 C147.312,256.463999 147.679996,256.272001 148.416,256.096 C149.152004,255.919999 149.759998,255.832 150.24,255.832 C150.720002,255.832 151.071999,255.911999 151.296,256.072 C151.520001,256.232001 151.807998,256.583997 152.16,257.128 C153.056004,258.280006 153.232003,259.639992 152.688,261.208 Z M168.672,255.688 C168.191998,255.143997 167.472005,255.223996 166.512,255.928 C166.191998,256.024 165.720003,256.375997 165.096,256.984 C164.471997,257.592003 163.936002,258.191997 163.488,258.784 C163.039998,259.376003 162.895999,259.72 163.056,259.816 C163.024,259.88 163.063999,259.928 163.176,259.96 C163.288001,259.992 163.431999,260.016 163.608,260.032 C163.784001,260.048 163.951999,260.064 164.112,260.08 C164.272001,260.096 164.423999,260.096 164.568,260.08 C164.712001,260.064 165.031998,260.016 165.528,259.936 C166.024002,259.856 166.335999,259.792 166.464,259.744 C166.592001,259.696 166.815998,259.576001 167.136,259.384 C167.520002,259.159999 168.079996,258.520005 168.816,257.464 C169.040001,256.599996 168.992002,256.008002 168.672,255.688 Z M158.112,258.28 L158.928,258.184 C159.376002,258.184 159.6,258.279999 159.6,258.472 C159.824001,258.888002 160.175998,258.776003 160.656,258.136 C160.816001,257.911999 160.975999,257.640002 161.136,257.32 C161.584002,256.615996 162.247996,255.872004 163.128,255.088 C164.008004,254.303996 164.735997,253.752002 165.312,253.432 C166.304005,252.983998 167.215996,252.8 168.048,252.88 C168.880004,252.96 169.727996,253.463995 170.592,254.392 C171.136003,254.808002 171.432,255.447996 171.48,256.312 C171.528,257.176004 171.376002,257.927997 171.024,258.568 C170.895999,259.048002 170.392004,259.655996 169.512,260.392 C168.631996,261.128004 167.824004,261.639999 167.088,261.928 C166.415997,262.088001 165.568005,262.192 164.544,262.24 C163.519995,262.288 162.848002,262.232001 162.528,262.072 C162.303999,261.943999 162.128001,262.143997 162,262.672 C161.871999,263.200003 161.768,263.935995 161.688,264.88 C161.608,265.824005 161.631999,266.399999 161.76,266.608 C161.888001,266.816001 162.015999,266.968 162.144,267.064 C163.264006,268.216006 164.447994,268.280005 165.696,267.256 C166.080002,266.903998 166.503998,266.488002 166.968,266.008 C167.432002,265.527998 167.775999,265.192001 168,265 C168.256001,264.551998 168.799996,264.439999 169.632,264.664 C169.952002,264.952001 170.104,265.223999 170.088,265.48 C170.072,265.736001 169.944001,266.103998 169.704,266.584 C169.463999,267.064002 169.032003,267.583997 168.408,268.144 C167.783997,268.704003 167.232002,269.143998 166.752,269.464 C165.055992,270.360004 163.360008,270.488003 161.664,269.848 C160.415994,269.335997 159.608002,268.624005 159.24,267.712 C158.871998,266.799995 158.767999,265.624007 158.928,264.184 C159.088001,262.743993 159.152,261.848002 159.12,261.496 C159.088,261.143998 158.984001,260.888001 158.808,260.728 C158.631999,260.567999 158.464001,260.408001 158.304,260.248 C157.951998,259.895998 157.76,259.616001 157.728,259.408 C157.696,259.199999 157.72,258.960001 157.8,258.688 C157.88,258.415999 157.983999,258.28 158.112,258.28 Z M186.24,257.32 C185.663997,256.039994 185.024004,255.4 184.32,255.4 C183.615996,255.4 182.544007,256.239992 181.104,257.92 C179.663993,259.600008 178.352006,261.575989 177.168,263.848 L175.968,266.584 C175.968,266.936002 176.375996,266.912002 177.192,266.512 C178.008004,266.111998 178.687997,265.688002 179.232,265.24 C181.984014,262.871988 183.967994,260.808009 185.184,259.048 L186.24,257.32 Z M173.784,268.672 C173.575999,268.463999 173.472,268.256001 173.472,268.048 C173.472,267.839999 173.392001,267.640001 173.232,267.448 C172.687997,266.903997 173.551989,264.552021 175.824,260.392 C176.016001,260.199999 176.263998,259.864002 176.568,259.384 C176.872002,258.903998 177.072,258.632 177.168,258.568 C177.168,258.439999 177.216,258.320001 177.312,258.208 C177.408,258.095999 177.519999,258.04 177.648,258.04 L177.648,257.752 C177.648,257.463999 178.175995,256.760006 179.232,255.64 C182.048014,252.695985 184.223992,251.831994 185.76,253.048 C185.952001,253.304001 187.279988,254.519989 189.744,256.696 L188.88,259.096 C188.175996,261.17601 188.383994,263.127991 189.504,264.952 C189.664001,265.304002 189.983998,265.639998 190.464,265.96 C190.944002,266.280002 191.423998,266.472 191.904,266.536 C192.608004,266.664001 192.96,267.031997 192.96,267.64 C192.96,268.248003 192.672003,268.615999 192.096,268.744 C189.951989,269.032001 188.128008,267.720015 186.624,264.808 C186.175998,264.199997 185.888001,263.496004 185.76,262.696 C185.279998,263.368003 184.768003,263.975997 184.224,264.52 C179.711977,269.064023 176.384011,270.648007 174.24,269.272 C174.144,269.079999 173.992001,268.880001 173.784,268.672 Z M206.304,257.752 C206.304,257.559999 206.000003,257.432 205.392,257.368 C203.535991,257.111999 201.63201,258.151988 199.68,260.488 C198.879996,261.448005 198.208003,262.503994 197.664,263.656 C196.543994,265.928011 196.303997,267.207999 196.944,267.496 C197.840004,267.496 199.31199,266.568009 201.36,264.712 C202.224004,263.879996 203.263994,262.584009 204.48,260.824 C205.696006,259.063991 206.304,258.040001 206.304,257.752 Z M207.792,264.472 C207.663999,265.240004 207.6,266.439992 207.6,268.072 C207.6,269.704008 207.456001,270.52 207.168,270.52 C206.623997,270.52 206.176002,270.296002 205.824,269.848 C205.471998,269.399998 205.232001,268.984002 205.104,268.6 C204.975999,268.215998 204.96,267.656004 205.056,266.92 L205.248,264.712 C205.152,264.712 205.088,264.704 205.056,264.688 C205.024,264.672 204.920001,264.719999 204.744,264.832 C204.567999,264.944001 204.432,265.048 204.336,265.144 C204.24,265.24 204.072001,265.383999 203.832,265.576 C203.591999,265.768001 203.376001,265.943999 203.184,266.104 C200.367986,269.272016 198.00001,270.728001 196.08,270.472 C194.511992,270.279999 193.871999,268.840013 194.16,266.152 C194.416001,264.007989 195.199993,261.92801 196.512,259.912 C197.056003,258.951995 197.847995,258.024004 198.888,257.128 C199.928005,256.231996 200.959995,255.608002 201.984,255.256 C203.552008,254.647997 204.991993,254.551998 206.304,254.968 C207.104004,255.384002 207.599999,255.320003 207.792,254.776 C207.888,254.615999 208.047999,254.224003 208.272,253.6 C208.496001,252.975997 208.687999,252.520001 208.848,252.232 C209.680004,249.735988 210.415997,247.760007 211.056,246.304 C211.696003,244.847993 212.191998,243.704004 212.544,242.872 C213.056003,241.847995 213.495998,241.240001 213.864,241.048 C214.232002,240.855999 214.639998,240.999998 215.088,241.48 C215.408002,241.992003 215.536,242.471998 215.472,242.92 C215.408,243.368002 215.120003,244.199994 214.608,245.416 C213.839996,246.664006 212.672008,249.23998 211.104,253.144 C211.072,253.304001 210.920001,253.839995 210.648,254.752 C210.375999,255.664005 210.152001,256.567996 209.976,257.464 C209.799999,258.360004 209.616001,258.808 209.424,258.808 C208.847997,259.416003 208.304003,261.303984 207.792,264.472 Z M214.416,264.76 C214.992003,264.407998 215.415999,264.216 215.688,264.184 C215.960001,264.152 216.383997,264.263999 216.96,264.52 C217.920005,265.128003 218.344001,265.799996 218.232,266.536 C218.119999,267.272004 217.472006,267.927997 216.288,268.504 C215.199995,268.952002 214.256004,268.872003 213.456,268.264 C212.303994,267.143994 212.623991,265.976006 214.416,264.76 Z M235.752,259.048 C235.447998,259.496002 235.136002,259.72 234.816,259.72 C234.495998,259.72 234.336,259.815999 234.336,260.008 C234.336,260.296001 234.152002,260.328001 233.784,260.104 C233.415998,259.879999 233.208,259.656001 233.16,259.432 C233.112,259.207999 233.112,259.000001 233.16,258.808 C233.208,258.615999 233.295999,258.344002 233.424,257.992 C234.224004,255.463987 233.856008,254.519997 232.32,255.16 C229.663987,256.664008 227.696006,259.895975 226.416,264.856 C226.159999,265.752004 226.08,266.431998 226.176,266.896 C226.272,267.360002 226.352,267.608 226.416,267.64 C226.864002,267.768001 227.471996,267.792 228.24,267.712 C229.008004,267.632 229.735997,267.408002 230.424,267.04 C231.112003,266.671998 231.775997,266.248002 232.416,265.768 C233.056003,265.287998 233.535998,264.912001 233.856,264.64 C234.176002,264.367999 234.431999,264.184 234.624,264.088 C234.912001,263.639998 235.159999,263.4 235.368,263.368 C235.576001,263.336 235.839998,263.32 236.16,263.32 C236.928004,263.576001 237.328,263.847999 237.36,264.136 C237.36,264.2 237.296001,264.264 237.168,264.328 L236.928,264.568 C237.056001,264.824001 236.496006,265.527994 235.248,266.68 C233.999994,267.832006 233.200002,268.408 232.848,268.408 C232.495998,268.408 232.32,268.503999 232.32,268.696 C232.32,268.824001 231.832005,269.119998 230.856,269.584 C229.879995,270.048002 229.088003,270.343999 228.48,270.472 C227.039993,270.728001 225.832005,270.488004 224.856,269.752 C223.879995,269.015996 223.392,267.896008 223.392,266.392 C223.263999,264.983993 223.575996,263.24001 224.328,261.16 C225.080004,259.07999 226.151993,257.200008 227.544,255.52 C228.936007,253.839992 229.999996,252.848002 230.736,252.544 C231.472004,252.239998 232.255996,252.088 233.088,252.088 C233.664003,252.216001 234.231997,252.455998 234.792,252.808 C235.352003,253.160002 235.632,253.511998 235.632,253.864 L235.872,254.104 C236.160001,254.104 236.383999,254.535996 236.544,255.4 C236.704001,256.264004 236.656001,256.951997 236.4,257.464 C236.271999,258.072003 236.056002,258.599998 235.752,259.048 Z M252.624,257.32 C252.047997,256.039994 251.408004,255.4 250.704,255.4 C249.999996,255.4 248.928007,256.239992 247.488,257.92 C246.047993,259.600008 244.736006,261.575989 243.552,263.848 L242.352,266.584 C242.352,266.936002 242.759996,266.912002 243.576,266.512 C244.392004,266.111998 245.071997,265.688002 245.616,265.24 C248.368014,262.871988 250.351994,260.808009 251.568,259.048 L252.624,257.32 Z M240.168,268.672 C239.959999,268.463999 239.856,268.256001 239.856,268.048 C239.856,267.839999 239.776001,267.640001 239.616,267.448 C239.071997,266.903997 239.935989,264.552021 242.208,260.392 C242.400001,260.199999 242.647998,259.864002 242.952,259.384 C243.256002,258.903998 243.456,258.632 243.552,258.568 C243.552,258.439999 243.6,258.320001 243.696,258.208 C243.792,258.095999 243.903999,258.04 244.032,258.04 L244.032,257.752 C244.032,257.463999 244.559995,256.760006 245.616,255.64 C248.432014,252.695985 250.607992,251.831994 252.144,253.048 C252.336001,253.304001 253.663988,254.519989 256.128,256.696 L255.264,259.096 C254.559996,261.17601 254.767994,263.127991 255.888,264.952 C256.048001,265.304002 256.367998,265.639998 256.848,265.96 C257.328002,266.280002 257.807998,266.472 258.288,266.536 C258.992004,266.664001 259.344,267.031997 259.344,267.64 C259.344,268.248003 259.056003,268.615999 258.48,268.744 C256.335989,269.032001 254.512008,267.720015 253.008,264.808 C252.559998,264.199997 252.272001,263.496004 252.144,262.696 C251.663998,263.368003 251.152003,263.975997 250.608,264.52 C246.095977,269.064023 242.768011,270.648007 240.624,269.272 C240.528,269.079999 240.376001,268.880001 240.168,268.672 Z M284.256,268.552 L283.2,268.792 C282.783998,268.920001 282.264003,268.864001 281.64,268.624 C281.015997,268.383999 280.624001,267.944003 280.464,267.304 C280.015998,266.279995 279.919999,264.920008 280.176,263.224 C280.24,262.903998 280.304,262.552002 280.368,262.168 C280.464,261.239995 280.544,260.728 280.608,260.632 C280.608,259.799996 280.56,259.384 280.464,259.384 C280.207999,259.384 279.360007,260.215992 277.92,261.88 C275.679989,264.440013 274.256003,266.423993 273.648,267.832 C273.519999,268.088001 273.424,268.232 273.36,268.264 C272.879998,268.776003 272.336003,268.504005 271.728,267.448 C271.535999,267.127998 271.472,266.744002 271.536,266.296 C271.568,266.167999 272.383992,263.576025 273.984,258.52 C273.984,258.295999 273.184008,258.871993 271.584,260.248 C271.455999,260.408001 271.008004,260.887996 270.24,261.688 C268.22399,263.832011 266.712005,265.599993 265.704,266.992 C264.695995,268.384007 264.024002,269.207999 263.688,269.464 C263.351998,269.720001 263.024002,269.664002 262.704,269.296 C262.383998,268.927998 262.224,268.600001 262.224,268.312 C262.224,268.023999 262.144001,267.88 261.984,267.88 C261.791999,267.687999 262.159995,266.59201 263.088,264.592 C264.016005,262.59199 264.815997,261.064005 265.488,260.008 C265.712001,259.783999 265.808,259.560001 265.776,259.336 C266.096002,258.759997 266.319999,258.408001 266.448,258.28 C266.992003,257.223995 267.216,256.376003 267.12,255.736 C267.024,255.64 266.920001,255.592 266.808,255.592 C266.695999,255.592 266.6,255.616 266.52,255.664 C266.44,255.712 266.320001,255.768 266.16,255.832 C265.903999,255.896 265.600002,256.007999 265.248,256.168 C264.511996,256.680003 264.016001,256.912 263.76,256.864 C263.503999,256.816 263.240001,256.464003 262.968,255.808 C262.695999,255.151997 262.703999,254.704001 262.992,254.464 C263.280001,254.223999 263.575998,254.032001 263.88,253.888 C264.184002,253.743999 264.511998,253.568001 264.864,253.36 C265.216002,253.151999 265.535999,253.016 265.824,252.952 C267.552009,252.439997 268.687997,252.807994 269.232,254.056 C270.224005,255.368007 270.064007,257.01599 268.752,259 C268.623999,259.256001 268.592,259.416 268.656,259.48 C268.72,259.544 268.935998,259.344002 269.304,258.88 C269.672002,258.415998 269.983999,258.184 270.24,258.184 C270.400001,258.184 270.48,258.040001 270.48,257.752 L270.96,257.32 C271.024,257.32 271.711993,256.808005 273.024,255.784 C273.376002,255.527999 273.695999,255.4 273.984,255.4 C274.688004,255.175999 275.279998,255.407997 275.76,256.096 C276.240002,256.784003 276.48,257.703994 276.48,258.856 L275.472,261.448 L277.2,259.336 C277.488001,258.983998 277.871998,258.600002 278.352,258.184 C278.416,257.895999 278.543999,257.752 278.736,257.752 L278.832,257.752 C278.960001,257.752 279.024,257.688001 279.024,257.56 C279.088,257.496 279.183999,257.416 279.312,257.32 C279.696002,257.095999 279.904,256.936 279.936,256.84 C281.088006,256.391998 281.967997,256.759994 282.576,257.944 C282.864001,258.456003 283.008,259.223995 283.008,260.248 C282.912,260.824003 282.768001,261.879992 282.576,263.416 C282.415999,263.768002 282.336,264.207997 282.336,264.736 C282.336,265.264003 282.352,265.591999 282.384,265.72 C282.384,265.976001 282.511999,266.104 282.768,266.104 C283.248002,266.008 283.879996,265.776002 284.664,265.408 C285.448004,265.039998 286.047998,264.656002 286.464,264.256 C286.880002,263.855998 287.271998,263.648 287.64,263.632 C288.008002,263.616 288.24,263.799998 288.336,264.184 C288.432,264.376001 288.184003,264.887996 287.592,265.72 C286.999997,266.552004 286.592001,266.968 286.368,266.968 C286.304,266.968 286.192001,267.063999 286.032,267.256 C285.231996,268.120004 284.640002,268.552 284.256,268.552 Z M303.36,257.704 C303.039998,257.159997 302.376005,256.92 301.368,256.984 C300.359995,257.048 299.184007,257.447996 297.84,258.184 C297.007996,258.504002 296.416002,259.031996 296.064,259.768 C294.943994,262.040011 294.432,263.447997 294.528,263.992 C294.688001,264.408002 295.631991,264.272003 297.36,263.584 C299.088009,262.895997 300.447995,262.136004 301.44,261.304 C303.200009,259.28799 303.840002,258.088002 303.36,257.704 Z M287.472,280.864 C287.119998,280.431998 286.944,280.024002 286.944,279.64 C286.944,279.255998 287.263997,277.728013 287.904,275.056 C288.544003,272.383987 289.015998,270.624004 289.32,269.776 C289.624002,268.927996 289.871999,268.264002 290.064,267.784 C290.608003,266.407993 291.055998,265.128006 291.408,263.944 C291.760002,262.759994 292.383996,261.064011 293.28,258.856 C294.112004,256.80799 295.023995,254.424014 296.016,251.704 C296.240001,251.127997 296.631997,250.760001 297.192,250.6 C297.752003,250.439999 298.239998,250.679997 298.656,251.32 C298.880001,251.704002 298.736003,252.519994 298.224,253.768 L297.888,254.728 L299.616,254.344 C302.336014,254.344 303.887998,254.487999 304.272,254.776 C304.656002,255.064001 304.991999,255.447998 305.28,255.928 C305.824003,256.504003 306.144,256.983998 306.24,257.368 C306.496001,258.424005 306.312003,259.607993 305.688,260.92 C305.063997,262.232007 304.256005,263.207997 303.264,263.848 L302.016,264.472 C301.952,264.728001 301.224007,265.135997 299.832,265.696 C298.439993,266.256003 297.264005,266.599999 296.304,266.728 C295.343995,266.856001 294.736001,266.840001 294.48,266.68 C293.871997,266.551999 293.568,266.583999 293.568,266.776 C292.767996,269.144012 292.112003,271.30399 291.6,273.256 C289.839991,278.536026 288.816001,281.351998 288.528,281.704 C288.175998,281.575999 287.824002,281.296002 287.472,280.864 Z" id="trailhead.camp" fill="#36383C"></path>
            <g id="Group-6">
                <path d="M7,210 L356.855534,208 C357.61612,209.583638 355.373456,210.482837 350.127543,210.697594 C342.258672,211.019731 228.306216,212.497194 181.927767,212.762323 C139.881702,213.002685 26.5723375,212.762323 16.7861688,212.762323 C10.2620563,212.762323 7,211.841549 7,210 Z" id="Path-3" fill="#36383C"></path>
                <g id="Hut" transform="translate(157.000000, 166.000000)" stroke-width="2" stroke="#36383C">
                    <polygon id="Path-4" points="0.416666667 17.25 2.5 18.5 24.5833333 5.16666667 47.9166667 18.5 49.5833333 17.25 24.5833333 1.41666667"></polygon>
                    <polyline id="Path-5" points="29.5833333 4.66666667 29.5833333 0.0833333333 34.1666667 0.0833333333 34.1666667 7.58333333"></polyline>
                    <path d="M5.97222222,16.4166667 C5.69444444,34.75 5.83333333,44.0555556 6.38888889,44.3333333 C6.81504334,44.5464106 15.4529855,44.8056124 24.7222222,44.75 C33.5787235,44.6968639 43.8888889,44.1023894 43.8888889,43.5 C43.8888889,39.8888889 43.8888889,30.8611111 43.8888889,16.4166667 C37.3616071,15.5833333 30.9727182,15.1666667 24.7222222,15.1666667 C18.4717262,15.1666667 12.2217262,15.5833333 5.97222222,16.4166667 Z" id="Path-7"></path>
                    <path d="M19.5833333,35.1979712 C15.0460349,35.253252 10.5089979,35.3817485 5.97222222,35.5834605 C5.69444444,41.6964363 5.83333333,44.7992346 6.38888889,44.8918555 C6.81504334,44.9629029 15.4529855,45.0493299 24.7222222,45.0307868 C33.5787235,45.0130693 43.8888889,44.8148507 43.8888889,44.6139929 C43.8888889,43.409922 43.8888889,40.3997445 43.8888889,35.5834605 C39.0441282,35.3772219 34.2756094,35.2475218 29.5833325,35.1943601 L29.5833333,44.75 L19.5833333,44.75 L19.5833333,35.1979712 Z" id="Combined-Shape"></path>
                    <path d="M19.5833333,25.375 C21.8236592,25.375 23.4903258,25.375 24.5833333,25.375 C25.6763408,25.375 27.3430075,25.375 29.5833333,25.375 L29.5833333,44.5416667 L19.5833333,44.5416667 L19.5833333,25.375 Z" id="Path-8"></path>
                    <path d="M5.97222222,26.0002543 C5.69444444,38.2262059 5.83333333,44.4318026 6.38888889,44.6170443 C6.81504334,44.7591391 15.4529855,44.9319931 24.7222222,44.8949068 C33.5787235,44.859472 43.8888889,44.4630347 43.8888889,44.0613192 C43.8888889,41.6531772 43.8888889,35.6328223 43.8888889,26.0002543 C37.3616071,25.4445292 30.9727182,25.1666667 24.7222222,25.1666667 C18.4717262,25.1666667 12.2217262,25.4445292 5.97222222,26.0002543 Z" id="Path-7"></path>
                </g>
                <path d="M74,162.5 C103.720366,135.265845 119.5537,121.432511 121.5,121 C124.5,120.333333 140.333333,138.5 169,175.5 L167,177 C150.666667,156.333333 141.833333,145.166667 140.5,143.5 C140.149758,143.062198 137.378918,151.931548 138.502464,157 C139.5,161.5 141.123255,163.565117 140.5,164.5 C139.5,166 140,166.5 139.5,166.5 C138.73348,166.30837 136.560966,158.482543 136.5,154 C136.401893,146.786709 138.744264,141.628496 138.502464,141.344026 C124.990852,125.448009 123.323364,126 121.5,126 C121.473627,126 117,144.5 117,146 C117,146.771358 119.748266,147.463087 122,151 C124.12704,154.341051 124.5,157.5 125,159.5 C125.247327,160.489308 125,161.5 124.5,161.5 C124,161.5 123.221646,155.831716 121,152 C118.831338,148.259665 116.462364,147.839763 116.444742,148 C115.944016,152.553062 115.944742,163 116.5,165 C117.055258,167 115.529105,167.981367 115.5,168 C115.275243,168.14389 114.427843,155.670837 115.5,144.5 C116.358617,135.554043 119.207485,127.395146 118.944742,127.578058 C113.059277,131.675304 98.8318591,142.668141 94,147.5 C97.5,155 98.9632752,166.57345 98.5,167.5 C98,168.5 96.9600444,169.499445 97,169 C98,156.5 92.766879,148.305461 92,148.99115 C88.4141266,152.197388 82.4141266,157.867005 74,166 L74,162.5 Z" id="Path-9" fill="#36383C"></path>
                <path d="M195,162.5 C224.720366,135.265845 240.5537,121.432511 242.5,121 C245.5,120.333333 261.333333,138.5 290,175.5 L288,177 C271.666667,156.333333 262.833333,145.166667 261.5,143.5 C261.149758,143.062198 258.378918,151.931548 259.502464,157 C260.5,161.5 262.123255,163.565117 261.5,164.5 C260.5,166 261,166.5 260.5,166.5 C259.73348,166.30837 257.560966,158.482543 257.5,154 C257.401893,146.786709 259.744264,141.628496 259.502464,141.344026 C245.990852,125.448009 244.323364,126 242.5,126 C242.473627,126 238,144.5 238,146 C238,146.771358 240.748266,147.463087 243,151 C245.12704,154.341051 245.5,157.5 246,159.5 C246.247327,160.489308 246,161.5 245.5,161.5 C245,161.5 244.221646,155.831716 242,152 C239.831338,148.259665 237.462364,147.839763 237.444742,148 C236.944016,152.553062 236.944742,163 237.5,165 C238.055258,167 236.529105,167.981367 236.5,168 C236.275243,168.14389 235.427843,155.670837 236.5,144.5 C237.358617,135.554043 240.207485,127.395146 239.944742,127.578058 C234.059277,131.675304 219.831859,142.668141 215,147.5 C218.5,155 219.963275,166.57345 219.5,167.5 C219,168.5 217.960044,169.499445 218,169 C219,156.5 213.766879,148.305461 213,148.99115 C209.414127,152.197388 203.414127,157.867005 195,166 L195,162.5 Z" id="Path-9" fill="#36383C" transform="translate(242.500000, 148.991150) scale(-1, 1) translate(-242.500000, -148.991150) "></path>
                <path d="" id="Path-10" stroke="#979797"></path>
                <path d="M145.5,147 C156.984654,135.333333 168.984654,129.5 181.5,129.5 C194.015346,129.5 206.848679,135.333333 220,147 L218,149 C205.302323,138 193.135656,132.5 181.5,132.5 C169.864344,132.5 158.531011,138 147.5,149 L145.5,147 Z" id="Path-6" fill="#36383C"></path>
                <path d="M113.55201,15.5490693 L113.55201,15.5490693 L113.55201,15.5490693 C114.110166,15.5490693 114.568229,15.9907832 114.588505,16.5485705 C115.230847,34.2182797 115.55201,47.6231891 115.55201,56.7632981 C115.55201,65.9034071 115.230847,79.3083165 114.58852,96.9780263 L114.588505,96.9780258 C114.568229,97.535813 114.110166,97.9775269 113.55201,97.9775269 L113.55201,97.9775269 L113.55201,97.9775269 C112.993961,97.9775269 112.536073,97.5357254 112.516123,96.9780325 C111.873372,79.0107725 111.55201,65.6058607 111.55201,56.7632981 C111.55201,47.9207355 111.873372,34.5158237 112.516095,16.5485627 L112.516123,16.5485637 C112.536073,15.9908708 112.993961,15.5490693 113.55201,15.5490693 Z" id="original_Path-11_21392532" fill="#36383C" transform="translate(113.552010, 56.763298) rotate(336.000000) translate(-113.552010, -56.763298) "></path>
                <path d="M139.612053,100.080388 L139.612053,100.080388 L139.612053,100.080388 C140.180009,100.080388 140.655102,100.511713 140.709823,101.077027 C141.311318,107.290645 141.612053,112.030007 141.612053,115.295112 C141.612053,118.560217 141.311318,123.29958 140.709848,129.5132 L140.709823,129.513197 C140.655102,130.078512 140.180009,130.509836 139.612053,130.509836 L139.612053,130.509836 L139.612053,130.509836 C139.044339,130.509836 138.569656,130.078265 138.515764,129.513115 C137.913298,123.194963 137.612053,118.455629 137.612053,115.295112 C137.612053,112.134595 137.913298,107.395262 138.515788,101.077112 L138.515764,101.07711 C138.569656,100.511959 139.044339,100.080388 139.612053,100.080388 Z" id="original_Path-11_21392532" fill="#36383C" transform="translate(139.612053, 115.295112) rotate(336.000000) translate(-139.612053, -115.295112) "></path>
                <path d="M250.535777,16.0677292 L250.535777,16.0677292 L250.535777,16.0677292 C251.094036,16.0677292 251.55228,16.5093366 251.572915,17.0672141 C252.214828,34.4214532 252.535777,47.5877565 252.535777,56.5661237 C252.535777,65.5444909 252.214828,78.7107943 251.572928,96.0650338 L251.572915,96.0650333 C251.55228,96.6229108 251.094036,97.0645182 250.535777,97.0645182 L250.535777,97.0645182 L250.535777,97.0645182 C249.977614,97.0645182 249.519539,96.6228123 249.499236,96.0650187 C248.856928,78.4185525 248.535777,65.2522541 248.535777,56.5661237 C248.535777,47.8799933 248.856928,34.7136949 249.49923,17.0672285 L249.499236,17.0672287 C249.519539,16.5094351 249.977614,16.0677292 250.535777,16.0677292 Z" id="original_Path-11_21392532" fill="#36383C" transform="translate(250.535777, 56.566124) rotate(204.000000) translate(-250.535777, -56.566124) "></path>
                <path d="M224.779663,97.737511 L224.779663,97.737511 L224.779663,97.737511 C225.346283,97.737511 225.819066,98.1702909 225.869029,98.7347041 C226.47612,105.592685 226.779663,110.819551 226.779663,114.415305 C226.779663,118.011058 226.47612,123.237925 225.869033,130.095905 L225.869029,130.095905 C225.819066,130.660318 225.346283,131.093098 224.779663,131.093098 L224.779663,131.093098 L224.779663,131.093098 C224.213286,131.093098 223.740899,130.660107 223.691702,130.095871 C223.083676,123.122476 222.779663,117.895621 222.779663,114.415305 C222.779663,110.934988 223.083676,105.708133 223.691702,98.7347381 L223.691702,98.734738 C223.740899,98.170502 224.213286,97.737511 224.779663,97.737511 Z" id="original_Path-11_21392532" fill="#36383C" transform="translate(224.779663, 114.415305) rotate(204.000000) translate(-224.779663, -114.415305) "></path>
                <path d="M208.820274,43.8221354 L208.820274,43.8221354 L208.820274,43.8221354 C209.378533,43.8221354 209.836777,44.2637428 209.857412,44.8216203 C210.499325,62.1758593 210.820274,75.3421627 210.820274,84.3205299 C210.820274,93.2988971 210.499325,106.4652 209.857425,123.81944 L209.857412,123.81944 C209.836777,124.377317 209.378533,124.818924 208.820274,124.818924 L208.820274,124.818924 L208.820274,124.818924 C208.262111,124.818924 207.804036,124.377218 207.783733,123.819425 C207.141425,106.172959 206.820274,93.0066603 206.820274,84.3205299 C206.820274,75.6343995 207.141425,62.4681011 207.783727,44.8216347 L207.783733,44.8216349 C207.804036,44.2638413 208.262111,43.8221354 208.820274,43.8221354 Z" id="original_Path-11_21392532" fill="#36383C" transform="translate(208.820274, 84.320530) rotate(192.000000) translate(-208.820274, -84.320530) "></path>
                <path d="M221.996955,5.70384936 L221.996955,5.70384936 L221.996955,5.70384936 C222.563622,5.70384936 223.036484,6.13658375 223.086604,6.70103025 C223.693504,13.5358752 223.996955,18.7452389 223.996955,22.3291216 C223.996955,25.9130042 223.693504,31.1223679 223.086603,37.9572128 L223.086604,37.9572129 C223.036484,38.5216594 222.563622,38.9543938 221.996955,38.9543938 L221.996955,38.9543938 L221.996955,38.9543938 C221.430527,38.9543938 220.958058,38.5214438 220.908706,37.9571699 C220.300876,31.0073048 219.996955,25.7979558 219.996955,22.3291216 C219.996955,18.8602874 220.300876,13.6509383 220.90872,6.70107443 L220.908706,6.70107322 C220.958058,6.13679927 221.430527,5.70384936 221.996955,5.70384936 Z" id="original_Path-11_21392532" fill="#36383C" transform="translate(221.996955, 22.329122) rotate(192.000000) translate(-221.996955, -22.329122) "></path>
                <path d="M182,62 L182,62 L182,62 C182.560321,62 183.022178,62.4394472 183.050024,62.9990758 C183.683348,75.7268026 184,85.3937777 184,92 C184,98.6062223 183.683348,108.273197 183.050045,121.000925 L183.050024,121.000924 C183.022178,121.560553 182.560321,122 182,122 L182,122 L182,122 C181.43979,122 180.978142,121.560408 180.950738,121.000868 C180.31692,108.058858 180,98.3919022 180,92 C180,85.6080978 180.31692,75.941142 180.95076,62.9991328 L180.950738,62.9991317 C180.978142,62.4395924 181.43979,62 182,62 Z" id="original_Path-11_21392532" fill="#36383C" transform="translate(182.000000, 92.000000) rotate(180.000000) translate(-182.000000, -92.000000) "></path>
                <path d="M182,1.5 L182,1.5 L182,1.5 C182.561339,1.5 183.024974,1.93837512 183.05639,2.49883464 C183.685471,13.7215275 184,22.2501083 184,28.0845758 C184,33.9190434 183.685471,42.4476242 183.056413,53.6703183 L183.05639,53.670317 C183.024974,54.2307766 182.561339,54.6691517 182,54.6691517 L182,54.6691517 L182,54.6691517 C181.43879,54.6691517 180.975392,54.2306177 180.944473,53.6702602 C180.314831,42.2586348 180,33.7300737 180,28.0845758 C180,22.439078 180.314831,13.9105169 180.944492,2.49889249 L180.944473,2.49889146 C180.975392,1.938534 181.43879,1.5 182,1.5 Z" id="original_Path-11_21392532" fill="#36383C" transform="translate(182.000000, 28.084576) rotate(180.000000) translate(-182.000000, -28.084576) "></path>
                <path d="M157.161164,62.6742653 L157.161164,62.6742653 L157.161164,62.6742653 C157.721247,62.6742653 158.182678,63.1139809 158.209655,63.6734132 C158.843996,76.8277896 159.161164,86.8174739 159.161164,93.6424661 C159.161164,100.467458 158.843996,110.457143 158.209658,123.611519 L158.209655,123.611519 C158.182678,124.170951 157.721247,124.610667 157.161164,124.610667 L157.161164,124.610667 L157.161164,124.610667 C156.601217,124.610667 156.140011,124.170832 156.113464,123.611514 C155.478594,110.235643 155.161164,100.245961 155.161164,93.6424661 C155.161164,87.0389715 155.478594,77.0492888 156.113454,63.6734179 L156.113464,63.6734183 C156.140011,63.1141004 156.601217,62.6742653 157.161164,62.6742653 Z" id="original_Path-11_21392532" fill="#36383C" transform="translate(157.161164, 93.642466) rotate(168.000000) translate(-157.161164, -93.642466) "></path>
                <path d="M143.646407,5.53112504 L143.646407,5.53112504 L143.646407,5.53112504 C144.208529,5.53112504 144.673496,5.96873765 144.707538,6.52982778 C145.333438,16.8469083 145.646407,24.6904758 145.646407,30.0605324 C145.646407,35.430589 145.333438,43.2741565 144.7075,53.5912347 L144.707538,53.591237 C144.673496,54.1523271 144.208529,54.5899397 143.646407,54.5899397 L143.646407,54.5899397 L143.646407,54.5899397 C143.084496,54.5899397 142.619843,54.1522113 142.586341,53.5913002 C141.959705,43.1004851 141.646407,35.256895 141.646407,30.0605324 C141.646407,24.8641698 141.959705,17.0205796 142.586299,6.52976205 L142.586341,6.52976456 C142.619843,5.96885343 143.084496,5.53112504 143.646407,5.53112504 Z" id="original_Path-11_21392532" fill="#36383C" transform="translate(143.646407, 30.060532) rotate(168.000000) translate(-143.646407, -30.060532) "></path>
                <path d="M77.2021772,35.5508767 L77.2021772,35.5508767 L77.2021772,35.5508767 C77.7623135,35.5508767 78.2238491,35.9905147 78.2510546,36.5499899 C78.8851444,49.5894017 79.2021772,59.4921293 79.2021772,66.2581714 C79.2021772,73.0242135 78.8851444,82.926941 78.2510789,95.966354 L78.2510546,95.9663529 C78.2238491,96.5258281 77.7623135,96.965466 77.2021772,96.965466 L77.2021772,96.965466 L77.2021772,96.965466 C76.6421693,96.965466 76.180854,96.5257018 76.1540819,95.9663342 C75.519473,82.7073711 75.2021772,72.8046499 75.2021772,66.2581714 C75.2021772,59.7116929 75.519473,49.8089716 76.1540646,36.5500078 L76.1540819,36.5500086 C76.180854,35.990641 76.6421693,35.5508767 77.2021772,35.5508767 Z" id="original_Path-11_21392532" fill="#36383C" transform="translate(77.202177, 66.258171) rotate(144.000000) translate(-77.202177, -66.258171) "></path>
                <path d="M107.644314,93.4453631 L107.644314,93.4453631 L107.644314,93.4453631 C108.212814,93.4453631 108.68882,93.8761412 108.745391,94.4418188 C109.34467,100.434394 109.644314,105.006514 109.644314,108.158179 C109.644314,111.309843 109.34467,115.881963 108.745381,121.874537 L108.745391,121.874538 C108.68882,122.440216 108.212814,122.870994 107.644314,122.870994 L107.644314,122.870994 L107.644314,122.870994 C107.076096,122.870994 106.600538,122.439986 106.544824,121.874506 C105.944487,115.781099 105.644314,111.20899 105.644314,108.158179 C105.644314,105.107367 105.944487,100.535258 106.544832,94.4418514 L106.544824,94.4418506 C106.600538,93.8763707 107.076096,93.4453631 107.644314,93.4453631 Z" id="original_Path-11_21392532" fill="#36383C" transform="translate(107.644314, 108.158179) rotate(144.000000) translate(-107.644314, -108.158179) "></path>
                <path d="M74.1583991,85.3901369 L74.1583991,85.3901369 L74.1583991,85.3901369 C74.7193044,85.3901369 75.1821633,85.8290071 75.2119857,86.389119 C75.8429233,98.2394031 76.1583991,107.242692 76.1583991,113.398986 C76.1583991,119.555281 75.8429233,128.55857 75.2119716,140.408853 L75.2119857,140.408854 C75.1821633,140.968966 74.7193044,141.407836 74.1583991,141.407836 L74.1583991,141.407836 L74.1583991,141.407836 C73.5976392,141.407836 73.1350245,140.968832 73.1056755,140.408841 C72.4741625,128.359032 72.1583991,119.355748 72.1583991,113.398986 C72.1583991,107.442225 72.4741625,98.4389409 73.1056893,86.3891331 L73.1056755,86.3891323 C73.1350245,85.829141 73.5976392,85.3901369 74.1583991,85.3901369 Z" id="original_Path-11_21392532" fill="#36383C" transform="translate(74.158399, 113.398986) rotate(132.000000) translate(-74.158399, -113.398986) "></path>
                <path d="M37.6164841,65.783683 L37.6164841,65.783683 L37.6164841,65.783683 C38.1849834,65.783683 38.6609903,66.214461 38.717561,66.7801387 C39.3168396,72.772714 39.6164841,77.3448335 39.6164841,80.4964984 C39.6164841,83.6481632 39.3168396,88.2202827 38.7175505,94.212857 L38.717561,94.212858 C38.6609903,94.7785357 38.1849834,95.2093137 37.6164841,95.2093137 L37.6164841,95.2093137 L37.6164841,95.2093137 C37.0482663,95.2093137 36.5727074,94.7783062 36.5169942,94.2128263 C35.9166567,88.1194185 35.6164841,83.5473095 35.6164841,80.4964984 C35.6164841,77.4456872 35.9166567,72.8735782 36.5170019,66.7801712 L36.5169942,66.7801704 C36.5727074,66.2146905 37.0482663,65.783683 37.6164841,65.783683 Z" id="original_Path-11_21392532" fill="#36383C" transform="translate(37.616484, 80.496498) rotate(132.000000) translate(-37.616484, -80.496498) "></path>
                <path d="M21.3187531,94.2693612 L21.3187531,94.2693612 L21.3187531,94.2693612 C21.8812886,94.2693612 22.3469998,94.7064883 22.3825841,95.2678973 C23.0066995,105.114358 23.3187531,112.601939 23.3187531,117.730639 C23.3187531,122.859339 23.0066995,130.346919 22.3825925,140.193381 L22.3825841,140.19338 C22.3469998,140.754789 21.8812886,141.191916 21.3187531,141.191916 L21.3187531,141.191916 L21.3187531,141.191916 C20.7563849,141.191916 20.2909575,140.754628 20.2559324,140.193351 C19.6311471,130.181127 19.3187531,122.693556 19.3187531,117.730639 C19.3187531,112.767722 19.6311471,105.280151 20.2559351,95.2679266 L20.2559324,95.2679265 C20.2909575,94.7066501 20.7563849,94.2693612 21.3187531,94.2693612 Z" id="original_Path-11_21392532" fill="#36383C" transform="translate(21.318753, 117.730639) rotate(120.000000) translate(-21.318753, -117.730639) "></path>
                <path d="M61.4485606,123.669027 L61.4485606,123.669027 L61.4485606,123.669027 C62.0147252,123.669027 62.4867269,124.102286 62.5350992,124.66638 C63.1440776,131.767844 63.4485606,137.178916 63.4485606,140.899594 C63.4485606,144.620272 63.1440776,150.031344 62.5351118,157.132809 L62.5350992,157.132808 C62.4867269,157.696902 62.0147252,158.130161 61.4485606,158.130161 L61.4485606,158.130161 L61.4485606,158.130161 C60.8826149,158.130161 60.4109835,157.696684 60.3633538,157.132746 C59.7534985,149.911778 59.4485606,144.500728 59.4485606,140.899594 C59.4485606,137.29846 59.7534985,131.88741 60.3633743,124.666444 L60.3633538,124.666442 C60.4109835,124.102504 60.8826149,123.669027 61.4485606,123.669027 Z" id="original_Path-11_21392532" fill="#36383C" transform="translate(61.448561, 140.899594) rotate(120.000000) translate(-61.448561, -140.899594) "></path>
                <path d="M293.609024,136.3125 L293.609024,136.3125 L293.609024,136.3125 C294.185507,136.3125 294.67506,136.734659 294.759824,137.304877 C295.325958,141.113322 295.609024,144.03253 295.609024,146.0625 C295.609024,148.09247 295.325958,151.011678 294.759825,154.820123 L294.759824,154.820123 C294.67506,155.390341 294.185507,155.8125 293.609024,155.8125 L293.609024,155.8125 L293.609024,155.8125 C293.032969,155.8125 292.544061,155.390037 292.460511,154.820073 C291.892854,150.947621 291.609024,148.028431 291.609024,146.0625 C291.609024,144.096569 291.892854,141.177379 292.460516,137.304928 L292.460511,137.304927 C292.544061,136.734963 293.032969,136.3125 293.609024,136.3125 Z" id="original_Path-11_21392532" fill="#36383C" transform="translate(293.609024, 146.062500) rotate(60.000000) translate(-293.609024, -146.062500) "></path>
                <path d="M333.948194,88.7273305 L333.948194,88.7273305 L333.948194,88.7273305 C334.507588,88.7273305 334.967808,89.1677825 334.99235,89.7266386 C335.629575,104.23704 335.948194,115.252383 335.948194,122.77267 C335.948194,130.292956 335.629575,141.3083 334.992337,155.8187 L334.99235,155.8187 C334.967808,156.377557 334.507588,156.818009 333.948194,156.818009 L333.948194,156.818009 L333.948194,156.818009 C333.388936,156.818009 332.928934,156.377459 332.904785,155.818723 C332.267051,141.063975 331.948194,130.048623 331.948194,122.77267 C331.948194,115.496716 332.267051,104.481364 332.904766,89.7266152 L332.904785,89.726616 C332.928934,89.1678802 333.388936,88.7273305 333.948194,88.7273305 Z" id="original_Path-11_21392532" fill="#36383C" transform="translate(333.948194, 122.772670) rotate(60.000000) translate(-333.948194, -122.772670) "></path>
                <path d="M322.44187,63.5287491 L322.44187,63.5287491 L322.44187,63.5287491 C323.00587,63.5287491 323.474107,63.9643566 323.514777,64.5268883 C324.132831,73.0760259 324.44187,79.5822533 324.44187,84.0455724 C324.44187,88.5088915 324.132831,95.015119 323.514752,103.564255 L323.514777,103.564257 C323.474107,104.126788 323.00587,104.562396 322.44187,104.562396 L322.44187,104.562396 L322.44187,104.562396 C321.878074,104.562396 321.410168,104.126616 321.370133,103.564243 C320.751296,94.8711893 320.44187,88.3649662 320.44187,84.0455724 C320.44187,79.7261786 320.751296,73.2199555 321.370149,64.5269031 L321.370133,64.526902 C321.410168,63.9645292 321.878074,63.5287491 322.44187,63.5287491 Z" id="original_Path-11_21392532" fill="#36383C" transform="translate(322.441870, 84.045572) rotate(48.000000) translate(-322.441870, -84.045572) "></path>
                <path d="M285.567036,94.2478219 L285.567036,94.2478219 L285.567036,94.2478219 C286.129792,94.2478219 286.595871,94.6847491 286.632167,95.2463338 C287.255405,104.889535 287.567036,112.223364 287.567036,117.247822 C287.567036,122.27228 287.255405,129.606109 286.632143,139.249308 L286.632167,139.24931 C286.595871,139.810895 286.129792,140.247822 285.567036,140.247822 L285.567036,140.247822 L285.567036,140.247822 C285.004474,140.247822 284.538705,139.810749 284.502979,139.249322 C283.879015,129.443762 283.567036,122.109928 283.567036,117.247822 C283.567036,112.385715 283.879015,105.051882 284.502973,95.2463212 L284.502979,95.2463216 C284.538705,94.6848953 285.004474,94.2478219 285.567036,94.2478219 Z" id="original_Path-11_21392532" fill="#36383C" transform="translate(285.567036, 117.247822) rotate(48.000000) translate(-285.567036, -117.247822) "></path>
                <path d="M270.319324,52.4923588 L270.319324,52.4923588 L270.319324,52.4923588 C270.878241,52.4923588 271.337639,52.9332826 271.360566,53.49173 C271.999742,69.0603178 272.319324,80.8760345 272.319324,88.9388797 C272.319324,97.0017249 271.999742,108.817442 271.360578,124.38603 L271.360566,124.386029 C271.337639,124.944477 270.878241,125.385401 270.319324,125.385401 L270.319324,125.385401 L270.319324,125.385401 C269.760517,125.385401 269.301309,124.944371 269.27875,124.38602 C268.639129,108.555278 268.319324,96.7395639 268.319324,88.9388797 C268.319324,81.1381955 268.639129,69.3224819 269.278739,53.4917389 L269.27875,53.4917393 C269.301309,52.9333881 269.760517,52.4923588 270.319324,52.4923588 Z" id="original_Path-11_21392532" fill="#36383C" transform="translate(270.319324, 88.938880) rotate(36.000000) translate(-270.319324, -88.938880) "></path>
                <path d="M299.410104,39.1488554 L299.410104,39.1488554 L299.410104,39.1488554 C299.986587,39.1488554 300.47614,39.5710147 300.560904,40.1412322 C301.127038,43.9496774 301.410104,46.8688852 301.410104,48.8988554 C301.410104,50.9288255 301.127038,53.8480333 300.560906,57.6564787 L300.560904,57.6564785 C300.47614,58.2266961 299.986587,58.6488554 299.410104,58.6488554 L299.410104,58.6488554 L299.410104,58.6488554 C298.834049,58.6488554 298.345142,58.2263919 298.261591,57.6564279 C297.693935,53.7839768 297.410104,50.8647862 297.410104,48.8988554 C297.410104,46.9329245 297.693935,44.013734 298.261596,40.1412836 L298.261591,40.1412828 C298.345142,39.5713188 298.834049,39.1488554 299.410104,39.1488554 Z" id="original_Path-11_21392532" fill="#36383C" transform="translate(299.410104, 48.898855) rotate(36.000000) translate(-299.410104, -48.898855) "></path>
                <g id="Group-5" transform="translate(20.000000, 159.000000)" fill="#36383C">
                    <path d="M9.29787234,51.3829787 L9.59532574,34.5768618 C8.39071802,35.8071757 7.14972291,36.6787182 5.87234043,37.1914894 C0.02004336,39.5407379 1.41190251e-14,38.6617599 0,38.1702128 C-1.30188413e-14,37.707717 0.674668033,38.3328229 5.87234043,35.7234043 C7.29575896,35.0087969 8.55336899,33.6878729 9.64517051,31.7606322 L9.78117638,24.0763005 C8.48025028,25.3162136 7.17730496,26.2624113 5.87234043,26.9148936 C3.91489362,27.893617 1.46808511,27.893617 1.46808511,27.4042553 C1.46808511,26.9148936 3.20680146,27.2727613 5.87234043,25.4468085 C6.59803512,24.9496917 7.90098044,23.6447271 9.78117638,21.5319149 L9.94931715,12.8955024 C8.24198095,14.1077549 7.04610928,14.8659917 6.36170213,15.1702128 C3.44435918,16.4669806 1.95297921,16.3784105 1.95744681,16.1489362 C1.96192009,15.9191698 3.42401732,15.665399 6.36170213,13.7021277 C7.04751629,13.2437942 8.25907649,12.169091 9.99638272,10.4780181 L10.1826673,0.652365036 L10.1826673,0.652365036 C10.1895356,0.29009059 10.4851782,-8.98905806e-16 10.8475177,0 L10.8475177,0 L10.8475177,0 C11.2126708,9.0588578e-16 11.5133345,0.287019582 11.5302808,0.651779248 L11.8191121,6.86874187 C13.1171071,9.01023692 14.0710201,10.3093088 14.6808511,10.7659574 C17.7452605,13.0606236 19.5708705,12.7321911 19.5744681,12.8955024 C19.5781946,13.0646671 17.9516829,13.9160507 14.6808511,12.2340426 C14.1279154,11.9496983 13.1908869,10.9277311 11.8697654,9.16814085 L12.139256,21.4016278 C13.6108518,22.7581187 14.7526958,23.7368421 15.5647879,24.337798 C19.6210369,27.339461 22.4073058,27.4736229 22.4158517,27.7633299 C22.4244048,28.0532817 20.3446282,28.1406065 16.3186593,26.3928219 C15.5155757,26.0441811 14.1540368,25.1579213 12.2340426,23.7340426 L12.6119656,31.0158483 C14.6437049,33.8279778 16.4751773,35.7234043 18.106383,36.7021277 C20.5531915,38.1702128 23,38.1702128 23,38.6595745 C23,39.1489362 21.0425532,39.1489362 18.106383,38.1702128 C16.1489362,37.5177305 14.3488052,36.1954199 12.7059902,34.2032811 L13.212766,51.3829787 L9.29787234,51.3829787 Z" id="Path-11"></path>
                    <path d="M66.2978723,51.3829787 L66.5953257,34.5768618 C65.390718,35.8071757 64.1497229,36.6787182 62.8723404,37.1914894 C57.0200434,39.5407379 57,38.6617599 57,38.1702128 C57,37.707717 57.674668,38.3328229 62.8723404,35.7234043 C64.295759,35.0087969 65.553369,33.6878729 66.6451705,31.7606322 L66.7811764,24.0763005 C65.4802503,25.3162136 64.177305,26.2624113 62.8723404,26.9148936 C60.9148936,27.893617 58.4680851,27.893617 58.4680851,27.4042553 C58.4680851,26.9148936 60.2068015,27.2727613 62.8723404,25.4468085 C63.5980351,24.9496917 64.9009804,23.6447271 66.7811764,21.5319149 L66.9493172,12.8955024 C65.241981,14.1077549 64.0461093,14.8659917 63.3617021,15.1702128 C60.4443592,16.4669806 58.9529792,16.3784105 58.9574468,16.1489362 C58.9619201,15.9191698 60.4240173,15.665399 63.3617021,13.7021277 C64.0475163,13.2437942 65.2590765,12.169091 66.9963827,10.4780181 L67.1826673,0.652365036 L67.1826673,0.652365036 C67.1895356,0.29009059 67.4851782,6.65606952e-17 67.8475177,0 L67.8475177,0 L67.8475177,0 C68.2126708,9.0588578e-16 68.5133345,0.287019582 68.5302808,0.651779248 L68.8191121,6.86874187 C70.1171071,9.01023692 71.0710201,10.3093088 71.6808511,10.7659574 C74.7452605,13.0606236 76.5708705,12.7321911 76.5744681,12.8955024 C76.5781946,13.0646671 74.9516829,13.9160507 71.6808511,12.2340426 C71.1279154,11.9496983 70.1908869,10.9277311 68.8697654,9.16814085 L69.139256,21.4016278 C70.6108518,22.7581187 71.7526958,23.7368421 72.5647879,24.337798 C76.6210369,27.339461 79.4073058,27.4736229 79.4158517,27.7633299 C79.4244048,28.0532817 77.3446282,28.1406065 73.3186593,26.3928219 C72.5155757,26.0441811 71.1540368,25.1579213 69.2340426,23.7340426 L69.6119656,31.0158483 C71.6437049,33.8279778 73.4751773,35.7234043 75.106383,36.7021277 C77.5531915,38.1702128 80,38.1702128 80,38.6595745 C80,39.1489362 78.0425532,39.1489362 75.106383,38.1702128 C73.1489362,37.5177305 71.3488052,36.1954199 69.7059902,34.2032811 L70.212766,51.3829787 L66.2978723,51.3829787 Z" id="Path-11"></path>
                    <path d="M38.2765957,51.212766 L38.5093854,38.0601527 C37.5666489,39.0230071 36.5954353,39.7050838 35.5957447,40.106383 C31.0156861,41.9449253 31,41.2570295 31,40.8723404 C31,40.5103872 31.5280011,40.9996006 35.5957447,38.9574468 C36.7097244,38.3981889 37.693941,37.3644223 38.5483943,35.856147 L38.6548337,29.8423221 C37.6367176,30.8126889 36.6170213,31.5531915 35.5957447,32.0638298 C34.0638298,32.8297872 32.1489362,32.8297872 32.1489362,32.4468085 C32.1489362,32.0638298 33.5096707,32.3439002 35.5957447,30.9148936 C36.1636797,30.5258457 37.183376,29.5045691 38.6548337,27.8510638 L38.7864221,21.0921323 C37.450246,22.0408517 36.5143464,22.6342544 35.9787234,22.8723404 C33.6955854,23.8872022 32.5284185,23.8178865 32.5319149,23.6382979 C32.5354157,23.4584807 33.6796657,23.2598774 35.9787234,21.7234043 C36.5154475,21.3647085 37.4636251,20.5236364 38.823256,19.2001881 L38.969044,11.5105465 L38.969044,11.5105465 C38.9744192,11.2270274 39.2057916,11 39.4893617,11 L39.4893617,11 L39.4893617,11 C39.7751337,11 40.0104357,11.224624 40.023698,11.5100881 L40.2497399,16.3755371 C41.2655621,18.0514898 42.0121027,19.0681547 42.4893617,19.4255319 C44.8875952,21.2213576 46.3163334,20.9643235 46.3191489,21.0921323 C46.3220653,21.2245221 45.0491432,21.8908223 42.4893617,20.5744681 C42.0566295,20.3519378 41.3233028,19.5521374 40.2893816,18.1750668 L40.5002873,27.7491 C41.651971,28.8107016 42.545588,29.576659 43.1811383,30.0469724 C46.3555941,32.3960999 48.5361523,32.5010962 48.5428405,32.7278234 C48.5495342,32.9547422 46.9218829,33.0230834 43.7711246,31.6552519 C43.1426245,31.3824026 42.0770723,30.688808 40.5744681,29.5744681 L40.870234,35.2732725 C42.4602908,37.4740696 43.893617,38.9574468 45.1702128,39.7234043 C47.0851064,40.8723404 49,40.8723404 49,41.2553191 C49,41.6382979 47.4680851,41.6382979 45.1702128,40.8723404 C43.6382979,40.3617021 42.2294998,39.3268504 40.9438184,37.7677852 L41.3404255,51.212766 L38.2765957,51.212766 Z" id="Path-11"></path>
                    <path d="M95.2765957,51.212766 L95.5093854,38.0601527 C94.5666489,39.0230071 93.5954353,39.7050838 92.5957447,40.106383 C88.0156861,41.9449253 88,41.2570295 88,40.8723404 C88,40.5103872 88.5280011,40.9996006 92.5957447,38.9574468 C93.7097244,38.3981889 94.693941,37.3644223 95.5483943,35.856147 L95.6548337,29.8423221 C94.6367176,30.8126889 93.6170213,31.5531915 92.5957447,32.0638298 C91.0638298,32.8297872 89.1489362,32.8297872 89.1489362,32.4468085 C89.1489362,32.0638298 90.5096707,32.3439002 92.5957447,30.9148936 C93.1636797,30.5258457 94.183376,29.5045691 95.6548337,27.8510638 L95.7864221,21.0921323 C94.450246,22.0408517 93.5143464,22.6342544 92.9787234,22.8723404 C90.6955854,23.8872022 89.5284185,23.8178865 89.5319149,23.6382979 C89.5354157,23.4584807 90.6796657,23.2598774 92.9787234,21.7234043 C93.5154475,21.3647085 94.4636251,20.5236364 95.823256,19.2001881 L95.969044,11.5105465 L95.969044,11.5105465 C95.9744192,11.2270274 96.2057916,11 96.4893617,11 L96.4893617,11 L96.4893617,11 C96.7751337,11 97.0104357,11.224624 97.023698,11.5100881 L97.2497399,16.3755371 C98.2655621,18.0514898 99.0121027,19.0681547 99.4893617,19.4255319 C101.887595,21.2213576 103.316333,20.9643235 103.319149,21.0921323 C103.322065,21.2245221 102.049143,21.8908223 99.4893617,20.5744681 C99.0566295,20.3519378 98.3233028,19.5521374 97.2893816,18.1750668 L97.5002873,27.7491 C98.651971,28.8107016 99.545588,29.576659 100.181138,30.0469724 C103.355594,32.3960999 105.536152,32.5010962 105.54284,32.7278234 C105.549534,32.9547422 103.921883,33.0230834 100.771125,31.6552519 C100.142624,31.3824026 99.0770723,30.688808 97.5744681,29.5744681 L97.870234,35.2732725 C99.4602908,37.4740696 100.893617,38.9574468 102.170213,39.7234043 C104.085106,40.8723404 106,40.8723404 106,41.2553191 C106,41.6382979 104.468085,41.6382979 102.170213,40.8723404 C100.638298,40.3617021 99.2294998,39.3268504 97.9438184,37.7677852 L98.3404255,51.212766 L95.2765957,51.212766 Z" id="Path-11"></path>
                </g>
                <g id="Group-5" transform="translate(291.000000, 185.000000) scale(-1, 1) translate(-291.000000, -185.000000) translate(238.000000, 159.000000)" fill="#36383C">
                    <path d="M9.29787234,51.3829787 L9.59532574,34.5768618 C8.39071802,35.8071757 7.14972291,36.6787182 5.87234043,37.1914894 C0.02004336,39.5407379 1.41190251e-14,38.6617599 0,38.1702128 C-1.30188413e-14,37.707717 0.674668033,38.3328229 5.87234043,35.7234043 C7.29575896,35.0087969 8.55336899,33.6878729 9.64517051,31.7606322 L9.78117638,24.0763005 C8.48025028,25.3162136 7.17730496,26.2624113 5.87234043,26.9148936 C3.91489362,27.893617 1.46808511,27.893617 1.46808511,27.4042553 C1.46808511,26.9148936 3.20680146,27.2727613 5.87234043,25.4468085 C6.59803512,24.9496917 7.90098044,23.6447271 9.78117638,21.5319149 L9.94931715,12.8955024 C8.24198095,14.1077549 7.04610928,14.8659917 6.36170213,15.1702128 C3.44435918,16.4669806 1.95297921,16.3784105 1.95744681,16.1489362 C1.96192009,15.9191698 3.42401732,15.665399 6.36170213,13.7021277 C7.04751629,13.2437942 8.25907649,12.169091 9.99638272,10.4780181 L10.1826673,0.652365036 L10.1826673,0.652365036 C10.1895356,0.29009059 10.4851782,6.65606952e-17 10.8475177,0 L10.8475177,0 L10.8475177,0 C11.2126708,9.0588578e-16 11.5133345,0.287019582 11.5302808,0.651779248 L11.8191121,6.86874187 C13.1171071,9.01023692 14.0710201,10.3093088 14.6808511,10.7659574 C17.7452605,13.0606236 19.5708705,12.7321911 19.5744681,12.8955024 C19.5781946,13.0646671 17.9516829,13.9160507 14.6808511,12.2340426 C14.1279154,11.9496983 13.1908869,10.9277311 11.8697654,9.16814085 L12.139256,21.4016278 C13.6108518,22.7581187 14.7526958,23.7368421 15.5647879,24.337798 C19.6210369,27.339461 22.4073058,27.4736229 22.4158517,27.7633299 C22.4244048,28.0532817 20.3446282,28.1406065 16.3186593,26.3928219 C15.5155757,26.0441811 14.1540368,25.1579213 12.2340426,23.7340426 L12.6119656,31.0158483 C14.6437049,33.8279778 16.4751773,35.7234043 18.106383,36.7021277 C20.5531915,38.1702128 23,38.1702128 23,38.6595745 C23,39.1489362 21.0425532,39.1489362 18.106383,38.1702128 C16.1489362,37.5177305 14.3488052,36.1954199 12.7059902,34.2032811 L13.212766,51.3829787 L9.29787234,51.3829787 Z" id="Path-11"></path>
                    <path d="M66.2978723,51.3829787 L66.5953257,34.5768618 C65.390718,35.8071757 64.1497229,36.6787182 62.8723404,37.1914894 C57.0200434,39.5407379 57,38.6617599 57,38.1702128 C57,37.707717 57.674668,38.3328229 62.8723404,35.7234043 C64.295759,35.0087969 65.553369,33.6878729 66.6451705,31.7606322 L66.7811764,24.0763005 C65.4802503,25.3162136 64.177305,26.2624113 62.8723404,26.9148936 C60.9148936,27.893617 58.4680851,27.893617 58.4680851,27.4042553 C58.4680851,26.9148936 60.2068015,27.2727613 62.8723404,25.4468085 C63.5980351,24.9496917 64.9009804,23.6447271 66.7811764,21.5319149 L66.9493172,12.8955024 C65.241981,14.1077549 64.0461093,14.8659917 63.3617021,15.1702128 C60.4443592,16.4669806 58.9529792,16.3784105 58.9574468,16.1489362 C58.9619201,15.9191698 60.4240173,15.665399 63.3617021,13.7021277 C64.0475163,13.2437942 65.2590765,12.169091 66.9963827,10.4780181 L67.1826673,0.652365036 L67.1826673,0.652365036 C67.1895356,0.29009059 67.4851782,6.65606952e-17 67.8475177,0 L67.8475177,0 L67.8475177,0 C68.2126708,9.0588578e-16 68.5133345,0.287019582 68.5302808,0.651779248 L68.8191121,6.86874187 C70.1171071,9.01023692 71.0710201,10.3093088 71.6808511,10.7659574 C74.7452605,13.0606236 76.5708705,12.7321911 76.5744681,12.8955024 C76.5781946,13.0646671 74.9516829,13.9160507 71.6808511,12.2340426 C71.1279154,11.9496983 70.1908869,10.9277311 68.8697654,9.16814085 L69.139256,21.4016278 C70.6108518,22.7581187 71.7526958,23.7368421 72.5647879,24.337798 C76.6210369,27.339461 79.4073058,27.4736229 79.4158517,27.7633299 C79.4244048,28.0532817 77.3446282,28.1406065 73.3186593,26.3928219 C72.5155757,26.0441811 71.1540368,25.1579213 69.2340426,23.7340426 L69.6119656,31.0158483 C71.6437049,33.8279778 73.4751773,35.7234043 75.106383,36.7021277 C77.5531915,38.1702128 80,38.1702128 80,38.6595745 C80,39.1489362 78.0425532,39.1489362 75.106383,38.1702128 C73.1489362,37.5177305 71.3488052,36.1954199 69.7059902,34.2032811 L70.212766,51.3829787 L66.2978723,51.3829787 Z" id="Path-11"></path>
                    <path d="M38.2765957,51.212766 L38.5093854,38.0601527 C37.5666489,39.0230071 36.5954353,39.7050838 35.5957447,40.106383 C31.0156861,41.9449253 31,41.2570295 31,40.8723404 C31,40.5103872 31.5280011,40.9996006 35.5957447,38.9574468 C36.7097244,38.3981889 37.693941,37.3644223 38.5483943,35.856147 L38.6548337,29.8423221 C37.6367176,30.8126889 36.6170213,31.5531915 35.5957447,32.0638298 C34.0638298,32.8297872 32.1489362,32.8297872 32.1489362,32.4468085 C32.1489362,32.0638298 33.5096707,32.3439002 35.5957447,30.9148936 C36.1636797,30.5258457 37.183376,29.5045691 38.6548337,27.8510638 L38.7864221,21.0921323 C37.450246,22.0408517 36.5143464,22.6342544 35.9787234,22.8723404 C33.6955854,23.8872022 32.5284185,23.8178865 32.5319149,23.6382979 C32.5354157,23.4584807 33.6796657,23.2598774 35.9787234,21.7234043 C36.5154475,21.3647085 37.4636251,20.5236364 38.823256,19.2001881 L38.969044,11.5105465 L38.969044,11.5105465 C38.9744192,11.2270274 39.2057916,11 39.4893617,11 L39.4893617,11 L39.4893617,11 C39.7751337,11 40.0104357,11.224624 40.023698,11.5100881 L40.2497399,16.3755371 C41.2655621,18.0514898 42.0121027,19.0681547 42.4893617,19.4255319 C44.8875952,21.2213576 46.3163334,20.9643235 46.3191489,21.0921323 C46.3220653,21.2245221 45.0491432,21.8908223 42.4893617,20.5744681 C42.0566295,20.3519378 41.3233028,19.5521374 40.2893816,18.1750668 L40.5002873,27.7491 C41.651971,28.8107016 42.545588,29.576659 43.1811383,30.0469724 C46.3555941,32.3960999 48.5361523,32.5010962 48.5428405,32.7278234 C48.5495342,32.9547422 46.9218829,33.0230834 43.7711246,31.6552519 C43.1426245,31.3824026 42.0770723,30.688808 40.5744681,29.5744681 L40.870234,35.2732725 C42.4602908,37.4740696 43.893617,38.9574468 45.1702128,39.7234043 C47.0851064,40.8723404 49,40.8723404 49,41.2553191 C49,41.6382979 47.4680851,41.6382979 45.1702128,40.8723404 C43.6382979,40.3617021 42.2294998,39.3268504 40.9438184,37.7677852 L41.3404255,51.212766 L38.2765957,51.212766 Z" id="Path-11"></path>
                    <path d="M95.2765957,51.212766 L95.5093854,38.0601527 C94.5666489,39.0230071 93.5954353,39.7050838 92.5957447,40.106383 C88.0156861,41.9449253 88,41.2570295 88,40.8723404 C88,40.5103872 88.5280011,40.9996006 92.5957447,38.9574468 C93.7097244,38.3981889 94.693941,37.3644223 95.5483943,35.856147 L95.6548337,29.8423221 C94.6367176,30.8126889 93.6170213,31.5531915 92.5957447,32.0638298 C91.0638298,32.8297872 89.1489362,32.8297872 89.1489362,32.4468085 C89.1489362,32.0638298 90.5096707,32.3439002 92.5957447,30.9148936 C93.1636797,30.5258457 94.183376,29.5045691 95.6548337,27.8510638 L95.7864221,21.0921323 C94.450246,22.0408517 93.5143464,22.6342544 92.9787234,22.8723404 C90.6955854,23.8872022 89.5284185,23.8178865 89.5319149,23.6382979 C89.5354157,23.4584807 90.6796657,23.2598774 92.9787234,21.7234043 C93.5154475,21.3647085 94.4636251,20.5236364 95.823256,19.2001881 L95.969044,11.5105465 L95.969044,11.5105465 C95.9744192,11.2270274 96.2057916,11 96.4893617,11 L96.4893617,11 L96.4893617,11 C96.7751337,11 97.0104357,11.224624 97.023698,11.5100881 L97.2497399,16.3755371 C98.2655621,18.0514898 99.0121027,19.0681547 99.4893617,19.4255319 C101.887595,21.2213576 103.316333,20.9643235 103.319149,21.0921323 C103.322065,21.2245221 102.049143,21.8908223 99.4893617,20.5744681 C99.0566295,20.3519378 98.3233028,19.5521374 97.2893816,18.1750668 L97.5002873,27.7491 C98.651971,28.8107016 99.545588,29.576659 100.181138,30.0469724 C103.355594,32.3960999 105.536152,32.5010962 105.54284,32.7278234 C105.549534,32.9547422 103.921883,33.0230834 100.771125,31.6552519 C100.142624,31.3824026 99.0770723,30.688808 97.5744681,29.5744681 L97.870234,35.2732725 C99.4602908,37.4740696 100.893617,38.9574468 102.170213,39.7234043 C104.085106,40.8723404 106,40.8723404 106,41.2553191 C106,41.6382979 104.468085,41.6382979 102.170213,40.8723404 C100.638298,40.3617021 99.2294998,39.3268504 97.9438184,37.7677852 L98.3404255,51.212766 L95.2765957,51.212766 Z" id="Path-11"></path>
                </g>
            </g>
        </g>
    </g>
</svg>